G04 #@! TF.GenerationSoftware,KiCad,Pcbnew,(6.0.5)*
G04 #@! TF.CreationDate,2022-05-31T01:04:28-04:00*
G04 #@! TF.ProjectId,GoldESC,476f6c64-4553-4432-9e6b-696361645f70,rev?*
G04 #@! TF.SameCoordinates,Original*
G04 #@! TF.FileFunction,Paste,Top*
G04 #@! TF.FilePolarity,Positive*
%FSLAX46Y46*%
G04 Gerber Fmt 4.6, Leading zero omitted, Abs format (unit mm)*
G04 Created by KiCad (PCBNEW (6.0.5)) date 2022-05-31 01:04:28*
%MOMM*%
%LPD*%
G01*
G04 APERTURE LIST*
G04 Aperture macros list*
%AMRoundRect*
0 Rectangle with rounded corners*
0 $1 Rounding radius*
0 $2 $3 $4 $5 $6 $7 $8 $9 X,Y pos of 4 corners*
0 Add a 4 corners polygon primitive as box body*
4,1,4,$2,$3,$4,$5,$6,$7,$8,$9,$2,$3,0*
0 Add four circle primitives for the rounded corners*
1,1,$1+$1,$2,$3*
1,1,$1+$1,$4,$5*
1,1,$1+$1,$6,$7*
1,1,$1+$1,$8,$9*
0 Add four rect primitives between the rounded corners*
20,1,$1+$1,$2,$3,$4,$5,0*
20,1,$1+$1,$4,$5,$6,$7,0*
20,1,$1+$1,$6,$7,$8,$9,0*
20,1,$1+$1,$8,$9,$2,$3,0*%
G04 Aperture macros list end*
%ADD10R,1.300000X1.700000*%
%ADD11RoundRect,0.200000X-0.275000X0.200000X-0.275000X-0.200000X0.275000X-0.200000X0.275000X0.200000X0*%
%ADD12RoundRect,0.225000X0.225000X0.250000X-0.225000X0.250000X-0.225000X-0.250000X0.225000X-0.250000X0*%
%ADD13R,0.700000X0.340000*%
%ADD14RoundRect,0.200000X0.200000X0.275000X-0.200000X0.275000X-0.200000X-0.275000X0.200000X-0.275000X0*%
%ADD15R,1.600000X1.300000*%
%ADD16RoundRect,0.225000X-0.250000X0.225000X-0.250000X-0.225000X0.250000X-0.225000X0.250000X0.225000X0*%
%ADD17RoundRect,0.250000X-1.075000X0.375000X-1.075000X-0.375000X1.075000X-0.375000X1.075000X0.375000X0*%
%ADD18RoundRect,0.225000X0.250000X-0.225000X0.250000X0.225000X-0.250000X0.225000X-0.250000X-0.225000X0*%
%ADD19RoundRect,0.200000X-0.200000X-0.275000X0.200000X-0.275000X0.200000X0.275000X-0.200000X0.275000X0*%
%ADD20R,0.600000X0.900000*%
%ADD21R,0.900000X0.600000*%
%ADD22R,1.050000X0.600000*%
%ADD23R,1.200000X0.900000*%
%ADD24RoundRect,0.150000X0.825000X0.150000X-0.825000X0.150000X-0.825000X-0.150000X0.825000X-0.150000X0*%
%ADD25RoundRect,0.150000X-0.150000X0.587500X-0.150000X-0.587500X0.150000X-0.587500X0.150000X0.587500X0*%
%ADD26RoundRect,0.075000X-0.662500X-0.075000X0.662500X-0.075000X0.662500X0.075000X-0.662500X0.075000X0*%
%ADD27RoundRect,0.075000X-0.075000X-0.662500X0.075000X-0.662500X0.075000X0.662500X-0.075000X0.662500X0*%
%ADD28R,0.500000X0.350000*%
%ADD29RoundRect,0.150000X0.150000X-0.512500X0.150000X0.512500X-0.150000X0.512500X-0.150000X-0.512500X0*%
%ADD30RoundRect,0.200000X0.275000X-0.200000X0.275000X0.200000X-0.275000X0.200000X-0.275000X-0.200000X0*%
%ADD31R,1.700000X1.300000*%
%ADD32RoundRect,0.100000X-0.637500X-0.100000X0.637500X-0.100000X0.637500X0.100000X-0.637500X0.100000X0*%
%ADD33RoundRect,0.225000X-0.225000X-0.250000X0.225000X-0.250000X0.225000X0.250000X-0.225000X0.250000X0*%
%ADD34R,1.100000X1.100000*%
%ADD35RoundRect,0.250000X0.362500X1.425000X-0.362500X1.425000X-0.362500X-1.425000X0.362500X-1.425000X0*%
%ADD36RoundRect,0.250000X0.250000X0.475000X-0.250000X0.475000X-0.250000X-0.475000X0.250000X-0.475000X0*%
%ADD37RoundRect,0.250000X-0.475000X0.250000X-0.475000X-0.250000X0.475000X-0.250000X0.475000X0.250000X0*%
G04 APERTURE END LIST*
D10*
X223115000Y-90750000D03*
X219615000Y-90750000D03*
D11*
X229100000Y-63675000D03*
X229100000Y-65325000D03*
D12*
X176175000Y-89062500D03*
X174625000Y-89062500D03*
D13*
X228466000Y-71766000D03*
X228466000Y-72266000D03*
X228466000Y-72766000D03*
X229966000Y-72766000D03*
X229966000Y-72266000D03*
X229966000Y-71766000D03*
D14*
X184425000Y-64800000D03*
X182775000Y-64800000D03*
D10*
X186550000Y-76600000D03*
X190050000Y-76600000D03*
D15*
X157550000Y-64500000D03*
X154250000Y-64500000D03*
X154250000Y-66500000D03*
X157550000Y-66500000D03*
D14*
X211025000Y-94634000D03*
X209375000Y-94634000D03*
D16*
X172800000Y-95325000D03*
X172800000Y-96875000D03*
D11*
X231416000Y-80291000D03*
X231416000Y-81941000D03*
D12*
X168575000Y-73800000D03*
X167025000Y-73800000D03*
D17*
X170400000Y-93900000D03*
X170400000Y-96700000D03*
D18*
X230900000Y-62275000D03*
X230900000Y-60725000D03*
X227016000Y-72641000D03*
X227016000Y-71091000D03*
D19*
X223791000Y-72616000D03*
X225441000Y-72616000D03*
D20*
X219530000Y-95900000D03*
X219530000Y-94750000D03*
D21*
X215980000Y-94150000D03*
D20*
X219530000Y-93600000D03*
X218680000Y-95900000D03*
X218680000Y-93600000D03*
X217830000Y-94750000D03*
X217830000Y-93600000D03*
D21*
X215980000Y-96630000D03*
D20*
X218680000Y-94750000D03*
D21*
X215980000Y-92870000D03*
X215980000Y-95350000D03*
D20*
X217830000Y-95900000D03*
D22*
X221700000Y-96660000D03*
X221700000Y-95390000D03*
X221700000Y-94110000D03*
X221700000Y-92840000D03*
D20*
X218731000Y-75866000D03*
X219581000Y-75866000D03*
X217881000Y-73566000D03*
D21*
X216031000Y-75316000D03*
D20*
X219581000Y-74716000D03*
X218731000Y-73566000D03*
X217881000Y-74716000D03*
X217881000Y-75866000D03*
D21*
X216031000Y-76596000D03*
D20*
X218731000Y-74716000D03*
D21*
X216031000Y-72836000D03*
D20*
X219581000Y-73566000D03*
D21*
X216031000Y-74116000D03*
D22*
X221751000Y-76626000D03*
X221751000Y-75356000D03*
X221751000Y-74076000D03*
X221751000Y-72806000D03*
D16*
X172800000Y-84287500D03*
X172800000Y-85837500D03*
D18*
X227016000Y-82641000D03*
X227016000Y-81091000D03*
D12*
X158375000Y-62500000D03*
X156825000Y-62500000D03*
D19*
X223740000Y-92650000D03*
X225390000Y-92650000D03*
D23*
X167500000Y-93550000D03*
X167500000Y-96850000D03*
D24*
X159255000Y-94105000D03*
X159255000Y-92835000D03*
X159255000Y-91565000D03*
X159255000Y-90295000D03*
X154305000Y-90295000D03*
X154305000Y-91565000D03*
X154305000Y-92835000D03*
X154305000Y-94105000D03*
D19*
X144400000Y-84300000D03*
X146050000Y-84300000D03*
D14*
X211025000Y-92834000D03*
X209375000Y-92834000D03*
D10*
X223166000Y-70716000D03*
X219666000Y-70716000D03*
D25*
X147750000Y-91962500D03*
X145850000Y-91962500D03*
X146800000Y-93837500D03*
D26*
X160337500Y-64750000D03*
X160337500Y-65250000D03*
X160337500Y-65750000D03*
X160337500Y-66250000D03*
X160337500Y-66750000D03*
X160337500Y-67250000D03*
X160337500Y-67750000D03*
X160337500Y-68250000D03*
X160337500Y-68750000D03*
X160337500Y-69250000D03*
X160337500Y-69750000D03*
X160337500Y-70250000D03*
D27*
X161750000Y-71662500D03*
X162250000Y-71662500D03*
X162750000Y-71662500D03*
X163250000Y-71662500D03*
X163750000Y-71662500D03*
X164250000Y-71662500D03*
X164750000Y-71662500D03*
X165250000Y-71662500D03*
X165750000Y-71662500D03*
X166250000Y-71662500D03*
X166750000Y-71662500D03*
X167250000Y-71662500D03*
D26*
X168662500Y-70250000D03*
X168662500Y-69750000D03*
X168662500Y-69250000D03*
X168662500Y-68750000D03*
X168662500Y-68250000D03*
X168662500Y-67750000D03*
X168662500Y-67250000D03*
X168662500Y-66750000D03*
X168662500Y-66250000D03*
X168662500Y-65750000D03*
X168662500Y-65250000D03*
X168662500Y-64750000D03*
D27*
X167250000Y-63337500D03*
X166750000Y-63337500D03*
X166250000Y-63337500D03*
X165750000Y-63337500D03*
X165250000Y-63337500D03*
X164750000Y-63337500D03*
X164250000Y-63337500D03*
X163750000Y-63337500D03*
X163250000Y-63337500D03*
X162750000Y-63337500D03*
X162250000Y-63337500D03*
X161750000Y-63337500D03*
D19*
X228340000Y-90400000D03*
X229990000Y-90400000D03*
D11*
X225316000Y-79491000D03*
X225316000Y-81141000D03*
D21*
X216031000Y-86596000D03*
D20*
X219581000Y-84716000D03*
X218731000Y-84716000D03*
X219581000Y-85866000D03*
D21*
X216031000Y-82836000D03*
D20*
X217881000Y-83566000D03*
D21*
X216031000Y-84116000D03*
D20*
X217881000Y-85866000D03*
D21*
X216031000Y-85316000D03*
D20*
X217881000Y-84716000D03*
X218731000Y-83566000D03*
X218731000Y-85866000D03*
X219581000Y-83566000D03*
D22*
X221751000Y-86626000D03*
X221751000Y-85356000D03*
X221751000Y-84076000D03*
X221751000Y-82806000D03*
D28*
X148600000Y-90200000D03*
X148600000Y-89600000D03*
X147400000Y-89600000D03*
X147400000Y-90200000D03*
D19*
X161255000Y-90300000D03*
X162905000Y-90300000D03*
D10*
X186650000Y-62400000D03*
X190150000Y-62400000D03*
D11*
X225265000Y-89525000D03*
X225265000Y-91175000D03*
D14*
X184425000Y-67200000D03*
X182775000Y-67200000D03*
D19*
X144400000Y-79300000D03*
X146050000Y-79300000D03*
D29*
X174450000Y-95037500D03*
X175400000Y-95037500D03*
X176350000Y-95037500D03*
X176350000Y-92762500D03*
X175400000Y-92762500D03*
X174450000Y-92762500D03*
D10*
X186650000Y-60000000D03*
X190150000Y-60000000D03*
D19*
X170775000Y-68000000D03*
X172425000Y-68000000D03*
D30*
X179600000Y-89087500D03*
X179600000Y-87437500D03*
D31*
X226800000Y-64350000D03*
X226800000Y-60850000D03*
D30*
X232916000Y-81941000D03*
X232916000Y-80291000D03*
D19*
X170775000Y-66400000D03*
X172425000Y-66400000D03*
D14*
X184425000Y-62400000D03*
X182775000Y-62400000D03*
D18*
X157900000Y-71475000D03*
X157900000Y-69925000D03*
D32*
X187112500Y-89900000D03*
X187112500Y-90550000D03*
X187112500Y-91200000D03*
X187112500Y-91850000D03*
X187112500Y-92500000D03*
X187112500Y-93150000D03*
X187112500Y-93800000D03*
X187112500Y-94450000D03*
X187112500Y-95100000D03*
X187112500Y-95750000D03*
X192837500Y-95750000D03*
X192837500Y-95100000D03*
X192837500Y-94450000D03*
X192837500Y-93800000D03*
X192837500Y-93150000D03*
X192837500Y-92500000D03*
X192837500Y-91850000D03*
X192837500Y-91200000D03*
X192837500Y-90550000D03*
X192837500Y-89900000D03*
D29*
X174450000Y-87200000D03*
X175400000Y-87200000D03*
X176350000Y-87200000D03*
X176350000Y-84925000D03*
X175400000Y-84925000D03*
X174450000Y-84925000D03*
D14*
X184425000Y-69600000D03*
X182775000Y-69600000D03*
X184325000Y-79000000D03*
X182675000Y-79000000D03*
D12*
X176175000Y-96900000D03*
X174625000Y-96900000D03*
D30*
X232865000Y-91975000D03*
X232865000Y-90325000D03*
D16*
X172800000Y-87487500D03*
X172800000Y-89037500D03*
D10*
X186650000Y-69600000D03*
X190150000Y-69600000D03*
D19*
X223791000Y-82616000D03*
X225441000Y-82616000D03*
D10*
X186650000Y-72000000D03*
X190150000Y-72000000D03*
D14*
X184425000Y-60000000D03*
X182775000Y-60000000D03*
D33*
X153825000Y-62500000D03*
X155375000Y-62500000D03*
D12*
X157975000Y-68300000D03*
X156425000Y-68300000D03*
D34*
X199975000Y-91625000D03*
X202775000Y-91625000D03*
D11*
X231416000Y-70291000D03*
X231416000Y-71941000D03*
D35*
X231378500Y-75516000D03*
X225453500Y-75516000D03*
D18*
X226965000Y-92675000D03*
X226965000Y-91125000D03*
D34*
X199975000Y-88625000D03*
X202775000Y-88625000D03*
D17*
X170200000Y-86062500D03*
X170200000Y-88862500D03*
D10*
X186650000Y-64800000D03*
X190150000Y-64800000D03*
D35*
X231327500Y-95550000D03*
X225402500Y-95550000D03*
D34*
X199975000Y-94625000D03*
X202775000Y-94625000D03*
D12*
X154775000Y-68300000D03*
X153225000Y-68300000D03*
D14*
X211075000Y-84600000D03*
X209425000Y-84600000D03*
D36*
X217866000Y-70816000D03*
X215966000Y-70816000D03*
X217815000Y-90850000D03*
X215915000Y-90850000D03*
D14*
X211075000Y-74600000D03*
X209425000Y-74600000D03*
D30*
X163800000Y-61375000D03*
X163800000Y-59725000D03*
X179800000Y-96925000D03*
X179800000Y-95275000D03*
X232916000Y-71941000D03*
X232916000Y-70291000D03*
D16*
X196275000Y-91650000D03*
X196275000Y-93200000D03*
D14*
X184325000Y-76600000D03*
X182675000Y-76600000D03*
D16*
X172800000Y-92125000D03*
X172800000Y-93675000D03*
D33*
X160625000Y-61300000D03*
X162175000Y-61300000D03*
D11*
X229100000Y-60675000D03*
X229100000Y-62325000D03*
D36*
X217866000Y-80816000D03*
X215966000Y-80816000D03*
D11*
X231365000Y-90325000D03*
X231365000Y-91975000D03*
D30*
X178000000Y-96925000D03*
X178000000Y-95275000D03*
D19*
X228391000Y-80366000D03*
X230041000Y-80366000D03*
D13*
X228466000Y-81766000D03*
X228466000Y-82266000D03*
X228466000Y-82766000D03*
X229966000Y-82766000D03*
X229966000Y-82266000D03*
X229966000Y-81766000D03*
D23*
X181800000Y-85750000D03*
X181800000Y-89050000D03*
D10*
X223166000Y-80716000D03*
X219666000Y-80716000D03*
X186650000Y-67200000D03*
X190150000Y-67200000D03*
D16*
X196275000Y-94650000D03*
X196275000Y-96200000D03*
D19*
X228391000Y-70366000D03*
X230041000Y-70366000D03*
X151375000Y-84400000D03*
X153025000Y-84400000D03*
D14*
X184425000Y-72000000D03*
X182775000Y-72000000D03*
D16*
X170800000Y-63225000D03*
X170800000Y-64775000D03*
D30*
X178000000Y-89087500D03*
X178000000Y-87437500D03*
D14*
X162905000Y-91900000D03*
X161255000Y-91900000D03*
D10*
X186550000Y-79000000D03*
X190050000Y-79000000D03*
D18*
X178000000Y-93675000D03*
X178000000Y-92125000D03*
D16*
X196275000Y-88650000D03*
X196275000Y-90200000D03*
D37*
X184575000Y-93575000D03*
X184575000Y-95475000D03*
D11*
X225316000Y-69491000D03*
X225316000Y-71141000D03*
D19*
X151375000Y-79400000D03*
X153025000Y-79400000D03*
D35*
X231378500Y-85516000D03*
X225453500Y-85516000D03*
D18*
X178000000Y-85837500D03*
X178000000Y-84287500D03*
D14*
X211075000Y-72800000D03*
X209425000Y-72800000D03*
X211075000Y-82800000D03*
X209425000Y-82800000D03*
D13*
X228415000Y-91800000D03*
X228415000Y-92300000D03*
X228415000Y-92800000D03*
X229915000Y-92800000D03*
X229915000Y-92300000D03*
X229915000Y-91800000D03*
M02*
