G04 #@! TF.GenerationSoftware,KiCad,Pcbnew,(6.0.5)*
G04 #@! TF.CreationDate,2022-05-31T01:04:28-04:00*
G04 #@! TF.ProjectId,GoldESC,476f6c64-4553-4432-9e6b-696361645f70,rev?*
G04 #@! TF.SameCoordinates,Original*
G04 #@! TF.FileFunction,Paste,Bot*
G04 #@! TF.FilePolarity,Positive*
%FSLAX46Y46*%
G04 Gerber Fmt 4.6, Leading zero omitted, Abs format (unit mm)*
G04 Created by KiCad (PCBNEW (6.0.5)) date 2022-05-31 01:04:28*
%MOMM*%
%LPD*%
G01*
G04 APERTURE LIST*
G04 Aperture macros list*
%AMRoundRect*
0 Rectangle with rounded corners*
0 $1 Rounding radius*
0 $2 $3 $4 $5 $6 $7 $8 $9 X,Y pos of 4 corners*
0 Add a 4 corners polygon primitive as box body*
4,1,4,$2,$3,$4,$5,$6,$7,$8,$9,$2,$3,0*
0 Add four circle primitives for the rounded corners*
1,1,$1+$1,$2,$3*
1,1,$1+$1,$4,$5*
1,1,$1+$1,$6,$7*
1,1,$1+$1,$8,$9*
0 Add four rect primitives between the rounded corners*
20,1,$1+$1,$2,$3,$4,$5,0*
20,1,$1+$1,$4,$5,$6,$7,0*
20,1,$1+$1,$6,$7,$8,$9,0*
20,1,$1+$1,$8,$9,$2,$3,0*%
G04 Aperture macros list end*
%ADD10R,0.600000X0.900000*%
%ADD11R,0.900000X0.600000*%
%ADD12R,1.050000X0.600000*%
%ADD13RoundRect,0.200000X0.200000X0.275000X-0.200000X0.275000X-0.200000X-0.275000X0.200000X-0.275000X0*%
G04 APERTURE END LIST*
D10*
X218251000Y-73566000D03*
X218251000Y-75866000D03*
X218251000Y-74716000D03*
X219951000Y-74716000D03*
X219951000Y-73566000D03*
X219101000Y-73566000D03*
X219101000Y-75866000D03*
X219951000Y-75866000D03*
D11*
X221801000Y-75316000D03*
D10*
X219101000Y-74716000D03*
D11*
X221801000Y-74116000D03*
X221801000Y-76596000D03*
X221801000Y-72836000D03*
D12*
X216081000Y-76626000D03*
X216081000Y-75356000D03*
X216081000Y-74076000D03*
X216081000Y-72806000D03*
D13*
X219888096Y-78200000D03*
X218238096Y-78200000D03*
D10*
X218251000Y-84716000D03*
X219101000Y-83566000D03*
X219101000Y-84716000D03*
X219101000Y-85866000D03*
X218251000Y-85866000D03*
D11*
X221801000Y-84116000D03*
X221801000Y-86596000D03*
X221801000Y-85316000D03*
D10*
X219951000Y-84716000D03*
X218251000Y-83566000D03*
D11*
X221801000Y-82836000D03*
D10*
X219951000Y-85866000D03*
X219951000Y-83566000D03*
D12*
X216081000Y-86626000D03*
X216081000Y-85356000D03*
X216081000Y-84076000D03*
X216081000Y-82806000D03*
D10*
X219900000Y-94750000D03*
X219050000Y-94750000D03*
X219050000Y-95900000D03*
D11*
X221750000Y-95350000D03*
D10*
X218200000Y-93600000D03*
X218200000Y-95900000D03*
D11*
X221750000Y-94150000D03*
D10*
X218200000Y-94750000D03*
X219900000Y-93600000D03*
X219050000Y-93600000D03*
X219900000Y-95900000D03*
D11*
X221750000Y-96630000D03*
X221750000Y-92870000D03*
D12*
X216030000Y-96660000D03*
X216030000Y-95390000D03*
X216030000Y-94110000D03*
X216030000Y-92840000D03*
D13*
X216925000Y-78200000D03*
X215275000Y-78200000D03*
M02*
