G04 #@! TF.GenerationSoftware,KiCad,Pcbnew,(6.0.5)*
G04 #@! TF.CreationDate,2022-05-31T01:04:28-04:00*
G04 #@! TF.ProjectId,GoldESC,476f6c64-4553-4432-9e6b-696361645f70,rev?*
G04 #@! TF.SameCoordinates,Original*
G04 #@! TF.FileFunction,Copper,L4,Bot*
G04 #@! TF.FilePolarity,Positive*
%FSLAX46Y46*%
G04 Gerber Fmt 4.6, Leading zero omitted, Abs format (unit mm)*
G04 Created by KiCad (PCBNEW (6.0.5)) date 2022-05-31 01:04:28*
%MOMM*%
%LPD*%
G01*
G04 APERTURE LIST*
G04 Aperture macros list*
%AMRoundRect*
0 Rectangle with rounded corners*
0 $1 Rounding radius*
0 $2 $3 $4 $5 $6 $7 $8 $9 X,Y pos of 4 corners*
0 Add a 4 corners polygon primitive as box body*
4,1,4,$2,$3,$4,$5,$6,$7,$8,$9,$2,$3,0*
0 Add four circle primitives for the rounded corners*
1,1,$1+$1,$2,$3*
1,1,$1+$1,$4,$5*
1,1,$1+$1,$6,$7*
1,1,$1+$1,$8,$9*
0 Add four rect primitives between the rounded corners*
20,1,$1+$1,$2,$3,$4,$5,0*
20,1,$1+$1,$4,$5,$6,$7,0*
20,1,$1+$1,$6,$7,$8,$9,0*
20,1,$1+$1,$8,$9,$2,$3,0*%
%AMFreePoly0*
4,1,9,2.975000,-2.350000,1.425000,-2.350000,1.425000,-2.100000,-1.650000,-2.100000,-1.650000,2.100000,1.425000,2.100000,1.425000,2.350000,2.975000,2.350000,2.975000,-2.350000,2.975000,-2.350000,$1*%
G04 Aperture macros list end*
G04 #@! TA.AperFunction,ComponentPad*
%ADD10C,1.200000*%
G04 #@! TD*
G04 #@! TA.AperFunction,ComponentPad*
%ADD11R,3.000000X3.000000*%
G04 #@! TD*
G04 #@! TA.AperFunction,ComponentPad*
%ADD12C,3.000000*%
G04 #@! TD*
G04 #@! TA.AperFunction,ComponentPad*
%ADD13R,1.700000X1.700000*%
G04 #@! TD*
G04 #@! TA.AperFunction,ComponentPad*
%ADD14O,1.700000X1.700000*%
G04 #@! TD*
G04 #@! TA.AperFunction,ComponentPad*
%ADD15R,1.800000X1.800000*%
G04 #@! TD*
G04 #@! TA.AperFunction,ComponentPad*
%ADD16C,1.800000*%
G04 #@! TD*
G04 #@! TA.AperFunction,ComponentPad*
%ADD17C,1.600000*%
G04 #@! TD*
G04 #@! TA.AperFunction,ComponentPad*
%ADD18O,1.600000X1.600000*%
G04 #@! TD*
G04 #@! TA.AperFunction,ComponentPad*
%ADD19RoundRect,0.250000X-1.000000X1.000000X-1.000000X-1.000000X1.000000X-1.000000X1.000000X1.000000X0*%
G04 #@! TD*
G04 #@! TA.AperFunction,ComponentPad*
%ADD20RoundRect,0.250000X-1.000000X-1.000000X1.000000X-1.000000X1.000000X1.000000X-1.000000X1.000000X0*%
G04 #@! TD*
G04 #@! TA.AperFunction,ComponentPad*
%ADD21RoundRect,0.250000X1.000000X1.000000X-1.000000X1.000000X-1.000000X-1.000000X1.000000X-1.000000X0*%
G04 #@! TD*
G04 #@! TA.AperFunction,ComponentPad*
%ADD22RoundRect,0.250000X1.000000X-1.000000X1.000000X1.000000X-1.000000X1.000000X-1.000000X-1.000000X0*%
G04 #@! TD*
G04 #@! TA.AperFunction,ComponentPad*
%ADD23C,1.400000*%
G04 #@! TD*
G04 #@! TA.AperFunction,ComponentPad*
%ADD24RoundRect,0.200000X1.050000X-0.800000X1.050000X0.800000X-1.050000X0.800000X-1.050000X-0.800000X0*%
G04 #@! TD*
G04 #@! TA.AperFunction,ComponentPad*
%ADD25RoundRect,0.200000X-1.050000X0.800000X-1.050000X-0.800000X1.050000X-0.800000X1.050000X0.800000X0*%
G04 #@! TD*
G04 #@! TA.AperFunction,ComponentPad*
%ADD26RoundRect,0.250000X0.600000X0.600000X-0.600000X0.600000X-0.600000X-0.600000X0.600000X-0.600000X0*%
G04 #@! TD*
G04 #@! TA.AperFunction,ComponentPad*
%ADD27C,1.700000*%
G04 #@! TD*
G04 #@! TA.AperFunction,SMDPad,CuDef*
%ADD28R,1.150000X0.700000*%
G04 #@! TD*
G04 #@! TA.AperFunction,SMDPad,CuDef*
%ADD29FreePoly0,0.000000*%
G04 #@! TD*
G04 #@! TA.AperFunction,SMDPad,CuDef*
%ADD30RoundRect,0.200000X0.200000X0.275000X-0.200000X0.275000X-0.200000X-0.275000X0.200000X-0.275000X0*%
G04 #@! TD*
G04 #@! TA.AperFunction,ViaPad*
%ADD31C,0.508000*%
G04 #@! TD*
G04 #@! TA.AperFunction,Conductor*
%ADD32C,0.254000*%
G04 #@! TD*
G04 #@! TA.AperFunction,Conductor*
%ADD33C,3.000000*%
G04 #@! TD*
G04 #@! TA.AperFunction,Conductor*
%ADD34C,0.508000*%
G04 #@! TD*
G04 #@! TA.AperFunction,Conductor*
%ADD35C,0.400000*%
G04 #@! TD*
G04 APERTURE END LIST*
D10*
X230349000Y-88834000D03*
D11*
X208160000Y-63700000D03*
D12*
X213240000Y-63700000D03*
D10*
X151180000Y-92800000D03*
X207300000Y-82400000D03*
X163000000Y-85800000D03*
D13*
X141600000Y-60400000D03*
D14*
X141600000Y-62940000D03*
X141600000Y-65480000D03*
X141600000Y-68020000D03*
X141600000Y-70560000D03*
X141600000Y-73100000D03*
D10*
X172200000Y-71450000D03*
X236050000Y-66950000D03*
X207300000Y-72400000D03*
X230400000Y-78800000D03*
X151180000Y-90000000D03*
X223200000Y-78800000D03*
X207249000Y-95034000D03*
D15*
X142225000Y-84340000D03*
D16*
X142225000Y-81800000D03*
X142225000Y-79260000D03*
D10*
X161500000Y-59600000D03*
D17*
X141600000Y-96600000D03*
D18*
X151760000Y-96600000D03*
D10*
X207249000Y-92434000D03*
D13*
X173125000Y-79225000D03*
D14*
X170585000Y-79225000D03*
X168045000Y-79225000D03*
X165505000Y-79225000D03*
X162965000Y-79225000D03*
X160425000Y-79225000D03*
D19*
X235766000Y-74734000D03*
D20*
X234234000Y-74734000D03*
D21*
X235766000Y-76266000D03*
D22*
X234234000Y-76266000D03*
D10*
X226800000Y-78800000D03*
X207400000Y-78200000D03*
D17*
X154100000Y-96600000D03*
D18*
X164260000Y-96600000D03*
D23*
X220700000Y-65450000D03*
X220700000Y-62150000D03*
D22*
X234234000Y-86266000D03*
D21*
X235766000Y-86266000D03*
D20*
X234234000Y-84734000D03*
D19*
X235766000Y-84734000D03*
D15*
X149200000Y-84440000D03*
D16*
X149200000Y-81900000D03*
X149200000Y-79360000D03*
D24*
X141734000Y-89276000D03*
D25*
X143266000Y-89276000D03*
X143266000Y-92324000D03*
D24*
X141734000Y-92324000D03*
D26*
X197940000Y-79020000D03*
D27*
X195400000Y-79020000D03*
X197940000Y-76480000D03*
X195400000Y-76480000D03*
X197940000Y-73940000D03*
X195400000Y-73940000D03*
X197940000Y-71400000D03*
X195400000Y-71400000D03*
X197940000Y-68860000D03*
X195400000Y-68860000D03*
X197940000Y-66320000D03*
X195400000Y-66320000D03*
X197940000Y-63780000D03*
X195400000Y-63780000D03*
D10*
X226800000Y-68800000D03*
X165080000Y-90200000D03*
X230400000Y-68800000D03*
X226749000Y-88834000D03*
X207300000Y-85000000D03*
X165080000Y-94100000D03*
X223149000Y-88834000D03*
X207300000Y-75000000D03*
X231000000Y-63800000D03*
X167850000Y-91550000D03*
X203200000Y-76350000D03*
X223200000Y-68800000D03*
D21*
X235715000Y-96300000D03*
D20*
X234183000Y-94768000D03*
D22*
X234183000Y-96300000D03*
D19*
X235715000Y-94768000D03*
D28*
X216081000Y-76626000D03*
X216081000Y-75356000D03*
X216081000Y-74076000D03*
X216081000Y-72806000D03*
D29*
X219351000Y-74716000D03*
D30*
X219888096Y-78200000D03*
X218238096Y-78200000D03*
D28*
X216081000Y-86626000D03*
X216081000Y-85356000D03*
X216081000Y-84076000D03*
X216081000Y-82806000D03*
D29*
X219351000Y-84716000D03*
D28*
X216030000Y-96660000D03*
X216030000Y-95390000D03*
X216030000Y-94110000D03*
X216030000Y-92840000D03*
D29*
X219300000Y-94750000D03*
D30*
X216925000Y-78200000D03*
X215275000Y-78200000D03*
D31*
X223615000Y-94100000D03*
X224116000Y-86766000D03*
X224616000Y-86266000D03*
X223666000Y-86266000D03*
X223166000Y-85716000D03*
X230378500Y-81328500D03*
X227016000Y-82016000D03*
X221800000Y-80900000D03*
X232865000Y-91100000D03*
X225265000Y-90300000D03*
X220415000Y-90750000D03*
X216849000Y-91834000D03*
X224566000Y-85216000D03*
X223666000Y-85166000D03*
X224116000Y-84666000D03*
X222716000Y-86266000D03*
X221800000Y-81900000D03*
X161628353Y-69669500D03*
X162190295Y-70370040D03*
X160900000Y-71650000D03*
X164200000Y-65750000D03*
X162169500Y-74554541D03*
X162668784Y-76284011D03*
X163250000Y-77544544D03*
X185400000Y-76600000D03*
X164750000Y-69650000D03*
X185350000Y-79000000D03*
X163755428Y-70369500D03*
X166750000Y-62200000D03*
X185450000Y-64800000D03*
X185450000Y-72000000D03*
X165250000Y-64650000D03*
X166250000Y-64650000D03*
X185450000Y-67200000D03*
X165750000Y-62200000D03*
X185450000Y-69600000D03*
X173150000Y-67200000D03*
X173150000Y-67950000D03*
X221800000Y-71900000D03*
X210500000Y-74600000D03*
X210500000Y-84600000D03*
X221749000Y-91934000D03*
X210449000Y-94634000D03*
X163250000Y-65750000D03*
X217600000Y-78200000D03*
X154065989Y-84400000D03*
X165330500Y-70289506D03*
X154100000Y-79300000D03*
X165750000Y-69650000D03*
X147050000Y-84300000D03*
X166491501Y-70343436D03*
X167419500Y-70255428D03*
X147050000Y-79300000D03*
X167450000Y-68250000D03*
X188300000Y-89900000D03*
X169850000Y-67750000D03*
X189100000Y-90600000D03*
X188300000Y-91200000D03*
X167450000Y-67250000D03*
X169981307Y-69756117D03*
X189100000Y-91900000D03*
X188300000Y-92500000D03*
X167450000Y-69250000D03*
X169941033Y-68745418D03*
X189100000Y-93200000D03*
X162669500Y-64623597D03*
X145850000Y-90500000D03*
X165250000Y-65750000D03*
X167250000Y-64650000D03*
X158400000Y-69300000D03*
X156400000Y-66500000D03*
X215900000Y-78200000D03*
X189100000Y-64800000D03*
X189100000Y-60000000D03*
X189100000Y-62400000D03*
X230000000Y-60700000D03*
X189100000Y-67200000D03*
X160627500Y-92527500D03*
X216600000Y-80800000D03*
X216549000Y-90834000D03*
X216600000Y-70800000D03*
X171700000Y-95400000D03*
X166750000Y-73150000D03*
X175400000Y-86062500D03*
X153825000Y-63475000D03*
X155700000Y-68300000D03*
X189000000Y-76600000D03*
X227016000Y-72016000D03*
X226965000Y-92050000D03*
X232916000Y-71066000D03*
X232916000Y-81066000D03*
X189000000Y-79000000D03*
X147700000Y-93900000D03*
X162250000Y-61950000D03*
X189100000Y-72000000D03*
X163800000Y-60400000D03*
X175400000Y-94000000D03*
X189100000Y-69600000D03*
X225316000Y-70266000D03*
X225316000Y-80266000D03*
X171700000Y-87500000D03*
X157400000Y-62500000D03*
X185425000Y-94625000D03*
X220466000Y-70716000D03*
X220466000Y-80716000D03*
X171800000Y-64775000D03*
X181962500Y-72000000D03*
X170000000Y-87900000D03*
X159012500Y-63137500D03*
X181862500Y-76600000D03*
X181962500Y-67200000D03*
X181962500Y-64800000D03*
X161112500Y-61787500D03*
X170150000Y-73400000D03*
X219300000Y-78200000D03*
X158293843Y-70893843D03*
X181850000Y-79000000D03*
X181962500Y-62400000D03*
X170700000Y-87900000D03*
X181962500Y-60000000D03*
X230378500Y-71328500D03*
X230327500Y-91362500D03*
X181962500Y-69600000D03*
X171800000Y-63225000D03*
X156700000Y-87500000D03*
X178725000Y-98000000D03*
X141600000Y-75700000D03*
X170000000Y-95800000D03*
X141600000Y-74900000D03*
X170700000Y-95800000D03*
X207300000Y-90200000D03*
X224566000Y-74116000D03*
X222716000Y-76266000D03*
X222716000Y-75216000D03*
X223166000Y-76766000D03*
X224566000Y-75216000D03*
X224116000Y-75716000D03*
X223166000Y-75716000D03*
X223666000Y-74066000D03*
X223666000Y-75166000D03*
X223666000Y-76266000D03*
X224116000Y-76766000D03*
X222766000Y-74066000D03*
X224616000Y-76266000D03*
X197200000Y-90200000D03*
X223166000Y-74666000D03*
X224116000Y-74666000D03*
X191600000Y-90600000D03*
X224566000Y-84116000D03*
X221750000Y-87800000D03*
X222716000Y-85216000D03*
X223166000Y-86766000D03*
X224116000Y-85716000D03*
X197200000Y-92896980D03*
X207300000Y-91150000D03*
X223666000Y-84066000D03*
X222766000Y-84066000D03*
X223166000Y-84666000D03*
X191600000Y-92500000D03*
X224515000Y-94150000D03*
X222665000Y-96300000D03*
X222665000Y-95250000D03*
X223115000Y-96800000D03*
X224515000Y-95250000D03*
X224065000Y-95750000D03*
X223115000Y-95750000D03*
X223615000Y-95200000D03*
X223615000Y-96300000D03*
X224065000Y-96800000D03*
X222715000Y-94100000D03*
X224565000Y-96300000D03*
X197200000Y-96200000D03*
X223115000Y-94700000D03*
X224065000Y-94700000D03*
X191600000Y-94500000D03*
X191600000Y-95800000D03*
X189100000Y-95800000D03*
X188300000Y-95100000D03*
X216900000Y-71800000D03*
X210500000Y-72800000D03*
X216900000Y-81800000D03*
X210500000Y-82800000D03*
X210449000Y-92834000D03*
D32*
X184800000Y-64150000D02*
X168700000Y-64150000D01*
X168700000Y-64150000D02*
X166750000Y-62200000D01*
X185450000Y-64800000D02*
X184800000Y-64150000D01*
X182900000Y-66350000D02*
X166950000Y-66350000D01*
X184800000Y-71350000D02*
X184800000Y-68250000D01*
X185450000Y-72000000D02*
X184800000Y-71350000D01*
X166950000Y-66350000D02*
X165250000Y-64650000D01*
X184800000Y-68250000D02*
X182900000Y-66350000D01*
X185450000Y-67200000D02*
X184146480Y-65896480D01*
X184146480Y-65896480D02*
X167496480Y-65896480D01*
X167496480Y-65896480D02*
X166250000Y-64650000D01*
X165750000Y-62200000D02*
X168992960Y-65442960D01*
X184742960Y-65442960D02*
X186150000Y-66850000D01*
X168992960Y-65442960D02*
X184742960Y-65442960D01*
X186150000Y-68900000D02*
X185450000Y-69600000D01*
X186150000Y-66850000D02*
X186150000Y-68900000D01*
X173150000Y-67200000D02*
X181024842Y-67200000D01*
X181024842Y-67200000D02*
X184346480Y-70521638D01*
X184346480Y-71796480D02*
X186490000Y-73940000D01*
X186490000Y-73940000D02*
X195400000Y-73940000D01*
X184346480Y-70521638D02*
X184346480Y-71796480D01*
X173150000Y-67950000D02*
X173220968Y-67950000D01*
X195400000Y-71400000D02*
X196576511Y-72576511D01*
X183750000Y-70566532D02*
X183750000Y-71850000D01*
X180836988Y-67653520D02*
X183750000Y-70566532D01*
X196576511Y-74523489D02*
X195983489Y-75116511D01*
X173517448Y-67653520D02*
X180836988Y-67653520D01*
X173220968Y-67950000D02*
X173517448Y-67653520D01*
X187025137Y-75116511D02*
X183750000Y-71841374D01*
X195983489Y-75116511D02*
X187025137Y-75116511D01*
X183750000Y-71841374D02*
X183750000Y-71650000D01*
X196576511Y-72576511D02*
X196576511Y-74523489D01*
X165080000Y-90200000D02*
X158653511Y-83773511D01*
X158653511Y-71996489D02*
X161049022Y-69600978D01*
X161049022Y-67950978D02*
X163250000Y-65750000D01*
X161049022Y-69600978D02*
X161049022Y-67950978D01*
X158653511Y-83773511D02*
X158653511Y-71996489D01*
X218238096Y-78200000D02*
X216925000Y-78200000D01*
X166868489Y-78481511D02*
X166868489Y-79718489D01*
X167551511Y-80401511D02*
X171948489Y-80401511D01*
X168453509Y-69762431D02*
X168453511Y-69762433D01*
X168453509Y-69762428D02*
X168453509Y-69762431D01*
X168453509Y-69386729D02*
X168453509Y-69578750D01*
X168453511Y-69876689D02*
X168489642Y-69985081D01*
X168453511Y-69386727D02*
X168453509Y-69386729D01*
X171948489Y-80401511D02*
X173125000Y-79225000D01*
X168450000Y-75041361D02*
X168450000Y-76900000D01*
X168453511Y-75037851D02*
X168450000Y-75041361D01*
X168453511Y-70057343D02*
X168453511Y-75037851D01*
X167450000Y-68250000D02*
X168453511Y-69253511D01*
X168453511Y-69253511D02*
X168453511Y-69386727D01*
X168489642Y-69985081D02*
X168453511Y-70057343D01*
X168453511Y-69762433D02*
X168453511Y-69876689D01*
X168453507Y-69762425D02*
X168453509Y-69762428D01*
X166868489Y-79718489D02*
X167551511Y-80401511D01*
X168453509Y-69578750D02*
X168453507Y-69762425D01*
X168450000Y-76900000D02*
X166868489Y-78481511D01*
X169353511Y-68246489D02*
X169353511Y-68662150D01*
X169416598Y-69571906D02*
X169375874Y-69775521D01*
X169360533Y-68669173D02*
X169360533Y-69487808D01*
X169850000Y-67750000D02*
X169353511Y-68246489D01*
X169468926Y-70054678D02*
X169468926Y-78108926D01*
X169360533Y-69487808D02*
X169416598Y-69571906D01*
X169468926Y-78108926D02*
X170585000Y-79225000D01*
X169353511Y-68662150D02*
X169360533Y-68669173D01*
X169375874Y-69775521D02*
X169468926Y-70054678D01*
X168979284Y-70019879D02*
X168907022Y-70164402D01*
X167450000Y-67250000D02*
X167450000Y-67400001D01*
X168907022Y-74377857D02*
X168907022Y-78362978D01*
X167450000Y-67400001D02*
X168907022Y-68857023D01*
X168907022Y-68857023D02*
X168907022Y-69625119D01*
X168907022Y-78362978D02*
X168045000Y-79225000D01*
X168907024Y-74190006D02*
X168907022Y-74377857D01*
X168907551Y-69804679D02*
X168979284Y-70019879D01*
X168907022Y-74190004D02*
X168907024Y-74190006D01*
X168907022Y-70164402D02*
X168907022Y-74190004D01*
X168907022Y-69625119D02*
X168935053Y-69667166D01*
X168935053Y-69667166D02*
X168907551Y-69804679D01*
X169981307Y-72281307D02*
X169981307Y-69756117D01*
X174446489Y-76746489D02*
X169981307Y-72281307D01*
X173803616Y-80855022D02*
X174446489Y-80212149D01*
X167135022Y-80855022D02*
X173803616Y-80855022D01*
X174446489Y-80212149D02*
X174446489Y-76746489D01*
X165505000Y-79225000D02*
X167135022Y-80855022D01*
X167999998Y-69950278D02*
X167999998Y-69950282D01*
X163625000Y-79225000D02*
X162965000Y-79225000D01*
X168000000Y-74850000D02*
X163625000Y-79225000D01*
X167450000Y-69400280D02*
X167999998Y-69950278D01*
X167999998Y-69950282D02*
X168000000Y-69950283D01*
X168000000Y-69950283D02*
X168000000Y-74850000D01*
X167450000Y-69250000D02*
X167450000Y-69400280D01*
X170561808Y-69996569D02*
X170550000Y-70008377D01*
X170550000Y-69503857D02*
X170561808Y-69515665D01*
X170561808Y-69515665D02*
X170561808Y-69996569D01*
X169945418Y-68745418D02*
X170550000Y-69350000D01*
X170550000Y-72208638D02*
X174900000Y-76558639D01*
X173950000Y-81350000D02*
X162550000Y-81350000D01*
X174900000Y-76558639D02*
X174900000Y-80400000D01*
X169941033Y-68745418D02*
X169945418Y-68745418D01*
X162550000Y-81350000D02*
X160425000Y-79225000D01*
X174900000Y-80400000D02*
X173950000Y-81350000D01*
X170550000Y-70008377D02*
X170550000Y-72208638D01*
X170550000Y-69350000D02*
X170550000Y-69503857D01*
X160595511Y-69413127D02*
X158200000Y-71808639D01*
X158200000Y-87220000D02*
X165080000Y-94100000D01*
X160595511Y-66697586D02*
X160595511Y-69413127D01*
X162669500Y-64623597D02*
X160595511Y-66697586D01*
X158200000Y-71808639D02*
X158200000Y-87220000D01*
X145850000Y-90500000D02*
X145850000Y-90650000D01*
X151760000Y-96560000D02*
X151760000Y-96600000D01*
X145850000Y-90650000D02*
X151760000Y-96560000D01*
X164400000Y-62500000D02*
X162903520Y-61003520D01*
X165250000Y-65750000D02*
X164400000Y-64900000D01*
X164400000Y-64900000D02*
X164400000Y-62500000D01*
X143536480Y-61003520D02*
X141600000Y-62940000D01*
X162903520Y-61003520D02*
X143536480Y-61003520D01*
X163559543Y-60980511D02*
X163129032Y-60550000D01*
X163129032Y-60550000D02*
X141750000Y-60550000D01*
X141750000Y-60550000D02*
X141600000Y-60400000D01*
X163580511Y-60980511D02*
X163559543Y-60980511D01*
X167250000Y-64650000D02*
X163580511Y-60980511D01*
D33*
X213200000Y-74600000D02*
X213200000Y-76350000D01*
X208160000Y-65060000D02*
X213200000Y-70100000D01*
X213200000Y-86200000D02*
X213200000Y-93850000D01*
D32*
X216030000Y-95390000D02*
X214740000Y-95390000D01*
X215900000Y-78200000D02*
X215275000Y-78200000D01*
X216081000Y-76626000D02*
X213476000Y-76626000D01*
X216030000Y-96660000D02*
X214260000Y-96660000D01*
X214740000Y-95390000D02*
X213200000Y-93850000D01*
D33*
X213200000Y-76350000D02*
X213200000Y-84550000D01*
D32*
X213626000Y-86626000D02*
X213200000Y-86200000D01*
D33*
X213200000Y-84550000D02*
X213200000Y-86200000D01*
X213200000Y-70100000D02*
X213200000Y-74600000D01*
D32*
X216081000Y-75356000D02*
X214194000Y-75356000D01*
X213674000Y-84076000D02*
X213200000Y-84550000D01*
D33*
X213200000Y-93850000D02*
X213200000Y-95600000D01*
D32*
X214260000Y-96660000D02*
X213200000Y-95600000D01*
X214194000Y-75356000D02*
X213200000Y-76350000D01*
X213724000Y-74076000D02*
X213200000Y-74600000D01*
X214006000Y-85356000D02*
X213200000Y-84550000D01*
X216081000Y-85356000D02*
X214006000Y-85356000D01*
X216081000Y-84076000D02*
X213674000Y-84076000D01*
X213476000Y-76626000D02*
X213200000Y-76350000D01*
X213460000Y-94110000D02*
X213200000Y-93850000D01*
X216081000Y-74076000D02*
X213724000Y-74076000D01*
X216030000Y-94110000D02*
X213460000Y-94110000D01*
D33*
X208160000Y-63700000D02*
X208160000Y-65060000D01*
D32*
X216081000Y-86626000D02*
X213626000Y-86626000D01*
X219300000Y-78200000D02*
X219888096Y-78200000D01*
D34*
X178960000Y-98000000D02*
X197940000Y-79020000D01*
X178725000Y-98000000D02*
X178960000Y-98000000D01*
D35*
X197200000Y-90200000D02*
X207300000Y-90200000D01*
D34*
X221800000Y-80900000D02*
X221800000Y-77165000D01*
X221800000Y-77165000D02*
X219351000Y-74716000D01*
D35*
X191600000Y-90600000D02*
X193450000Y-90600000D01*
X208700000Y-76400000D02*
X207300000Y-75000000D01*
X208700000Y-79100000D02*
X208700000Y-76400000D01*
X199800000Y-88000000D02*
X208700000Y-79100000D01*
X196050000Y-88000000D02*
X199800000Y-88000000D01*
X193450000Y-90600000D02*
X196050000Y-88000000D01*
X206550000Y-91150000D02*
X207300000Y-91150000D01*
X204803020Y-92896980D02*
X206550000Y-91150000D01*
D34*
X221750000Y-87800000D02*
X221750000Y-87115000D01*
X221750000Y-87115000D02*
X219351000Y-84716000D01*
D35*
X197200000Y-92896980D02*
X204803020Y-92896980D01*
X202900000Y-89400000D02*
X207300000Y-85000000D01*
X196950000Y-89400000D02*
X202900000Y-89400000D01*
X191600000Y-92500000D02*
X193850000Y-92500000D01*
X193850000Y-92500000D02*
X196950000Y-89400000D01*
X221700000Y-97400000D02*
X221700000Y-97150000D01*
X198499520Y-97499520D02*
X221600480Y-97499520D01*
X221700000Y-97150000D02*
X219300000Y-94750000D01*
X197200000Y-96200000D02*
X198499520Y-97499520D01*
X221600480Y-97499520D02*
X221700000Y-97400000D01*
X190946489Y-96096489D02*
X190946489Y-95153511D01*
X195718544Y-96453511D02*
X191303511Y-96453511D01*
X191303511Y-96453511D02*
X190946489Y-96096489D01*
X207249000Y-95034000D02*
X197138055Y-95034000D01*
X190946489Y-95153511D02*
X191600000Y-94500000D01*
X197138055Y-95034000D02*
X195718544Y-96453511D01*
X209400000Y-74500000D02*
X207300000Y-72400000D01*
X209400000Y-92100000D02*
X209400000Y-74500000D01*
X191600000Y-95800000D02*
X194650000Y-95800000D01*
X195350000Y-95100000D02*
X196224205Y-95100000D01*
X206200000Y-93750000D02*
X207750000Y-93750000D01*
X194650000Y-95800000D02*
X195350000Y-95100000D01*
X205800000Y-94150000D02*
X206200000Y-93750000D01*
X207750000Y-93750000D02*
X209400000Y-92100000D01*
X197174205Y-94150000D02*
X205800000Y-94150000D01*
X196224205Y-95100000D02*
X197174205Y-94150000D01*
X196400000Y-88750000D02*
X200950000Y-88750000D01*
X190300000Y-93250000D02*
X190300000Y-92550000D01*
X187600000Y-94750000D02*
X188000000Y-94350000D01*
X190300000Y-92550000D02*
X191350000Y-91500000D01*
X193650000Y-91500000D02*
X196400000Y-88750000D01*
X187950000Y-95800000D02*
X187600000Y-95450000D01*
X187600000Y-95450000D02*
X187600000Y-94750000D01*
X189200000Y-94350000D02*
X190300000Y-93250000D01*
X188000000Y-94350000D02*
X189200000Y-94350000D01*
X191350000Y-91500000D02*
X193650000Y-91500000D01*
X189100000Y-95800000D02*
X187950000Y-95800000D01*
X200950000Y-88750000D02*
X207300000Y-82400000D01*
X188300000Y-95100000D02*
X189800000Y-95100000D01*
X205249520Y-93550480D02*
X206366000Y-92434000D01*
X189800000Y-95100000D02*
X191349520Y-93550480D01*
X206366000Y-92434000D02*
X207249000Y-92434000D01*
X191349520Y-93550480D02*
X205249520Y-93550480D01*
D32*
X216900000Y-71800000D02*
X216900000Y-71987000D01*
X216900000Y-71987000D02*
X216081000Y-72806000D01*
X216900000Y-81800000D02*
X216900000Y-81987000D01*
X216900000Y-81800000D02*
X216900000Y-81987000D01*
X216900000Y-81987000D02*
X216081000Y-82806000D01*
X216900000Y-81987000D02*
X216081000Y-82806000D01*
X216849000Y-91834000D02*
X216849000Y-92021000D01*
X216849000Y-91834000D02*
X216849000Y-92021000D01*
X216849000Y-92021000D02*
X216030000Y-92840000D01*
X216849000Y-92021000D02*
X216030000Y-92840000D01*
G04 #@! TA.AperFunction,Conductor*
G36*
X216643039Y-73719685D02*
G01*
X216688794Y-73772489D01*
X216700000Y-73824000D01*
X216700000Y-76876000D01*
X216680315Y-76943039D01*
X216627511Y-76988794D01*
X216576000Y-77000000D01*
X214124000Y-77000000D01*
X214056961Y-76980315D01*
X214011206Y-76927511D01*
X214000000Y-76876000D01*
X214000000Y-73824000D01*
X214019685Y-73756961D01*
X214072489Y-73711206D01*
X214124000Y-73700000D01*
X216576000Y-73700000D01*
X216643039Y-73719685D01*
G37*
G04 #@! TD.AperFunction*
G04 #@! TA.AperFunction,Conductor*
G36*
X216643039Y-83719685D02*
G01*
X216688794Y-83772489D01*
X216700000Y-83824000D01*
X216700000Y-86876000D01*
X216680315Y-86943039D01*
X216627511Y-86988794D01*
X216576000Y-87000000D01*
X214124000Y-87000000D01*
X214056961Y-86980315D01*
X214011206Y-86927511D01*
X214000000Y-86876000D01*
X214000000Y-83824000D01*
X214019685Y-83756961D01*
X214072489Y-83711206D01*
X214124000Y-83700000D01*
X216576000Y-83700000D01*
X216643039Y-83719685D01*
G37*
G04 #@! TD.AperFunction*
G04 #@! TA.AperFunction,Conductor*
G36*
X216592039Y-93753685D02*
G01*
X216637794Y-93806489D01*
X216649000Y-93858000D01*
X216649000Y-96910000D01*
X216629315Y-96977039D01*
X216576511Y-97022794D01*
X216525000Y-97034000D01*
X214073000Y-97034000D01*
X214005961Y-97014315D01*
X213960206Y-96961511D01*
X213949000Y-96910000D01*
X213949000Y-93858000D01*
X213968685Y-93790961D01*
X214021489Y-93745206D01*
X214073000Y-93734000D01*
X216525000Y-93734000D01*
X216592039Y-93753685D01*
G37*
G04 #@! TD.AperFunction*
G04 #@! TA.AperFunction,Conductor*
G36*
X222443015Y-72442363D02*
G01*
X222459996Y-72450703D01*
X222826882Y-72666519D01*
X224803885Y-73829462D01*
X224852459Y-73881241D01*
X224866000Y-73938066D01*
X224866000Y-76940000D01*
X224845998Y-77008121D01*
X224792342Y-77054614D01*
X224740000Y-77066000D01*
X221790667Y-77066000D01*
X221722546Y-77045998D01*
X221676053Y-76992342D01*
X221664674Y-76941340D01*
X221620518Y-72790621D01*
X221639794Y-72722292D01*
X221692952Y-72675231D01*
X221763174Y-72664388D01*
X221774342Y-72665878D01*
X221783930Y-72667157D01*
X221790941Y-72666519D01*
X221790945Y-72666519D01*
X221947273Y-72652292D01*
X221947275Y-72652292D01*
X221954292Y-72651653D01*
X221960990Y-72649477D01*
X221960993Y-72649476D01*
X222110289Y-72600966D01*
X222110291Y-72600965D01*
X222116985Y-72598790D01*
X222263924Y-72511197D01*
X222269030Y-72506335D01*
X222309220Y-72468063D01*
X222372345Y-72435570D01*
X222443015Y-72442363D01*
G37*
G04 #@! TD.AperFunction*
G04 #@! TA.AperFunction,Conductor*
G36*
X222392015Y-92476363D02*
G01*
X222408996Y-92484703D01*
X222775882Y-92700519D01*
X224752885Y-93863462D01*
X224801459Y-93915241D01*
X224815000Y-93972066D01*
X224815000Y-96974000D01*
X224794998Y-97042121D01*
X224741342Y-97088614D01*
X224689000Y-97100000D01*
X221739667Y-97100000D01*
X221671546Y-97079998D01*
X221625053Y-97026342D01*
X221613674Y-96975340D01*
X221569518Y-92824621D01*
X221588794Y-92756292D01*
X221641952Y-92709231D01*
X221712174Y-92698388D01*
X221723342Y-92699878D01*
X221732930Y-92701157D01*
X221739941Y-92700519D01*
X221739945Y-92700519D01*
X221896273Y-92686292D01*
X221896275Y-92686292D01*
X221903292Y-92685653D01*
X221909990Y-92683477D01*
X221909993Y-92683476D01*
X222059289Y-92634966D01*
X222059291Y-92634965D01*
X222065985Y-92632790D01*
X222212924Y-92545197D01*
X222218030Y-92540335D01*
X222258220Y-92502063D01*
X222321345Y-92469570D01*
X222392015Y-92476363D01*
G37*
G04 #@! TD.AperFunction*
G04 #@! TA.AperFunction,Conductor*
G36*
X222443015Y-82442363D02*
G01*
X222459996Y-82450703D01*
X222826882Y-82666519D01*
X224803885Y-83829462D01*
X224852459Y-83881241D01*
X224866000Y-83938066D01*
X224866000Y-86940000D01*
X224845998Y-87008121D01*
X224792342Y-87054614D01*
X224740000Y-87066000D01*
X221790667Y-87066000D01*
X221722546Y-87045998D01*
X221676053Y-86992342D01*
X221664674Y-86941340D01*
X221620518Y-82790621D01*
X221639794Y-82722292D01*
X221692952Y-82675231D01*
X221763174Y-82664388D01*
X221774342Y-82665878D01*
X221783930Y-82667157D01*
X221790941Y-82666519D01*
X221790945Y-82666519D01*
X221947273Y-82652292D01*
X221947275Y-82652292D01*
X221954292Y-82651653D01*
X221960990Y-82649477D01*
X221960993Y-82649476D01*
X222110289Y-82600966D01*
X222110291Y-82600965D01*
X222116985Y-82598790D01*
X222263924Y-82511197D01*
X222269030Y-82506335D01*
X222309220Y-82468063D01*
X222372345Y-82435570D01*
X222443015Y-82442363D01*
G37*
G04 #@! TD.AperFunction*
G04 #@! TA.AperFunction,Conductor*
G36*
X222392015Y-92476363D02*
G01*
X222408996Y-92484703D01*
X222775882Y-92700519D01*
X224752885Y-93863462D01*
X224801459Y-93915241D01*
X224815000Y-93972066D01*
X224815000Y-96974000D01*
X224794998Y-97042121D01*
X224741342Y-97088614D01*
X224689000Y-97100000D01*
X221739667Y-97100000D01*
X221671546Y-97079998D01*
X221625053Y-97026342D01*
X221613674Y-96975340D01*
X221569518Y-92824621D01*
X221588794Y-92756292D01*
X221641952Y-92709231D01*
X221712174Y-92698388D01*
X221723342Y-92699878D01*
X221732930Y-92701157D01*
X221739941Y-92700519D01*
X221739945Y-92700519D01*
X221896273Y-92686292D01*
X221896275Y-92686292D01*
X221903292Y-92685653D01*
X221909990Y-92683477D01*
X221909993Y-92683476D01*
X222059289Y-92634966D01*
X222059291Y-92634965D01*
X222065985Y-92632790D01*
X222212924Y-92545197D01*
X222218030Y-92540335D01*
X222258220Y-92502063D01*
X222321345Y-92469570D01*
X222392015Y-92476363D01*
G37*
G04 #@! TD.AperFunction*
G04 #@! TA.AperFunction,Conductor*
G36*
X222443015Y-82442363D02*
G01*
X222459996Y-82450703D01*
X222826882Y-82666519D01*
X224803885Y-83829462D01*
X224852459Y-83881241D01*
X224866000Y-83938066D01*
X224866000Y-86940000D01*
X224845998Y-87008121D01*
X224792342Y-87054614D01*
X224740000Y-87066000D01*
X221790667Y-87066000D01*
X221722546Y-87045998D01*
X221676053Y-86992342D01*
X221664674Y-86941340D01*
X221620518Y-82790621D01*
X221639794Y-82722292D01*
X221692952Y-82675231D01*
X221763174Y-82664388D01*
X221774342Y-82665878D01*
X221783930Y-82667157D01*
X221790941Y-82666519D01*
X221790945Y-82666519D01*
X221947273Y-82652292D01*
X221947275Y-82652292D01*
X221954292Y-82651653D01*
X221960990Y-82649477D01*
X221960993Y-82649476D01*
X222110289Y-82600966D01*
X222110291Y-82600965D01*
X222116985Y-82598790D01*
X222263924Y-82511197D01*
X222269030Y-82506335D01*
X222309220Y-82468063D01*
X222372345Y-82435570D01*
X222443015Y-82442363D01*
G37*
G04 #@! TD.AperFunction*
G04 #@! TA.AperFunction,Conductor*
G36*
X222443015Y-82442363D02*
G01*
X222459996Y-82450703D01*
X222826882Y-82666519D01*
X224803885Y-83829462D01*
X224852459Y-83881241D01*
X224866000Y-83938066D01*
X224866000Y-86940000D01*
X224845998Y-87008121D01*
X224792342Y-87054614D01*
X224740000Y-87066000D01*
X221790667Y-87066000D01*
X221722546Y-87045998D01*
X221676053Y-86992342D01*
X221664674Y-86941340D01*
X221620518Y-82790621D01*
X221639794Y-82722292D01*
X221692952Y-82675231D01*
X221763174Y-82664388D01*
X221774342Y-82665878D01*
X221783930Y-82667157D01*
X221790941Y-82666519D01*
X221790945Y-82666519D01*
X221947273Y-82652292D01*
X221947275Y-82652292D01*
X221954292Y-82651653D01*
X221960990Y-82649477D01*
X221960993Y-82649476D01*
X222110289Y-82600966D01*
X222110291Y-82600965D01*
X222116985Y-82598790D01*
X222263924Y-82511197D01*
X222269030Y-82506335D01*
X222309220Y-82468063D01*
X222372345Y-82435570D01*
X222443015Y-82442363D01*
G37*
G04 #@! TD.AperFunction*
G04 #@! TA.AperFunction,Conductor*
G36*
X222392015Y-92476363D02*
G01*
X222408996Y-92484703D01*
X222775882Y-92700519D01*
X224752885Y-93863462D01*
X224801459Y-93915241D01*
X224815000Y-93972066D01*
X224815000Y-96974000D01*
X224794998Y-97042121D01*
X224741342Y-97088614D01*
X224689000Y-97100000D01*
X221739667Y-97100000D01*
X221671546Y-97079998D01*
X221625053Y-97026342D01*
X221613674Y-96975340D01*
X221569518Y-92824621D01*
X221588794Y-92756292D01*
X221641952Y-92709231D01*
X221712174Y-92698388D01*
X221723342Y-92699878D01*
X221732930Y-92701157D01*
X221739941Y-92700519D01*
X221739945Y-92700519D01*
X221896273Y-92686292D01*
X221896275Y-92686292D01*
X221903292Y-92685653D01*
X221909990Y-92683477D01*
X221909993Y-92683476D01*
X222059289Y-92634966D01*
X222059291Y-92634965D01*
X222065985Y-92632790D01*
X222212924Y-92545197D01*
X222218030Y-92540335D01*
X222258220Y-92502063D01*
X222321345Y-92469570D01*
X222392015Y-92476363D01*
G37*
G04 #@! TD.AperFunction*
G04 #@! TA.AperFunction,Conductor*
G36*
X222443015Y-82442363D02*
G01*
X222459996Y-82450703D01*
X222826882Y-82666519D01*
X224803885Y-83829462D01*
X224852459Y-83881241D01*
X224866000Y-83938066D01*
X224866000Y-86940000D01*
X224845998Y-87008121D01*
X224792342Y-87054614D01*
X224740000Y-87066000D01*
X221790667Y-87066000D01*
X221722546Y-87045998D01*
X221676053Y-86992342D01*
X221664674Y-86941340D01*
X221620518Y-82790621D01*
X221639794Y-82722292D01*
X221692952Y-82675231D01*
X221763174Y-82664388D01*
X221774342Y-82665878D01*
X221783930Y-82667157D01*
X221790941Y-82666519D01*
X221790945Y-82666519D01*
X221947273Y-82652292D01*
X221947275Y-82652292D01*
X221954292Y-82651653D01*
X221960990Y-82649477D01*
X221960993Y-82649476D01*
X222110289Y-82600966D01*
X222110291Y-82600965D01*
X222116985Y-82598790D01*
X222263924Y-82511197D01*
X222269030Y-82506335D01*
X222309220Y-82468063D01*
X222372345Y-82435570D01*
X222443015Y-82442363D01*
G37*
G04 #@! TD.AperFunction*
G04 #@! TA.AperFunction,Conductor*
G36*
X222392015Y-92476363D02*
G01*
X222408996Y-92484703D01*
X222775882Y-92700519D01*
X224752885Y-93863462D01*
X224801459Y-93915241D01*
X224815000Y-93972066D01*
X224815000Y-96974000D01*
X224794998Y-97042121D01*
X224741342Y-97088614D01*
X224689000Y-97100000D01*
X221739667Y-97100000D01*
X221671546Y-97079998D01*
X221625053Y-97026342D01*
X221613674Y-96975340D01*
X221569518Y-92824621D01*
X221588794Y-92756292D01*
X221641952Y-92709231D01*
X221712174Y-92698388D01*
X221723342Y-92699878D01*
X221732930Y-92701157D01*
X221739941Y-92700519D01*
X221739945Y-92700519D01*
X221896273Y-92686292D01*
X221896275Y-92686292D01*
X221903292Y-92685653D01*
X221909990Y-92683477D01*
X221909993Y-92683476D01*
X222059289Y-92634966D01*
X222059291Y-92634965D01*
X222065985Y-92632790D01*
X222212924Y-92545197D01*
X222218030Y-92540335D01*
X222258220Y-92502063D01*
X222321345Y-92469570D01*
X222392015Y-92476363D01*
G37*
G04 #@! TD.AperFunction*
M02*
