G04 #@! TF.GenerationSoftware,KiCad,Pcbnew,(6.0.5)*
G04 #@! TF.CreationDate,2022-05-31T01:04:28-04:00*
G04 #@! TF.ProjectId,GoldESC,476f6c64-4553-4432-9e6b-696361645f70,rev?*
G04 #@! TF.SameCoordinates,Original*
G04 #@! TF.FileFunction,Legend,Bot*
G04 #@! TF.FilePolarity,Positive*
%FSLAX46Y46*%
G04 Gerber Fmt 4.6, Leading zero omitted, Abs format (unit mm)*
G04 Created by KiCad (PCBNEW (6.0.5)) date 2022-05-31 01:04:28*
%MOMM*%
%LPD*%
G01*
G04 APERTURE LIST*
G04 Aperture macros list*
%AMRoundRect*
0 Rectangle with rounded corners*
0 $1 Rounding radius*
0 $2 $3 $4 $5 $6 $7 $8 $9 X,Y pos of 4 corners*
0 Add a 4 corners polygon primitive as box body*
4,1,4,$2,$3,$4,$5,$6,$7,$8,$9,$2,$3,0*
0 Add four circle primitives for the rounded corners*
1,1,$1+$1,$2,$3*
1,1,$1+$1,$4,$5*
1,1,$1+$1,$6,$7*
1,1,$1+$1,$8,$9*
0 Add four rect primitives between the rounded corners*
20,1,$1+$1,$2,$3,$4,$5,0*
20,1,$1+$1,$4,$5,$6,$7,0*
20,1,$1+$1,$6,$7,$8,$9,0*
20,1,$1+$1,$8,$9,$2,$3,0*%
%AMFreePoly0*
4,1,21,3.024497,2.399497,3.045000,2.350000,3.045000,-2.350000,3.024497,-2.399497,2.975000,-2.420000,1.425000,-2.420000,1.375503,-2.399497,1.355000,-2.350000,1.355000,-2.170000,-1.650000,-2.170000,-1.699497,-2.149497,-1.720000,-2.100000,-1.720000,2.100000,-1.699497,2.149497,-1.650000,2.170000,1.355000,2.170000,1.355000,2.350000,1.375503,2.399497,1.425000,2.420000,2.975000,2.420000,
3.024497,2.399497,3.024497,2.399497,$1*%
G04 Aperture macros list end*
%ADD10C,0.300000*%
%ADD11C,0.200000*%
%ADD12C,0.120000*%
%ADD13C,0.010000*%
%ADD14C,1.200000*%
%ADD15R,3.000000X3.000000*%
%ADD16C,3.000000*%
%ADD17R,1.700000X1.700000*%
%ADD18O,1.700000X1.700000*%
%ADD19R,1.800000X1.800000*%
%ADD20C,1.800000*%
%ADD21C,1.600000*%
%ADD22O,1.600000X1.600000*%
%ADD23RoundRect,0.250000X-1.000000X1.000000X-1.000000X-1.000000X1.000000X-1.000000X1.000000X1.000000X0*%
%ADD24RoundRect,0.250000X-1.000000X-1.000000X1.000000X-1.000000X1.000000X1.000000X-1.000000X1.000000X0*%
%ADD25RoundRect,0.250000X1.000000X1.000000X-1.000000X1.000000X-1.000000X-1.000000X1.000000X-1.000000X0*%
%ADD26RoundRect,0.250000X1.000000X-1.000000X1.000000X1.000000X-1.000000X1.000000X-1.000000X-1.000000X0*%
%ADD27C,1.400000*%
%ADD28RoundRect,0.200000X1.050000X-0.800000X1.050000X0.800000X-1.050000X0.800000X-1.050000X-0.800000X0*%
%ADD29RoundRect,0.200000X-1.050000X0.800000X-1.050000X-0.800000X1.050000X-0.800000X1.050000X0.800000X0*%
%ADD30RoundRect,0.250000X0.600000X0.600000X-0.600000X0.600000X-0.600000X-0.600000X0.600000X-0.600000X0*%
%ADD31C,1.700000*%
%ADD32RoundRect,0.070000X0.575000X-0.350000X0.575000X0.350000X-0.575000X0.350000X-0.575000X-0.350000X0*%
%ADD33FreePoly0,0.000000*%
%ADD34RoundRect,0.200000X0.200000X0.275000X-0.200000X0.275000X-0.200000X-0.275000X0.200000X-0.275000X0*%
G04 APERTURE END LIST*
D10*
X236285714Y-59350000D02*
X236400000Y-59292857D01*
X236571428Y-59292857D01*
X236742857Y-59350000D01*
X236857142Y-59464285D01*
X236914285Y-59578571D01*
X236971428Y-59807142D01*
X236971428Y-59978571D01*
X236914285Y-60207142D01*
X236857142Y-60321428D01*
X236742857Y-60435714D01*
X236571428Y-60492857D01*
X236457142Y-60492857D01*
X236285714Y-60435714D01*
X236228571Y-60378571D01*
X236228571Y-59978571D01*
X236457142Y-59978571D01*
X235542857Y-60492857D02*
X235657142Y-60435714D01*
X235714285Y-60378571D01*
X235771428Y-60264285D01*
X235771428Y-59921428D01*
X235714285Y-59807142D01*
X235657142Y-59750000D01*
X235542857Y-59692857D01*
X235371428Y-59692857D01*
X235257142Y-59750000D01*
X235200000Y-59807142D01*
X235142857Y-59921428D01*
X235142857Y-60264285D01*
X235200000Y-60378571D01*
X235257142Y-60435714D01*
X235371428Y-60492857D01*
X235542857Y-60492857D01*
X234457142Y-60492857D02*
X234571428Y-60435714D01*
X234628571Y-60321428D01*
X234628571Y-59292857D01*
X233485714Y-60492857D02*
X233485714Y-59292857D01*
X233485714Y-60435714D02*
X233600000Y-60492857D01*
X233828571Y-60492857D01*
X233942857Y-60435714D01*
X234000000Y-60378571D01*
X234057142Y-60264285D01*
X234057142Y-59921428D01*
X234000000Y-59807142D01*
X233942857Y-59750000D01*
X233828571Y-59692857D01*
X233600000Y-59692857D01*
X233485714Y-59750000D01*
X232914285Y-59864285D02*
X232514285Y-59864285D01*
X232342857Y-60492857D02*
X232914285Y-60492857D01*
X232914285Y-59292857D01*
X232342857Y-59292857D01*
X231885714Y-60435714D02*
X231714285Y-60492857D01*
X231428571Y-60492857D01*
X231314285Y-60435714D01*
X231257142Y-60378571D01*
X231200000Y-60264285D01*
X231200000Y-60150000D01*
X231257142Y-60035714D01*
X231314285Y-59978571D01*
X231428571Y-59921428D01*
X231657142Y-59864285D01*
X231771428Y-59807142D01*
X231828571Y-59750000D01*
X231885714Y-59635714D01*
X231885714Y-59521428D01*
X231828571Y-59407142D01*
X231771428Y-59350000D01*
X231657142Y-59292857D01*
X231371428Y-59292857D01*
X231200000Y-59350000D01*
X230000000Y-60378571D02*
X230057142Y-60435714D01*
X230228571Y-60492857D01*
X230342857Y-60492857D01*
X230514285Y-60435714D01*
X230628571Y-60321428D01*
X230685714Y-60207142D01*
X230742857Y-59978571D01*
X230742857Y-59807142D01*
X230685714Y-59578571D01*
X230628571Y-59464285D01*
X230514285Y-59350000D01*
X230342857Y-59292857D01*
X230228571Y-59292857D01*
X230057142Y-59350000D01*
X230000000Y-59407142D01*
X228742857Y-59292857D02*
X228342857Y-60492857D01*
X227942857Y-59292857D01*
X226914285Y-60492857D02*
X227600000Y-60492857D01*
X227257142Y-60492857D02*
X227257142Y-59292857D01*
X227371428Y-59464285D01*
X227485714Y-59578571D01*
X227600000Y-59635714D01*
X224514285Y-59578571D02*
X224628571Y-59521428D01*
X224857142Y-59521428D01*
X224971428Y-59578571D01*
X225085714Y-59692857D01*
X225142857Y-59807142D01*
X225142857Y-60035714D01*
X225085714Y-60150000D01*
X224971428Y-60264285D01*
X224857142Y-60321428D01*
X224628571Y-60321428D01*
X224514285Y-60264285D01*
X224742857Y-59121428D02*
X225028571Y-59178571D01*
X225314285Y-59350000D01*
X225485714Y-59635714D01*
X225542857Y-59921428D01*
X225485714Y-60207142D01*
X225314285Y-60492857D01*
X225028571Y-60664285D01*
X224742857Y-60721428D01*
X224457142Y-60664285D01*
X224171428Y-60492857D01*
X224000000Y-60207142D01*
X223942857Y-59921428D01*
X224000000Y-59635714D01*
X224171428Y-59350000D01*
X224457142Y-59178571D01*
X224742857Y-59121428D01*
X222571428Y-60150000D02*
X222000000Y-60150000D01*
X222685714Y-60492857D02*
X222285714Y-59292857D01*
X221885714Y-60492857D01*
X221314285Y-60492857D02*
X221428571Y-60435714D01*
X221485714Y-60321428D01*
X221485714Y-59292857D01*
X221028571Y-59692857D02*
X220571428Y-59692857D01*
X220857142Y-60492857D02*
X220857142Y-59464285D01*
X220800000Y-59350000D01*
X220685714Y-59292857D01*
X220571428Y-59292857D01*
X220171428Y-60492857D02*
X220171428Y-59692857D01*
X220171428Y-59921428D02*
X220114285Y-59807142D01*
X220057142Y-59750000D01*
X219942857Y-59692857D01*
X219828571Y-59692857D01*
X218971428Y-60435714D02*
X219085714Y-60492857D01*
X219314285Y-60492857D01*
X219428571Y-60435714D01*
X219485714Y-60321428D01*
X219485714Y-59864285D01*
X219428571Y-59750000D01*
X219314285Y-59692857D01*
X219085714Y-59692857D01*
X218971428Y-59750000D01*
X218914285Y-59864285D01*
X218914285Y-59978571D01*
X219485714Y-60092857D01*
X217885714Y-60492857D02*
X217885714Y-59292857D01*
X217885714Y-60435714D02*
X218000000Y-60492857D01*
X218228571Y-60492857D01*
X218342857Y-60435714D01*
X218400000Y-60378571D01*
X218457142Y-60264285D01*
X218457142Y-59921428D01*
X218400000Y-59807142D01*
X218342857Y-59750000D01*
X218228571Y-59692857D01*
X218000000Y-59692857D01*
X217885714Y-59750000D01*
X217142857Y-60492857D02*
X217257142Y-60435714D01*
X217314285Y-60378571D01*
X217371428Y-60264285D01*
X217371428Y-59921428D01*
X217314285Y-59807142D01*
X217257142Y-59750000D01*
X217142857Y-59692857D01*
X216971428Y-59692857D01*
X216857142Y-59750000D01*
X216800000Y-59807142D01*
X216742857Y-59921428D01*
X216742857Y-60264285D01*
X216800000Y-60378571D01*
X216857142Y-60435714D01*
X216971428Y-60492857D01*
X217142857Y-60492857D01*
X215371428Y-60435714D02*
X215200000Y-60492857D01*
X214914285Y-60492857D01*
X214800000Y-60435714D01*
X214742857Y-60378571D01*
X214685714Y-60264285D01*
X214685714Y-60150000D01*
X214742857Y-60035714D01*
X214800000Y-59978571D01*
X214914285Y-59921428D01*
X215142857Y-59864285D01*
X215257142Y-59807142D01*
X215314285Y-59750000D01*
X215371428Y-59635714D01*
X215371428Y-59521428D01*
X215314285Y-59407142D01*
X215257142Y-59350000D01*
X215142857Y-59292857D01*
X214857142Y-59292857D01*
X214685714Y-59350000D01*
X214285714Y-59692857D02*
X214000000Y-60492857D01*
X213714285Y-59692857D02*
X214000000Y-60492857D01*
X214114285Y-60778571D01*
X214171428Y-60835714D01*
X214285714Y-60892857D01*
X213314285Y-60435714D02*
X213200000Y-60492857D01*
X212971428Y-60492857D01*
X212857142Y-60435714D01*
X212800000Y-60321428D01*
X212800000Y-60264285D01*
X212857142Y-60150000D01*
X212971428Y-60092857D01*
X213142857Y-60092857D01*
X213257142Y-60035714D01*
X213314285Y-59921428D01*
X213314285Y-59864285D01*
X213257142Y-59750000D01*
X213142857Y-59692857D01*
X212971428Y-59692857D01*
X212857142Y-59750000D01*
X212457142Y-59692857D02*
X212000000Y-59692857D01*
X212285714Y-59292857D02*
X212285714Y-60321428D01*
X212228571Y-60435714D01*
X212114285Y-60492857D01*
X212000000Y-60492857D01*
X211142857Y-60435714D02*
X211257142Y-60492857D01*
X211485714Y-60492857D01*
X211600000Y-60435714D01*
X211657142Y-60321428D01*
X211657142Y-59864285D01*
X211600000Y-59750000D01*
X211485714Y-59692857D01*
X211257142Y-59692857D01*
X211142857Y-59750000D01*
X211085714Y-59864285D01*
X211085714Y-59978571D01*
X211657142Y-60092857D01*
X210571428Y-60492857D02*
X210571428Y-59692857D01*
X210571428Y-59807142D02*
X210514285Y-59750000D01*
X210400000Y-59692857D01*
X210228571Y-59692857D01*
X210114285Y-59750000D01*
X210057142Y-59864285D01*
X210057142Y-60492857D01*
X210057142Y-59864285D02*
X210000000Y-59750000D01*
X209885714Y-59692857D01*
X209714285Y-59692857D01*
X209600000Y-59750000D01*
X209542857Y-59864285D01*
X209542857Y-60492857D01*
X209028571Y-60435714D02*
X208914285Y-60492857D01*
X208685714Y-60492857D01*
X208571428Y-60435714D01*
X208514285Y-60321428D01*
X208514285Y-60264285D01*
X208571428Y-60150000D01*
X208685714Y-60092857D01*
X208857142Y-60092857D01*
X208971428Y-60035714D01*
X209028571Y-59921428D01*
X209028571Y-59864285D01*
X208971428Y-59750000D01*
X208857142Y-59692857D01*
X208685714Y-59692857D01*
X208571428Y-59750000D01*
X207142857Y-59407142D02*
X207085714Y-59350000D01*
X206971428Y-59292857D01*
X206685714Y-59292857D01*
X206571428Y-59350000D01*
X206514285Y-59407142D01*
X206457142Y-59521428D01*
X206457142Y-59635714D01*
X206514285Y-59807142D01*
X207200000Y-60492857D01*
X206457142Y-60492857D01*
X205714285Y-59292857D02*
X205600000Y-59292857D01*
X205485714Y-59350000D01*
X205428571Y-59407142D01*
X205371428Y-59521428D01*
X205314285Y-59750000D01*
X205314285Y-60035714D01*
X205371428Y-60264285D01*
X205428571Y-60378571D01*
X205485714Y-60435714D01*
X205600000Y-60492857D01*
X205714285Y-60492857D01*
X205828571Y-60435714D01*
X205885714Y-60378571D01*
X205942857Y-60264285D01*
X206000000Y-60035714D01*
X206000000Y-59750000D01*
X205942857Y-59521428D01*
X205885714Y-59407142D01*
X205828571Y-59350000D01*
X205714285Y-59292857D01*
X204857142Y-59407142D02*
X204800000Y-59350000D01*
X204685714Y-59292857D01*
X204400000Y-59292857D01*
X204285714Y-59350000D01*
X204228571Y-59407142D01*
X204171428Y-59521428D01*
X204171428Y-59635714D01*
X204228571Y-59807142D01*
X204914285Y-60492857D01*
X204171428Y-60492857D01*
X203714285Y-59407142D02*
X203657142Y-59350000D01*
X203542857Y-59292857D01*
X203257142Y-59292857D01*
X203142857Y-59350000D01*
X203085714Y-59407142D01*
X203028571Y-59521428D01*
X203028571Y-59635714D01*
X203085714Y-59807142D01*
X203771428Y-60492857D01*
X203028571Y-60492857D01*
D11*
X214642190Y-77104095D02*
X214718380Y-77066000D01*
X214794571Y-76989809D01*
X214908857Y-76875523D01*
X214985047Y-76837428D01*
X215061238Y-76837428D01*
X215023142Y-77027904D02*
X215099333Y-76989809D01*
X215175523Y-76913619D01*
X215213619Y-76761238D01*
X215213619Y-76494571D01*
X215175523Y-76342190D01*
X215099333Y-76266000D01*
X215023142Y-76227904D01*
X214870761Y-76227904D01*
X214794571Y-76266000D01*
X214718380Y-76342190D01*
X214680285Y-76494571D01*
X214680285Y-76761238D01*
X214718380Y-76913619D01*
X214794571Y-76989809D01*
X214870761Y-77027904D01*
X215023142Y-77027904D01*
X213994571Y-76494571D02*
X213994571Y-77027904D01*
X214185047Y-76189809D02*
X214375523Y-76761238D01*
X213880285Y-76761238D01*
X221977381Y-78561904D02*
X222244048Y-78180952D01*
X222434524Y-78561904D02*
X222434524Y-77761904D01*
X222129762Y-77761904D01*
X222053572Y-77800000D01*
X222015476Y-77838095D01*
X221977381Y-77914285D01*
X221977381Y-78028571D01*
X222015476Y-78104761D01*
X222053572Y-78142857D01*
X222129762Y-78180952D01*
X222434524Y-78180952D01*
X221291667Y-78028571D02*
X221291667Y-78561904D01*
X221482143Y-77723809D02*
X221672619Y-78295238D01*
X221177381Y-78295238D01*
X220453572Y-78561904D02*
X220910715Y-78561904D01*
X220682143Y-78561904D02*
X220682143Y-77761904D01*
X220758334Y-77876190D01*
X220834524Y-77952380D01*
X220910715Y-77990476D01*
X214642190Y-87104095D02*
X214718380Y-87066000D01*
X214794571Y-86989809D01*
X214908857Y-86875523D01*
X214985047Y-86837428D01*
X215061238Y-86837428D01*
X215023142Y-87027904D02*
X215099333Y-86989809D01*
X215175523Y-86913619D01*
X215213619Y-86761238D01*
X215213619Y-86494571D01*
X215175523Y-86342190D01*
X215099333Y-86266000D01*
X215023142Y-86227904D01*
X214870761Y-86227904D01*
X214794571Y-86266000D01*
X214718380Y-86342190D01*
X214680285Y-86494571D01*
X214680285Y-86761238D01*
X214718380Y-86913619D01*
X214794571Y-86989809D01*
X214870761Y-87027904D01*
X215023142Y-87027904D01*
X213956476Y-86227904D02*
X214337428Y-86227904D01*
X214375523Y-86608857D01*
X214337428Y-86570761D01*
X214261238Y-86532666D01*
X214070761Y-86532666D01*
X213994571Y-86570761D01*
X213956476Y-86608857D01*
X213918380Y-86685047D01*
X213918380Y-86875523D01*
X213956476Y-86951714D01*
X213994571Y-86989809D01*
X214070761Y-87027904D01*
X214261238Y-87027904D01*
X214337428Y-86989809D01*
X214375523Y-86951714D01*
X214476190Y-93388095D02*
X214552380Y-93350000D01*
X214628571Y-93273809D01*
X214742857Y-93159523D01*
X214819047Y-93121428D01*
X214895238Y-93121428D01*
X214857142Y-93311904D02*
X214933333Y-93273809D01*
X215009523Y-93197619D01*
X215047619Y-93045238D01*
X215047619Y-92778571D01*
X215009523Y-92626190D01*
X214933333Y-92550000D01*
X214857142Y-92511904D01*
X214704761Y-92511904D01*
X214628571Y-92550000D01*
X214552380Y-92626190D01*
X214514285Y-92778571D01*
X214514285Y-93045238D01*
X214552380Y-93197619D01*
X214628571Y-93273809D01*
X214704761Y-93311904D01*
X214857142Y-93311904D01*
X213828571Y-92511904D02*
X213980952Y-92511904D01*
X214057142Y-92550000D01*
X214095238Y-92588095D01*
X214171428Y-92702380D01*
X214209523Y-92854761D01*
X214209523Y-93159523D01*
X214171428Y-93235714D01*
X214133333Y-93273809D01*
X214057142Y-93311904D01*
X213904761Y-93311904D01*
X213828571Y-93273809D01*
X213790476Y-93235714D01*
X213752380Y-93159523D01*
X213752380Y-92969047D01*
X213790476Y-92892857D01*
X213828571Y-92854761D01*
X213904761Y-92816666D01*
X214057142Y-92816666D01*
X214133333Y-92854761D01*
X214171428Y-92892857D01*
X214209523Y-92969047D01*
X214177381Y-78561904D02*
X214444048Y-78180952D01*
X214634524Y-78561904D02*
X214634524Y-77761904D01*
X214329762Y-77761904D01*
X214253572Y-77800000D01*
X214215476Y-77838095D01*
X214177381Y-77914285D01*
X214177381Y-78028571D01*
X214215476Y-78104761D01*
X214253572Y-78142857D01*
X214329762Y-78180952D01*
X214634524Y-78180952D01*
X213491667Y-78028571D02*
X213491667Y-78561904D01*
X213682143Y-77723809D02*
X213872619Y-78295238D01*
X213377381Y-78295238D01*
X212920238Y-77761904D02*
X212844048Y-77761904D01*
X212767857Y-77800000D01*
X212729762Y-77838095D01*
X212691667Y-77914285D01*
X212653572Y-78066666D01*
X212653572Y-78257142D01*
X212691667Y-78409523D01*
X212729762Y-78485714D01*
X212767857Y-78523809D01*
X212844048Y-78561904D01*
X212920238Y-78561904D01*
X212996429Y-78523809D01*
X213034524Y-78485714D01*
X213072619Y-78409523D01*
X213110715Y-78257142D01*
X213110715Y-78066666D01*
X213072619Y-77914285D01*
X213034524Y-77838095D01*
X212996429Y-77800000D01*
X212920238Y-77761904D01*
D12*
X216601000Y-77316000D02*
X216601000Y-77116000D01*
X220901000Y-72116000D02*
X220901000Y-72266000D01*
X220901000Y-77166000D02*
X220901000Y-77316000D01*
X220901000Y-77316000D02*
X216601000Y-77316000D01*
X216601000Y-72116000D02*
X220901000Y-72116000D01*
X216601000Y-72316000D02*
X216601000Y-72116000D01*
G36*
X237266091Y-67063375D02*
G01*
X237205879Y-67175392D01*
X237109390Y-67284429D01*
X236978784Y-67389598D01*
X236816220Y-67490007D01*
X236623858Y-67584767D01*
X236403857Y-67672987D01*
X236158376Y-67753776D01*
X235889575Y-67826245D01*
X235599613Y-67889504D01*
X235290649Y-67942661D01*
X234964842Y-67984828D01*
X234825114Y-67996952D01*
X234662257Y-68005789D01*
X234488576Y-68010997D01*
X234314011Y-68012491D01*
X234148498Y-68010190D01*
X234001977Y-68004009D01*
X233884385Y-67993866D01*
X233882553Y-67993643D01*
X233655832Y-67956362D01*
X233435758Y-67901956D01*
X233228755Y-67832873D01*
X233041248Y-67751558D01*
X232879661Y-67660459D01*
X232750419Y-67562022D01*
X232721671Y-67534922D01*
X232592255Y-67384335D01*
X232499476Y-67220325D01*
X232443427Y-67043095D01*
X232424199Y-66852846D01*
X232424220Y-66843077D01*
X232889359Y-66843077D01*
X232889401Y-66860162D01*
X232891680Y-66950865D01*
X232898953Y-67017093D01*
X232913328Y-67071411D01*
X232936916Y-67126385D01*
X233002840Y-67233027D01*
X233113295Y-67347273D01*
X233258146Y-67446058D01*
X233438075Y-67529832D01*
X233653761Y-67599044D01*
X233673566Y-67604254D01*
X233737495Y-67619923D01*
X233797198Y-67631738D01*
X233859892Y-67640345D01*
X233932794Y-67646391D01*
X234023122Y-67650524D01*
X234138093Y-67653390D01*
X234284923Y-67655637D01*
X234394843Y-67656529D01*
X234618552Y-67654429D01*
X234811060Y-67646804D01*
X234968608Y-67633771D01*
X235154831Y-67609953D01*
X235421779Y-67566125D01*
X235677889Y-67512846D01*
X235919128Y-67451394D01*
X236141462Y-67383046D01*
X236340857Y-67309079D01*
X236513280Y-67230769D01*
X236654696Y-67149395D01*
X236761073Y-67066234D01*
X236767882Y-67059612D01*
X236821537Y-66992682D01*
X236841421Y-66929628D01*
X236826558Y-66868528D01*
X236775971Y-66807460D01*
X236688683Y-66744501D01*
X236563719Y-66677729D01*
X236512853Y-66654052D01*
X236287712Y-66564570D01*
X236026433Y-66482827D01*
X235728639Y-66408748D01*
X235393955Y-66342256D01*
X235022006Y-66283274D01*
X234612415Y-66231724D01*
X234164807Y-66187532D01*
X234015383Y-66174553D01*
X233981306Y-66289007D01*
X233964285Y-66360174D01*
X233948205Y-66456977D01*
X233938834Y-66550000D01*
X233942229Y-66678116D01*
X233970416Y-66780030D01*
X234025391Y-66858595D01*
X234109077Y-66917967D01*
X234130299Y-66928664D01*
X234168054Y-66944396D01*
X234207793Y-66953687D01*
X234258771Y-66957543D01*
X234330243Y-66956969D01*
X234431462Y-66952968D01*
X234503479Y-66948545D01*
X234743166Y-66919729D01*
X235008962Y-66868424D01*
X235296972Y-66795342D01*
X235333094Y-66785589D01*
X235420223Y-66765025D01*
X235496616Y-66750770D01*
X235548980Y-66745458D01*
X235583788Y-66747694D01*
X235664769Y-66772131D01*
X235726662Y-66818480D01*
X235762844Y-66880464D01*
X235766692Y-66951807D01*
X235765523Y-66956980D01*
X235753681Y-66983151D01*
X235729991Y-67007634D01*
X235691136Y-67031548D01*
X235633796Y-67056009D01*
X235554653Y-67082137D01*
X235450387Y-67111048D01*
X235317681Y-67143861D01*
X235153214Y-67181695D01*
X234953669Y-67225665D01*
X234911562Y-67234738D01*
X234783235Y-67260840D01*
X234678332Y-67278738D01*
X234585675Y-67289863D01*
X234494085Y-67295646D01*
X234392385Y-67297517D01*
X234229458Y-67292922D01*
X234041059Y-67270277D01*
X233882721Y-67228079D01*
X233751882Y-67165587D01*
X233645980Y-67082062D01*
X233610423Y-67043695D01*
X233556474Y-66965935D01*
X233520136Y-66876691D01*
X233498309Y-66767064D01*
X233487894Y-66628154D01*
X233485746Y-66554840D01*
X233486462Y-66475834D01*
X233493011Y-66413529D01*
X233507002Y-66354906D01*
X233530041Y-66286947D01*
X233534102Y-66275776D01*
X233556588Y-66211851D01*
X233571484Y-66165911D01*
X233575742Y-66147265D01*
X233575099Y-66147044D01*
X233550153Y-66145063D01*
X233494705Y-66142486D01*
X233416225Y-66139622D01*
X233322185Y-66136779D01*
X233072601Y-66129923D01*
X233016263Y-66276462D01*
X232991887Y-66340769D01*
X232948916Y-66462490D01*
X232919432Y-66563514D01*
X232901181Y-66653909D01*
X232891908Y-66743741D01*
X232889359Y-66843077D01*
X232424220Y-66843077D01*
X232424249Y-66829778D01*
X232426500Y-66764297D01*
X232432963Y-66699733D01*
X232445008Y-66631469D01*
X232464004Y-66554889D01*
X232491321Y-66465377D01*
X232528330Y-66358318D01*
X232576399Y-66229095D01*
X232636900Y-66073091D01*
X232711200Y-65885692D01*
X232756766Y-65770951D01*
X232838083Y-65562308D01*
X232906462Y-65380319D01*
X232963938Y-65218957D01*
X233012548Y-65072192D01*
X233054329Y-64933997D01*
X233091316Y-64798344D01*
X233125547Y-64659205D01*
X233147279Y-64561293D01*
X233163438Y-64469716D01*
X233173005Y-64381047D01*
X233177445Y-64281313D01*
X233178220Y-64156538D01*
X233178189Y-64150030D01*
X233172275Y-63973155D01*
X233154792Y-63821571D01*
X233122916Y-63682875D01*
X233073822Y-63544665D01*
X233004686Y-63394538D01*
X232984845Y-63354091D01*
X232942318Y-63256400D01*
X232921336Y-63181383D01*
X232921500Y-63121938D01*
X232942408Y-63070962D01*
X232983662Y-63021354D01*
X233021680Y-62987087D01*
X233069946Y-62961574D01*
X233128701Y-62954923D01*
X233155806Y-62956410D01*
X233223433Y-62976865D01*
X233284745Y-63024367D01*
X233343824Y-63102774D01*
X233404751Y-63215945D01*
X233405574Y-63217665D01*
X233515426Y-63489737D01*
X233586925Y-63767198D01*
X233620199Y-64051138D01*
X233615377Y-64342652D01*
X233572587Y-64642831D01*
X233530288Y-64832264D01*
X233464363Y-65083626D01*
X233388344Y-65336301D01*
X233307382Y-65572234D01*
X233280873Y-65645039D01*
X233256417Y-65714374D01*
X233240512Y-65762124D01*
X233235738Y-65780786D01*
X233235831Y-65780848D01*
X233257058Y-65782851D01*
X233309373Y-65785460D01*
X233385105Y-65788346D01*
X233476581Y-65791177D01*
X233713547Y-65797769D01*
X233824211Y-65508533D01*
X233938850Y-65184984D01*
X234036991Y-64844488D01*
X234104241Y-64522683D01*
X234140876Y-64217168D01*
X234147170Y-63925548D01*
X234123402Y-63645423D01*
X234069846Y-63374396D01*
X234044638Y-63283292D01*
X233988570Y-63122958D01*
X233917290Y-62970003D01*
X233825605Y-62813946D01*
X233708326Y-62644303D01*
X233684508Y-62606926D01*
X233659505Y-62526659D01*
X233673362Y-62450104D01*
X233726123Y-62376585D01*
X233732260Y-62370596D01*
X233806448Y-62320686D01*
X233883576Y-62309510D01*
X233963785Y-62337116D01*
X234047217Y-62403549D01*
X234134014Y-62508855D01*
X234253120Y-62700479D01*
X234367267Y-62942895D01*
X234458205Y-63206437D01*
X234524429Y-63484619D01*
X234564432Y-63770956D01*
X234576708Y-64058963D01*
X234559752Y-64342154D01*
X234536375Y-64507492D01*
X234490261Y-64748584D01*
X234429658Y-65003928D01*
X234357503Y-65262381D01*
X234276734Y-65512799D01*
X234190288Y-65744038D01*
X234187234Y-65751578D01*
X234165847Y-65806322D01*
X234158984Y-65834558D01*
X234166455Y-65845064D01*
X234188072Y-65846615D01*
X234197052Y-65846939D01*
X234243242Y-65850319D01*
X234317006Y-65856789D01*
X234410294Y-65865624D01*
X234515056Y-65876097D01*
X234628037Y-65888047D01*
X235037116Y-65938081D01*
X235413987Y-65995289D01*
X235758099Y-66059438D01*
X236068899Y-66130299D01*
X236345836Y-66207641D01*
X236588358Y-66291232D01*
X236795914Y-66380841D01*
X236967951Y-66476239D01*
X237103919Y-66577192D01*
X237203266Y-66683472D01*
X237265439Y-66794846D01*
X237289888Y-66911084D01*
X237287766Y-66929628D01*
X237276060Y-67031955D01*
X237266091Y-67063375D01*
G37*
D13*
X237266091Y-67063375D02*
X237205879Y-67175392D01*
X237109390Y-67284429D01*
X236978784Y-67389598D01*
X236816220Y-67490007D01*
X236623858Y-67584767D01*
X236403857Y-67672987D01*
X236158376Y-67753776D01*
X235889575Y-67826245D01*
X235599613Y-67889504D01*
X235290649Y-67942661D01*
X234964842Y-67984828D01*
X234825114Y-67996952D01*
X234662257Y-68005789D01*
X234488576Y-68010997D01*
X234314011Y-68012491D01*
X234148498Y-68010190D01*
X234001977Y-68004009D01*
X233884385Y-67993866D01*
X233882553Y-67993643D01*
X233655832Y-67956362D01*
X233435758Y-67901956D01*
X233228755Y-67832873D01*
X233041248Y-67751558D01*
X232879661Y-67660459D01*
X232750419Y-67562022D01*
X232721671Y-67534922D01*
X232592255Y-67384335D01*
X232499476Y-67220325D01*
X232443427Y-67043095D01*
X232424199Y-66852846D01*
X232424220Y-66843077D01*
X232889359Y-66843077D01*
X232889401Y-66860162D01*
X232891680Y-66950865D01*
X232898953Y-67017093D01*
X232913328Y-67071411D01*
X232936916Y-67126385D01*
X233002840Y-67233027D01*
X233113295Y-67347273D01*
X233258146Y-67446058D01*
X233438075Y-67529832D01*
X233653761Y-67599044D01*
X233673566Y-67604254D01*
X233737495Y-67619923D01*
X233797198Y-67631738D01*
X233859892Y-67640345D01*
X233932794Y-67646391D01*
X234023122Y-67650524D01*
X234138093Y-67653390D01*
X234284923Y-67655637D01*
X234394843Y-67656529D01*
X234618552Y-67654429D01*
X234811060Y-67646804D01*
X234968608Y-67633771D01*
X235154831Y-67609953D01*
X235421779Y-67566125D01*
X235677889Y-67512846D01*
X235919128Y-67451394D01*
X236141462Y-67383046D01*
X236340857Y-67309079D01*
X236513280Y-67230769D01*
X236654696Y-67149395D01*
X236761073Y-67066234D01*
X236767882Y-67059612D01*
X236821537Y-66992682D01*
X236841421Y-66929628D01*
X236826558Y-66868528D01*
X236775971Y-66807460D01*
X236688683Y-66744501D01*
X236563719Y-66677729D01*
X236512853Y-66654052D01*
X236287712Y-66564570D01*
X236026433Y-66482827D01*
X235728639Y-66408748D01*
X235393955Y-66342256D01*
X235022006Y-66283274D01*
X234612415Y-66231724D01*
X234164807Y-66187532D01*
X234015383Y-66174553D01*
X233981306Y-66289007D01*
X233964285Y-66360174D01*
X233948205Y-66456977D01*
X233938834Y-66550000D01*
X233942229Y-66678116D01*
X233970416Y-66780030D01*
X234025391Y-66858595D01*
X234109077Y-66917967D01*
X234130299Y-66928664D01*
X234168054Y-66944396D01*
X234207793Y-66953687D01*
X234258771Y-66957543D01*
X234330243Y-66956969D01*
X234431462Y-66952968D01*
X234503479Y-66948545D01*
X234743166Y-66919729D01*
X235008962Y-66868424D01*
X235296972Y-66795342D01*
X235333094Y-66785589D01*
X235420223Y-66765025D01*
X235496616Y-66750770D01*
X235548980Y-66745458D01*
X235583788Y-66747694D01*
X235664769Y-66772131D01*
X235726662Y-66818480D01*
X235762844Y-66880464D01*
X235766692Y-66951807D01*
X235765523Y-66956980D01*
X235753681Y-66983151D01*
X235729991Y-67007634D01*
X235691136Y-67031548D01*
X235633796Y-67056009D01*
X235554653Y-67082137D01*
X235450387Y-67111048D01*
X235317681Y-67143861D01*
X235153214Y-67181695D01*
X234953669Y-67225665D01*
X234911562Y-67234738D01*
X234783235Y-67260840D01*
X234678332Y-67278738D01*
X234585675Y-67289863D01*
X234494085Y-67295646D01*
X234392385Y-67297517D01*
X234229458Y-67292922D01*
X234041059Y-67270277D01*
X233882721Y-67228079D01*
X233751882Y-67165587D01*
X233645980Y-67082062D01*
X233610423Y-67043695D01*
X233556474Y-66965935D01*
X233520136Y-66876691D01*
X233498309Y-66767064D01*
X233487894Y-66628154D01*
X233485746Y-66554840D01*
X233486462Y-66475834D01*
X233493011Y-66413529D01*
X233507002Y-66354906D01*
X233530041Y-66286947D01*
X233534102Y-66275776D01*
X233556588Y-66211851D01*
X233571484Y-66165911D01*
X233575742Y-66147265D01*
X233575099Y-66147044D01*
X233550153Y-66145063D01*
X233494705Y-66142486D01*
X233416225Y-66139622D01*
X233322185Y-66136779D01*
X233072601Y-66129923D01*
X233016263Y-66276462D01*
X232991887Y-66340769D01*
X232948916Y-66462490D01*
X232919432Y-66563514D01*
X232901181Y-66653909D01*
X232891908Y-66743741D01*
X232889359Y-66843077D01*
X232424220Y-66843077D01*
X232424249Y-66829778D01*
X232426500Y-66764297D01*
X232432963Y-66699733D01*
X232445008Y-66631469D01*
X232464004Y-66554889D01*
X232491321Y-66465377D01*
X232528330Y-66358318D01*
X232576399Y-66229095D01*
X232636900Y-66073091D01*
X232711200Y-65885692D01*
X232756766Y-65770951D01*
X232838083Y-65562308D01*
X232906462Y-65380319D01*
X232963938Y-65218957D01*
X233012548Y-65072192D01*
X233054329Y-64933997D01*
X233091316Y-64798344D01*
X233125547Y-64659205D01*
X233147279Y-64561293D01*
X233163438Y-64469716D01*
X233173005Y-64381047D01*
X233177445Y-64281313D01*
X233178220Y-64156538D01*
X233178189Y-64150030D01*
X233172275Y-63973155D01*
X233154792Y-63821571D01*
X233122916Y-63682875D01*
X233073822Y-63544665D01*
X233004686Y-63394538D01*
X232984845Y-63354091D01*
X232942318Y-63256400D01*
X232921336Y-63181383D01*
X232921500Y-63121938D01*
X232942408Y-63070962D01*
X232983662Y-63021354D01*
X233021680Y-62987087D01*
X233069946Y-62961574D01*
X233128701Y-62954923D01*
X233155806Y-62956410D01*
X233223433Y-62976865D01*
X233284745Y-63024367D01*
X233343824Y-63102774D01*
X233404751Y-63215945D01*
X233405574Y-63217665D01*
X233515426Y-63489737D01*
X233586925Y-63767198D01*
X233620199Y-64051138D01*
X233615377Y-64342652D01*
X233572587Y-64642831D01*
X233530288Y-64832264D01*
X233464363Y-65083626D01*
X233388344Y-65336301D01*
X233307382Y-65572234D01*
X233280873Y-65645039D01*
X233256417Y-65714374D01*
X233240512Y-65762124D01*
X233235738Y-65780786D01*
X233235831Y-65780848D01*
X233257058Y-65782851D01*
X233309373Y-65785460D01*
X233385105Y-65788346D01*
X233476581Y-65791177D01*
X233713547Y-65797769D01*
X233824211Y-65508533D01*
X233938850Y-65184984D01*
X234036991Y-64844488D01*
X234104241Y-64522683D01*
X234140876Y-64217168D01*
X234147170Y-63925548D01*
X234123402Y-63645423D01*
X234069846Y-63374396D01*
X234044638Y-63283292D01*
X233988570Y-63122958D01*
X233917290Y-62970003D01*
X233825605Y-62813946D01*
X233708326Y-62644303D01*
X233684508Y-62606926D01*
X233659505Y-62526659D01*
X233673362Y-62450104D01*
X233726123Y-62376585D01*
X233732260Y-62370596D01*
X233806448Y-62320686D01*
X233883576Y-62309510D01*
X233963785Y-62337116D01*
X234047217Y-62403549D01*
X234134014Y-62508855D01*
X234253120Y-62700479D01*
X234367267Y-62942895D01*
X234458205Y-63206437D01*
X234524429Y-63484619D01*
X234564432Y-63770956D01*
X234576708Y-64058963D01*
X234559752Y-64342154D01*
X234536375Y-64507492D01*
X234490261Y-64748584D01*
X234429658Y-65003928D01*
X234357503Y-65262381D01*
X234276734Y-65512799D01*
X234190288Y-65744038D01*
X234187234Y-65751578D01*
X234165847Y-65806322D01*
X234158984Y-65834558D01*
X234166455Y-65845064D01*
X234188072Y-65846615D01*
X234197052Y-65846939D01*
X234243242Y-65850319D01*
X234317006Y-65856789D01*
X234410294Y-65865624D01*
X234515056Y-65876097D01*
X234628037Y-65888047D01*
X235037116Y-65938081D01*
X235413987Y-65995289D01*
X235758099Y-66059438D01*
X236068899Y-66130299D01*
X236345836Y-66207641D01*
X236588358Y-66291232D01*
X236795914Y-66380841D01*
X236967951Y-66476239D01*
X237103919Y-66577192D01*
X237203266Y-66683472D01*
X237265439Y-66794846D01*
X237289888Y-66911084D01*
X237287766Y-66929628D01*
X237276060Y-67031955D01*
X237266091Y-67063375D01*
G36*
X236646976Y-69059773D02*
G01*
X236449841Y-69320111D01*
X236429006Y-69344572D01*
X236236726Y-69544234D01*
X236011374Y-69738231D01*
X235758268Y-69923204D01*
X235482722Y-70095792D01*
X235190050Y-70252635D01*
X234885569Y-70390373D01*
X234574593Y-70505646D01*
X234516625Y-70524490D01*
X234326856Y-70581984D01*
X234144931Y-70629518D01*
X233961465Y-70668957D01*
X233767077Y-70702166D01*
X233552383Y-70731009D01*
X233308000Y-70757352D01*
X233248780Y-70761445D01*
X233145655Y-70764949D01*
X233020070Y-70766611D01*
X232881300Y-70766505D01*
X232738623Y-70764706D01*
X232601317Y-70761288D01*
X232478658Y-70756327D01*
X232379923Y-70749895D01*
X232266359Y-70739226D01*
X231819957Y-70676962D01*
X231397345Y-70584071D01*
X230997650Y-70460158D01*
X230619999Y-70304827D01*
X230263520Y-70117684D01*
X229927340Y-69898333D01*
X229610586Y-69646380D01*
X229312385Y-69361430D01*
X229173945Y-69210396D01*
X228947640Y-68926505D01*
X228758194Y-68633760D01*
X228604362Y-68329539D01*
X228484898Y-68011215D01*
X228398556Y-67676167D01*
X228344091Y-67321769D01*
X228339372Y-67274656D01*
X228329479Y-67113531D01*
X228333231Y-66980482D01*
X228341115Y-66931168D01*
X228786853Y-66931168D01*
X228804749Y-66987622D01*
X228823397Y-67017279D01*
X228870162Y-67070558D01*
X228927003Y-67120503D01*
X229064467Y-67209506D01*
X229250161Y-67300065D01*
X229472370Y-67383699D01*
X229730027Y-67460097D01*
X230022065Y-67528944D01*
X230347417Y-67589926D01*
X230705016Y-67642731D01*
X230765368Y-67650761D01*
X230886524Y-67668754D01*
X230976535Y-67686149D01*
X231040923Y-67704793D01*
X231085209Y-67726531D01*
X231114915Y-67753209D01*
X231135564Y-67786674D01*
X231148882Y-67820563D01*
X231147873Y-67856733D01*
X231124974Y-67903727D01*
X231095942Y-67943260D01*
X231044275Y-67980770D01*
X230973144Y-68001071D01*
X230876748Y-68005584D01*
X230749283Y-67995728D01*
X230651510Y-67984063D01*
X230261531Y-67927268D01*
X229894330Y-67857003D01*
X229553661Y-67774155D01*
X229243281Y-67679612D01*
X228966942Y-67574263D01*
X228946966Y-67565758D01*
X228879029Y-67538260D01*
X228839282Y-67525958D01*
X228821938Y-67527562D01*
X228821213Y-67541782D01*
X228821725Y-67543632D01*
X228832044Y-67587637D01*
X228843361Y-67644154D01*
X228853565Y-67692293D01*
X228889931Y-67822130D01*
X228941203Y-67971313D01*
X229003466Y-68130164D01*
X229072803Y-68289002D01*
X229145299Y-68438148D01*
X229217039Y-68567924D01*
X229254551Y-68628676D01*
X229437081Y-68885345D01*
X229651832Y-69133686D01*
X229893279Y-69368221D01*
X230155892Y-69583472D01*
X230434144Y-69773963D01*
X230594551Y-69868833D01*
X230920503Y-70033917D01*
X231261043Y-70169749D01*
X231621872Y-70278462D01*
X232008692Y-70362183D01*
X232029660Y-70365734D01*
X232152162Y-70381260D01*
X232303691Y-70393965D01*
X232475993Y-70403689D01*
X232660815Y-70410274D01*
X232849903Y-70413560D01*
X233035004Y-70413391D01*
X233207863Y-70409605D01*
X233360229Y-70402046D01*
X233483846Y-70390553D01*
X233617361Y-70371809D01*
X234020838Y-70292551D01*
X234409188Y-70181882D01*
X234779487Y-70041013D01*
X235128815Y-69871155D01*
X235454249Y-69673522D01*
X235752868Y-69449326D01*
X235838119Y-69374685D01*
X236043824Y-69162570D01*
X236224941Y-68927959D01*
X236374383Y-68679630D01*
X236458602Y-68517749D01*
X236373109Y-68528306D01*
X236332084Y-68534450D01*
X236257487Y-68547071D01*
X236159680Y-68564467D01*
X236046593Y-68585226D01*
X235926154Y-68607934D01*
X235727664Y-68644190D01*
X235253229Y-68716420D01*
X234802515Y-68763955D01*
X234376252Y-68786887D01*
X233975170Y-68785310D01*
X233600001Y-68759318D01*
X233251473Y-68709005D01*
X232930318Y-68634464D01*
X232637266Y-68535788D01*
X232373047Y-68413072D01*
X232138391Y-68266409D01*
X231934029Y-68095893D01*
X231846055Y-68006744D01*
X231712018Y-67846477D01*
X231605148Y-67678812D01*
X231519364Y-67493534D01*
X231448584Y-67280426D01*
X231422740Y-67164908D01*
X231404849Y-66958156D01*
X231416834Y-66727404D01*
X231458702Y-66472066D01*
X231461265Y-66459963D01*
X231480465Y-66368082D01*
X231496097Y-66291159D01*
X231506612Y-66236943D01*
X231510462Y-66213182D01*
X231503156Y-66205740D01*
X231465821Y-66199958D01*
X231395565Y-66200200D01*
X231290977Y-66206529D01*
X231150644Y-66219011D01*
X230973154Y-66237708D01*
X230748752Y-66264259D01*
X230411713Y-66311536D01*
X230107236Y-66364494D01*
X229831428Y-66424008D01*
X229580393Y-66490956D01*
X229350239Y-66566211D01*
X229137071Y-66650651D01*
X229098243Y-66667716D01*
X228973132Y-66727413D01*
X228882252Y-66780752D01*
X228822790Y-66830588D01*
X228791929Y-66879775D01*
X228786853Y-66931168D01*
X228341115Y-66931168D01*
X228351127Y-66868542D01*
X228383667Y-66770743D01*
X228430614Y-66687340D01*
X228521048Y-66582474D01*
X228638376Y-66487487D01*
X228775725Y-66408723D01*
X228917661Y-66345372D01*
X229176091Y-66246721D01*
X229459059Y-66158575D01*
X229768866Y-66080436D01*
X230107813Y-66011805D01*
X230478203Y-65952186D01*
X230882336Y-65901081D01*
X231322514Y-65857991D01*
X231406531Y-65850326D01*
X231506692Y-65839797D01*
X231588108Y-65829620D01*
X231644040Y-65820660D01*
X231667746Y-65813778D01*
X231678117Y-65797630D01*
X231702326Y-65747283D01*
X231735072Y-65670818D01*
X231773802Y-65574624D01*
X231815962Y-65465091D01*
X231858999Y-65348609D01*
X231900361Y-65231568D01*
X231977647Y-64991813D01*
X232055232Y-64698403D01*
X232106355Y-64424804D01*
X232131616Y-64166513D01*
X232131613Y-63919028D01*
X232106944Y-63677846D01*
X232058203Y-63431817D01*
X231980221Y-63179953D01*
X231877063Y-62954283D01*
X231747632Y-62751983D01*
X231731211Y-62729534D01*
X231675875Y-62641139D01*
X231649226Y-62567095D01*
X231649485Y-62499539D01*
X231674872Y-62430608D01*
X231690829Y-62405487D01*
X231751528Y-62353823D01*
X231829340Y-62326945D01*
X231912810Y-62327484D01*
X231990483Y-62358074D01*
X232045270Y-62406015D01*
X232112196Y-62486801D01*
X232183773Y-62591399D01*
X232255959Y-62712975D01*
X232324714Y-62844695D01*
X232385997Y-62979725D01*
X232435768Y-63111231D01*
X232467204Y-63213689D01*
X232521163Y-63443543D01*
X232559368Y-63688188D01*
X232580588Y-63935638D01*
X232583594Y-64173905D01*
X232567155Y-64391000D01*
X232512009Y-64710143D01*
X232425823Y-65057181D01*
X232310036Y-65423729D01*
X232165286Y-65807538D01*
X232131907Y-65890176D01*
X232057124Y-66079805D01*
X231996904Y-66241114D01*
X231949833Y-66379201D01*
X231914494Y-66499169D01*
X231889472Y-66606116D01*
X231873352Y-66705144D01*
X231864717Y-66801354D01*
X231862154Y-66899844D01*
X231871390Y-67060241D01*
X231915472Y-67277686D01*
X231994480Y-67481467D01*
X232106841Y-67669805D01*
X232250985Y-67840919D01*
X232425340Y-67993032D01*
X232628335Y-68124362D01*
X232858399Y-68233131D01*
X233113961Y-68317559D01*
X233121712Y-68319628D01*
X233264616Y-68355485D01*
X233397466Y-68383411D01*
X233528436Y-68404296D01*
X233665701Y-68419025D01*
X233817434Y-68428486D01*
X233991809Y-68433568D01*
X234197000Y-68435157D01*
X234476534Y-68430807D01*
X234858962Y-68409607D01*
X235245770Y-68369954D01*
X235643915Y-68310930D01*
X236060355Y-68231616D01*
X236502048Y-68131095D01*
X236588675Y-68110610D01*
X236696223Y-68088563D01*
X236777781Y-68077920D01*
X236840167Y-68078368D01*
X236890196Y-68089596D01*
X236934685Y-68111291D01*
X236978060Y-68144994D01*
X237002844Y-68186915D01*
X237008153Y-68243036D01*
X236994605Y-68320250D01*
X236962817Y-68425450D01*
X236931115Y-68514524D01*
X236929671Y-68517749D01*
X236806875Y-68792161D01*
X236646976Y-69059773D01*
G37*
X236646976Y-69059773D02*
X236449841Y-69320111D01*
X236429006Y-69344572D01*
X236236726Y-69544234D01*
X236011374Y-69738231D01*
X235758268Y-69923204D01*
X235482722Y-70095792D01*
X235190050Y-70252635D01*
X234885569Y-70390373D01*
X234574593Y-70505646D01*
X234516625Y-70524490D01*
X234326856Y-70581984D01*
X234144931Y-70629518D01*
X233961465Y-70668957D01*
X233767077Y-70702166D01*
X233552383Y-70731009D01*
X233308000Y-70757352D01*
X233248780Y-70761445D01*
X233145655Y-70764949D01*
X233020070Y-70766611D01*
X232881300Y-70766505D01*
X232738623Y-70764706D01*
X232601317Y-70761288D01*
X232478658Y-70756327D01*
X232379923Y-70749895D01*
X232266359Y-70739226D01*
X231819957Y-70676962D01*
X231397345Y-70584071D01*
X230997650Y-70460158D01*
X230619999Y-70304827D01*
X230263520Y-70117684D01*
X229927340Y-69898333D01*
X229610586Y-69646380D01*
X229312385Y-69361430D01*
X229173945Y-69210396D01*
X228947640Y-68926505D01*
X228758194Y-68633760D01*
X228604362Y-68329539D01*
X228484898Y-68011215D01*
X228398556Y-67676167D01*
X228344091Y-67321769D01*
X228339372Y-67274656D01*
X228329479Y-67113531D01*
X228333231Y-66980482D01*
X228341115Y-66931168D01*
X228786853Y-66931168D01*
X228804749Y-66987622D01*
X228823397Y-67017279D01*
X228870162Y-67070558D01*
X228927003Y-67120503D01*
X229064467Y-67209506D01*
X229250161Y-67300065D01*
X229472370Y-67383699D01*
X229730027Y-67460097D01*
X230022065Y-67528944D01*
X230347417Y-67589926D01*
X230705016Y-67642731D01*
X230765368Y-67650761D01*
X230886524Y-67668754D01*
X230976535Y-67686149D01*
X231040923Y-67704793D01*
X231085209Y-67726531D01*
X231114915Y-67753209D01*
X231135564Y-67786674D01*
X231148882Y-67820563D01*
X231147873Y-67856733D01*
X231124974Y-67903727D01*
X231095942Y-67943260D01*
X231044275Y-67980770D01*
X230973144Y-68001071D01*
X230876748Y-68005584D01*
X230749283Y-67995728D01*
X230651510Y-67984063D01*
X230261531Y-67927268D01*
X229894330Y-67857003D01*
X229553661Y-67774155D01*
X229243281Y-67679612D01*
X228966942Y-67574263D01*
X228946966Y-67565758D01*
X228879029Y-67538260D01*
X228839282Y-67525958D01*
X228821938Y-67527562D01*
X228821213Y-67541782D01*
X228821725Y-67543632D01*
X228832044Y-67587637D01*
X228843361Y-67644154D01*
X228853565Y-67692293D01*
X228889931Y-67822130D01*
X228941203Y-67971313D01*
X229003466Y-68130164D01*
X229072803Y-68289002D01*
X229145299Y-68438148D01*
X229217039Y-68567924D01*
X229254551Y-68628676D01*
X229437081Y-68885345D01*
X229651832Y-69133686D01*
X229893279Y-69368221D01*
X230155892Y-69583472D01*
X230434144Y-69773963D01*
X230594551Y-69868833D01*
X230920503Y-70033917D01*
X231261043Y-70169749D01*
X231621872Y-70278462D01*
X232008692Y-70362183D01*
X232029660Y-70365734D01*
X232152162Y-70381260D01*
X232303691Y-70393965D01*
X232475993Y-70403689D01*
X232660815Y-70410274D01*
X232849903Y-70413560D01*
X233035004Y-70413391D01*
X233207863Y-70409605D01*
X233360229Y-70402046D01*
X233483846Y-70390553D01*
X233617361Y-70371809D01*
X234020838Y-70292551D01*
X234409188Y-70181882D01*
X234779487Y-70041013D01*
X235128815Y-69871155D01*
X235454249Y-69673522D01*
X235752868Y-69449326D01*
X235838119Y-69374685D01*
X236043824Y-69162570D01*
X236224941Y-68927959D01*
X236374383Y-68679630D01*
X236458602Y-68517749D01*
X236373109Y-68528306D01*
X236332084Y-68534450D01*
X236257487Y-68547071D01*
X236159680Y-68564467D01*
X236046593Y-68585226D01*
X235926154Y-68607934D01*
X235727664Y-68644190D01*
X235253229Y-68716420D01*
X234802515Y-68763955D01*
X234376252Y-68786887D01*
X233975170Y-68785310D01*
X233600001Y-68759318D01*
X233251473Y-68709005D01*
X232930318Y-68634464D01*
X232637266Y-68535788D01*
X232373047Y-68413072D01*
X232138391Y-68266409D01*
X231934029Y-68095893D01*
X231846055Y-68006744D01*
X231712018Y-67846477D01*
X231605148Y-67678812D01*
X231519364Y-67493534D01*
X231448584Y-67280426D01*
X231422740Y-67164908D01*
X231404849Y-66958156D01*
X231416834Y-66727404D01*
X231458702Y-66472066D01*
X231461265Y-66459963D01*
X231480465Y-66368082D01*
X231496097Y-66291159D01*
X231506612Y-66236943D01*
X231510462Y-66213182D01*
X231503156Y-66205740D01*
X231465821Y-66199958D01*
X231395565Y-66200200D01*
X231290977Y-66206529D01*
X231150644Y-66219011D01*
X230973154Y-66237708D01*
X230748752Y-66264259D01*
X230411713Y-66311536D01*
X230107236Y-66364494D01*
X229831428Y-66424008D01*
X229580393Y-66490956D01*
X229350239Y-66566211D01*
X229137071Y-66650651D01*
X229098243Y-66667716D01*
X228973132Y-66727413D01*
X228882252Y-66780752D01*
X228822790Y-66830588D01*
X228791929Y-66879775D01*
X228786853Y-66931168D01*
X228341115Y-66931168D01*
X228351127Y-66868542D01*
X228383667Y-66770743D01*
X228430614Y-66687340D01*
X228521048Y-66582474D01*
X228638376Y-66487487D01*
X228775725Y-66408723D01*
X228917661Y-66345372D01*
X229176091Y-66246721D01*
X229459059Y-66158575D01*
X229768866Y-66080436D01*
X230107813Y-66011805D01*
X230478203Y-65952186D01*
X230882336Y-65901081D01*
X231322514Y-65857991D01*
X231406531Y-65850326D01*
X231506692Y-65839797D01*
X231588108Y-65829620D01*
X231644040Y-65820660D01*
X231667746Y-65813778D01*
X231678117Y-65797630D01*
X231702326Y-65747283D01*
X231735072Y-65670818D01*
X231773802Y-65574624D01*
X231815962Y-65465091D01*
X231858999Y-65348609D01*
X231900361Y-65231568D01*
X231977647Y-64991813D01*
X232055232Y-64698403D01*
X232106355Y-64424804D01*
X232131616Y-64166513D01*
X232131613Y-63919028D01*
X232106944Y-63677846D01*
X232058203Y-63431817D01*
X231980221Y-63179953D01*
X231877063Y-62954283D01*
X231747632Y-62751983D01*
X231731211Y-62729534D01*
X231675875Y-62641139D01*
X231649226Y-62567095D01*
X231649485Y-62499539D01*
X231674872Y-62430608D01*
X231690829Y-62405487D01*
X231751528Y-62353823D01*
X231829340Y-62326945D01*
X231912810Y-62327484D01*
X231990483Y-62358074D01*
X232045270Y-62406015D01*
X232112196Y-62486801D01*
X232183773Y-62591399D01*
X232255959Y-62712975D01*
X232324714Y-62844695D01*
X232385997Y-62979725D01*
X232435768Y-63111231D01*
X232467204Y-63213689D01*
X232521163Y-63443543D01*
X232559368Y-63688188D01*
X232580588Y-63935638D01*
X232583594Y-64173905D01*
X232567155Y-64391000D01*
X232512009Y-64710143D01*
X232425823Y-65057181D01*
X232310036Y-65423729D01*
X232165286Y-65807538D01*
X232131907Y-65890176D01*
X232057124Y-66079805D01*
X231996904Y-66241114D01*
X231949833Y-66379201D01*
X231914494Y-66499169D01*
X231889472Y-66606116D01*
X231873352Y-66705144D01*
X231864717Y-66801354D01*
X231862154Y-66899844D01*
X231871390Y-67060241D01*
X231915472Y-67277686D01*
X231994480Y-67481467D01*
X232106841Y-67669805D01*
X232250985Y-67840919D01*
X232425340Y-67993032D01*
X232628335Y-68124362D01*
X232858399Y-68233131D01*
X233113961Y-68317559D01*
X233121712Y-68319628D01*
X233264616Y-68355485D01*
X233397466Y-68383411D01*
X233528436Y-68404296D01*
X233665701Y-68419025D01*
X233817434Y-68428486D01*
X233991809Y-68433568D01*
X234197000Y-68435157D01*
X234476534Y-68430807D01*
X234858962Y-68409607D01*
X235245770Y-68369954D01*
X235643915Y-68310930D01*
X236060355Y-68231616D01*
X236502048Y-68131095D01*
X236588675Y-68110610D01*
X236696223Y-68088563D01*
X236777781Y-68077920D01*
X236840167Y-68078368D01*
X236890196Y-68089596D01*
X236934685Y-68111291D01*
X236978060Y-68144994D01*
X237002844Y-68186915D01*
X237008153Y-68243036D01*
X236994605Y-68320250D01*
X236962817Y-68425450D01*
X236931115Y-68514524D01*
X236929671Y-68517749D01*
X236806875Y-68792161D01*
X236646976Y-69059773D01*
D12*
X219300354Y-78722500D02*
X218825838Y-78722500D01*
X219300354Y-77677500D02*
X218825838Y-77677500D01*
X216601000Y-82116000D02*
X220901000Y-82116000D01*
X216601000Y-87316000D02*
X216601000Y-87116000D01*
X220901000Y-82116000D02*
X220901000Y-82266000D01*
X216601000Y-82316000D02*
X216601000Y-82116000D01*
X220901000Y-87166000D02*
X220901000Y-87316000D01*
X220901000Y-87316000D02*
X216601000Y-87316000D01*
X216550000Y-97350000D02*
X216550000Y-97150000D01*
X220850000Y-92150000D02*
X220850000Y-92300000D01*
X216550000Y-92350000D02*
X216550000Y-92150000D01*
X220850000Y-97350000D02*
X216550000Y-97350000D01*
X216550000Y-92150000D02*
X220850000Y-92150000D01*
X220850000Y-97200000D02*
X220850000Y-97350000D01*
X216337258Y-77677500D02*
X215862742Y-77677500D01*
X216337258Y-78722500D02*
X215862742Y-78722500D01*
%LPC*%
D14*
X230349000Y-88834000D03*
D15*
X208160000Y-63700000D03*
D16*
X213240000Y-63700000D03*
D14*
X151180000Y-92800000D03*
X207300000Y-82400000D03*
X163000000Y-85800000D03*
D17*
X141600000Y-60400000D03*
D18*
X141600000Y-62940000D03*
X141600000Y-65480000D03*
X141600000Y-68020000D03*
X141600000Y-70560000D03*
X141600000Y-73100000D03*
D14*
X172200000Y-71450000D03*
X236050000Y-66950000D03*
X207300000Y-72400000D03*
X230400000Y-78800000D03*
X151180000Y-90000000D03*
X223200000Y-78800000D03*
X207249000Y-95034000D03*
D19*
X142225000Y-84340000D03*
D20*
X142225000Y-81800000D03*
X142225000Y-79260000D03*
D14*
X161500000Y-59600000D03*
D21*
X141600000Y-96600000D03*
D22*
X151760000Y-96600000D03*
D14*
X207249000Y-92434000D03*
D17*
X173125000Y-79225000D03*
D18*
X170585000Y-79225000D03*
X168045000Y-79225000D03*
X165505000Y-79225000D03*
X162965000Y-79225000D03*
X160425000Y-79225000D03*
D23*
X235766000Y-74734000D03*
D24*
X234234000Y-74734000D03*
D25*
X235766000Y-76266000D03*
D26*
X234234000Y-76266000D03*
D14*
X226800000Y-78800000D03*
X207400000Y-78200000D03*
D21*
X154100000Y-96600000D03*
D22*
X164260000Y-96600000D03*
D27*
X220700000Y-65450000D03*
X220700000Y-62150000D03*
D26*
X234234000Y-86266000D03*
D25*
X235766000Y-86266000D03*
D24*
X234234000Y-84734000D03*
D23*
X235766000Y-84734000D03*
D19*
X149200000Y-84440000D03*
D20*
X149200000Y-81900000D03*
X149200000Y-79360000D03*
D28*
X141734000Y-89276000D03*
D29*
X143266000Y-89276000D03*
X143266000Y-92324000D03*
D28*
X141734000Y-92324000D03*
D30*
X197940000Y-79020000D03*
D31*
X195400000Y-79020000D03*
X197940000Y-76480000D03*
X195400000Y-76480000D03*
X197940000Y-73940000D03*
X195400000Y-73940000D03*
X197940000Y-71400000D03*
X195400000Y-71400000D03*
X197940000Y-68860000D03*
X195400000Y-68860000D03*
X197940000Y-66320000D03*
X195400000Y-66320000D03*
X197940000Y-63780000D03*
X195400000Y-63780000D03*
D14*
X226800000Y-68800000D03*
X165080000Y-90200000D03*
X230400000Y-68800000D03*
X226749000Y-88834000D03*
X207300000Y-85000000D03*
X165080000Y-94100000D03*
X223149000Y-88834000D03*
X207300000Y-75000000D03*
X231000000Y-63800000D03*
X167850000Y-91550000D03*
X203200000Y-76350000D03*
X223200000Y-68800000D03*
D25*
X235715000Y-96300000D03*
D24*
X234183000Y-94768000D03*
D26*
X234183000Y-96300000D03*
D23*
X235715000Y-94768000D03*
D32*
X216081000Y-76626000D03*
X216081000Y-75356000D03*
X216081000Y-74076000D03*
X216081000Y-72806000D03*
D33*
X219351000Y-74716000D03*
D34*
X219888096Y-78200000D03*
X218238096Y-78200000D03*
D32*
X216081000Y-86626000D03*
X216081000Y-85356000D03*
X216081000Y-84076000D03*
X216081000Y-82806000D03*
D33*
X219351000Y-84716000D03*
D32*
X216030000Y-96660000D03*
X216030000Y-95390000D03*
X216030000Y-94110000D03*
X216030000Y-92840000D03*
D33*
X219300000Y-94750000D03*
D34*
X216925000Y-78200000D03*
X215275000Y-78200000D03*
M02*
