M48
; DRILL file {KiCad (6.0.5)} date Tue May 31 01:04:30 2022
; FORMAT={-:-/ absolute / metric / decimal}
; #@! TF.CreationDate,2022-05-31T01:04:30-04:00
; #@! TF.GenerationSoftware,Kicad,Pcbnew,(6.0.5)
; #@! TF.FileFunction,Plated,1,4,PTH
FMAT,2
METRIC
; #@! TA.AperFunction,Plated,PTH,ViaDrill
T1C0.254
; #@! TA.AperFunction,Plated,PTH,ComponentDrill
T2C0.600
; #@! TA.AperFunction,Plated,PTH,ComponentDrill
T3C0.800
; #@! TA.AperFunction,Plated,PTH,ComponentDrill
T4C0.900
; #@! TA.AperFunction,Plated,PTH,ComponentDrill
T5C1.000
; #@! TA.AperFunction,Plated,PTH,ComponentDrill
T6C1.520
%
G90
G05
T1
X141.6Y-74.9
X141.6Y-75.7
X145.85Y-90.5
X147.05Y-79.3
X147.05Y-84.3
X147.7Y-93.9
X153.825Y-63.475
X154.066Y-84.4
X154.1Y-79.3
X155.7Y-68.3
X156.4Y-66.5
X156.7Y-87.5
X157.4Y-62.5
X158.294Y-70.894
X158.4Y-69.3
X159.012Y-63.137
X160.627Y-92.527
X160.9Y-71.65
X161.112Y-61.787
X161.628Y-69.669
X162.169Y-74.555
X162.19Y-70.37
X162.25Y-61.95
X162.669Y-76.284
X162.669Y-64.624
X163.25Y-65.75
X163.25Y-77.545
X163.755Y-70.37
X163.8Y-60.4
X164.2Y-65.75
X164.75Y-69.65
X165.25Y-64.65
X165.25Y-65.75
X165.331Y-70.29
X165.75Y-62.2
X165.75Y-69.65
X166.25Y-64.65
X166.492Y-70.343
X166.75Y-62.2
X166.75Y-73.15
X167.25Y-64.65
X167.419Y-70.255
X167.45Y-67.25
X167.45Y-68.25
X167.45Y-69.25
X169.85Y-67.75
X169.941Y-68.745
X169.981Y-69.756
X170.0Y-87.9
X170.0Y-95.8
X170.15Y-73.4
X170.7Y-87.9
X170.7Y-95.8
X171.7Y-87.5
X171.7Y-95.4
X171.8Y-63.225
X171.8Y-64.775
X173.15Y-67.2
X173.15Y-67.95
X175.4Y-86.062
X175.4Y-94.0
X178.725Y-98.0
X181.85Y-79.0
X181.862Y-76.6
X181.963Y-60.0
X181.963Y-62.4
X181.963Y-64.8
X181.963Y-67.2
X181.963Y-69.6
X181.963Y-72.0
X185.35Y-79.0
X185.4Y-76.6
X185.425Y-94.625
X185.45Y-64.8
X185.45Y-67.2
X185.45Y-69.6
X185.45Y-72.0
X188.3Y-89.9
X188.3Y-91.2
X188.3Y-92.5
X188.3Y-95.1
X189.0Y-76.6
X189.0Y-79.0
X189.1Y-60.0
X189.1Y-62.4
X189.1Y-64.8
X189.1Y-67.2
X189.1Y-69.6
X189.1Y-72.0
X189.1Y-90.6
X189.1Y-91.9
X189.1Y-93.2
X189.1Y-95.8
X191.6Y-90.6
X191.6Y-92.5
X191.6Y-94.5
X191.6Y-95.8
X197.2Y-90.2
X197.2Y-92.897
X197.2Y-96.2
X207.3Y-90.2
X207.3Y-91.15
X210.449Y-92.834
X210.449Y-94.634
X210.5Y-72.8
X210.5Y-74.6
X210.5Y-82.8
X210.5Y-84.6
X215.9Y-78.2
X216.549Y-90.834
X216.6Y-70.8
X216.6Y-80.8
X216.849Y-91.834
X216.9Y-71.8
X216.9Y-81.8
X217.6Y-78.2
X219.3Y-78.2
X220.415Y-90.75
X220.466Y-70.716
X220.466Y-80.716
X221.749Y-91.934
X221.75Y-87.8
X221.8Y-71.9
X221.8Y-80.9
X221.8Y-81.9
X222.665Y-95.25
X222.665Y-96.3
X222.715Y-94.1
X222.716Y-75.216
X222.716Y-76.266
X222.716Y-85.216
X222.716Y-86.266
X222.766Y-74.066
X222.766Y-84.066
X223.115Y-94.7
X223.115Y-95.75
X223.115Y-96.8
X223.166Y-74.666
X223.166Y-75.716
X223.166Y-76.766
X223.166Y-84.666
X223.166Y-85.716
X223.166Y-86.766
X223.615Y-94.1
X223.615Y-95.2
X223.615Y-96.3
X223.666Y-74.066
X223.666Y-75.166
X223.666Y-76.266
X223.666Y-84.066
X223.666Y-85.166
X223.666Y-86.266
X224.065Y-94.7
X224.065Y-95.75
X224.065Y-96.8
X224.116Y-74.666
X224.116Y-75.716
X224.116Y-76.766
X224.116Y-84.666
X224.116Y-85.716
X224.116Y-86.766
X224.515Y-94.15
X224.515Y-95.25
X224.565Y-96.3
X224.566Y-74.116
X224.566Y-75.216
X224.566Y-84.116
X224.566Y-85.216
X224.616Y-76.266
X224.616Y-86.266
X225.265Y-90.3
X225.316Y-70.266
X225.316Y-80.266
X226.965Y-92.05
X227.016Y-72.016
X227.016Y-82.016
X230.0Y-60.7
X230.327Y-91.362
X230.379Y-71.328
X230.379Y-81.328
X232.865Y-91.1
X232.916Y-71.066
X232.916Y-81.066
T2
X151.18Y-90.0
X151.18Y-92.8
X161.5Y-59.6
X163.0Y-85.8
X165.08Y-90.2
X165.08Y-94.1
X167.85Y-91.55
X172.2Y-71.45
X203.2Y-76.35
X207.249Y-92.434
X207.249Y-95.034
X207.3Y-72.4
X207.3Y-75.0
X207.3Y-82.4
X207.3Y-85.0
X207.4Y-78.2
X223.149Y-88.834
X223.2Y-68.8
X223.2Y-78.8
X226.749Y-88.834
X226.8Y-68.8
X226.8Y-78.8
X230.349Y-88.834
X230.4Y-68.8
X230.4Y-78.8
X231.0Y-63.8
X236.05Y-66.95
T3
X141.6Y-96.6
X151.76Y-96.6
X154.1Y-96.6
X164.26Y-96.6
X220.7Y-62.15
X220.7Y-65.45
T4
X142.225Y-79.26
X142.225Y-81.8
X142.225Y-84.34
X149.2Y-79.36
X149.2Y-81.9
X149.2Y-84.44
T5
X141.484Y-89.276
X141.484Y-92.324
X141.6Y-60.4
X141.6Y-62.94
X141.6Y-65.48
X141.6Y-68.02
X141.6Y-70.56
X141.6Y-73.1
X143.516Y-89.276
X143.516Y-92.324
X160.425Y-79.225
X162.965Y-79.225
X165.505Y-79.225
X168.045Y-79.225
X170.585Y-79.225
X173.125Y-79.225
X195.4Y-63.78
X195.4Y-66.32
X195.4Y-68.86
X195.4Y-71.4
X195.4Y-73.94
X195.4Y-76.48
X195.4Y-79.02
X197.94Y-63.78
X197.94Y-66.32
X197.94Y-68.86
X197.94Y-71.4
X197.94Y-73.94
X197.94Y-76.48
X197.94Y-79.02
X233.933Y-94.518
X233.933Y-96.55
X233.984Y-74.484
X233.984Y-76.516
X233.984Y-84.484
X233.984Y-86.516
X235.965Y-94.518
X235.965Y-96.55
X236.016Y-74.484
X236.016Y-76.516
X236.016Y-84.484
X236.016Y-86.516
T6
X208.16Y-63.7
X213.24Y-63.7
T0
M30
