G04 #@! TF.GenerationSoftware,KiCad,Pcbnew,(6.0.5)*
G04 #@! TF.CreationDate,2022-05-31T01:04:28-04:00*
G04 #@! TF.ProjectId,GoldESC,476f6c64-4553-4432-9e6b-696361645f70,rev?*
G04 #@! TF.SameCoordinates,Original*
G04 #@! TF.FileFunction,Soldermask,Bot*
G04 #@! TF.FilePolarity,Negative*
%FSLAX46Y46*%
G04 Gerber Fmt 4.6, Leading zero omitted, Abs format (unit mm)*
G04 Created by KiCad (PCBNEW (6.0.5)) date 2022-05-31 01:04:28*
%MOMM*%
%LPD*%
G01*
G04 APERTURE LIST*
G04 Aperture macros list*
%AMRoundRect*
0 Rectangle with rounded corners*
0 $1 Rounding radius*
0 $2 $3 $4 $5 $6 $7 $8 $9 X,Y pos of 4 corners*
0 Add a 4 corners polygon primitive as box body*
4,1,4,$2,$3,$4,$5,$6,$7,$8,$9,$2,$3,0*
0 Add four circle primitives for the rounded corners*
1,1,$1+$1,$2,$3*
1,1,$1+$1,$4,$5*
1,1,$1+$1,$6,$7*
1,1,$1+$1,$8,$9*
0 Add four rect primitives between the rounded corners*
20,1,$1+$1,$2,$3,$4,$5,0*
20,1,$1+$1,$4,$5,$6,$7,0*
20,1,$1+$1,$6,$7,$8,$9,0*
20,1,$1+$1,$8,$9,$2,$3,0*%
%AMFreePoly0*
4,1,21,3.024497,2.399497,3.045000,2.350000,3.045000,-2.350000,3.024497,-2.399497,2.975000,-2.420000,1.425000,-2.420000,1.375503,-2.399497,1.355000,-2.350000,1.355000,-2.170000,-1.650000,-2.170000,-1.699497,-2.149497,-1.720000,-2.100000,-1.720000,2.100000,-1.699497,2.149497,-1.650000,2.170000,1.355000,2.170000,1.355000,2.350000,1.375503,2.399497,1.425000,2.420000,2.975000,2.420000,
3.024497,2.399497,3.024497,2.399497,$1*%
G04 Aperture macros list end*
%ADD10C,1.200000*%
%ADD11R,3.000000X3.000000*%
%ADD12C,3.000000*%
%ADD13R,1.700000X1.700000*%
%ADD14O,1.700000X1.700000*%
%ADD15R,1.800000X1.800000*%
%ADD16C,1.800000*%
%ADD17C,1.600000*%
%ADD18O,1.600000X1.600000*%
%ADD19RoundRect,0.250000X-1.000000X1.000000X-1.000000X-1.000000X1.000000X-1.000000X1.000000X1.000000X0*%
%ADD20RoundRect,0.250000X-1.000000X-1.000000X1.000000X-1.000000X1.000000X1.000000X-1.000000X1.000000X0*%
%ADD21RoundRect,0.250000X1.000000X1.000000X-1.000000X1.000000X-1.000000X-1.000000X1.000000X-1.000000X0*%
%ADD22RoundRect,0.250000X1.000000X-1.000000X1.000000X1.000000X-1.000000X1.000000X-1.000000X-1.000000X0*%
%ADD23C,1.400000*%
%ADD24RoundRect,0.200000X1.050000X-0.800000X1.050000X0.800000X-1.050000X0.800000X-1.050000X-0.800000X0*%
%ADD25RoundRect,0.200000X-1.050000X0.800000X-1.050000X-0.800000X1.050000X-0.800000X1.050000X0.800000X0*%
%ADD26RoundRect,0.250000X0.600000X0.600000X-0.600000X0.600000X-0.600000X-0.600000X0.600000X-0.600000X0*%
%ADD27C,1.700000*%
%ADD28RoundRect,0.070000X0.575000X-0.350000X0.575000X0.350000X-0.575000X0.350000X-0.575000X-0.350000X0*%
%ADD29FreePoly0,0.000000*%
%ADD30RoundRect,0.200000X0.200000X0.275000X-0.200000X0.275000X-0.200000X-0.275000X0.200000X-0.275000X0*%
G04 APERTURE END LIST*
D10*
X230349000Y-88834000D03*
D11*
X208160000Y-63700000D03*
D12*
X213240000Y-63700000D03*
D10*
X151180000Y-92800000D03*
X207300000Y-82400000D03*
X163000000Y-85800000D03*
D13*
X141600000Y-60400000D03*
D14*
X141600000Y-62940000D03*
X141600000Y-65480000D03*
X141600000Y-68020000D03*
X141600000Y-70560000D03*
X141600000Y-73100000D03*
D10*
X172200000Y-71450000D03*
X236050000Y-66950000D03*
X207300000Y-72400000D03*
X230400000Y-78800000D03*
X151180000Y-90000000D03*
X223200000Y-78800000D03*
X207249000Y-95034000D03*
D15*
X142225000Y-84340000D03*
D16*
X142225000Y-81800000D03*
X142225000Y-79260000D03*
D10*
X161500000Y-59600000D03*
D17*
X141600000Y-96600000D03*
D18*
X151760000Y-96600000D03*
D10*
X207249000Y-92434000D03*
D13*
X173125000Y-79225000D03*
D14*
X170585000Y-79225000D03*
X168045000Y-79225000D03*
X165505000Y-79225000D03*
X162965000Y-79225000D03*
X160425000Y-79225000D03*
D19*
X235766000Y-74734000D03*
D20*
X234234000Y-74734000D03*
D21*
X235766000Y-76266000D03*
D22*
X234234000Y-76266000D03*
D10*
X226800000Y-78800000D03*
X207400000Y-78200000D03*
D17*
X154100000Y-96600000D03*
D18*
X164260000Y-96600000D03*
D23*
X220700000Y-65450000D03*
X220700000Y-62150000D03*
D22*
X234234000Y-86266000D03*
D21*
X235766000Y-86266000D03*
D20*
X234234000Y-84734000D03*
D19*
X235766000Y-84734000D03*
D15*
X149200000Y-84440000D03*
D16*
X149200000Y-81900000D03*
X149200000Y-79360000D03*
D24*
X141734000Y-89276000D03*
D25*
X143266000Y-89276000D03*
X143266000Y-92324000D03*
D24*
X141734000Y-92324000D03*
D26*
X197940000Y-79020000D03*
D27*
X195400000Y-79020000D03*
X197940000Y-76480000D03*
X195400000Y-76480000D03*
X197940000Y-73940000D03*
X195400000Y-73940000D03*
X197940000Y-71400000D03*
X195400000Y-71400000D03*
X197940000Y-68860000D03*
X195400000Y-68860000D03*
X197940000Y-66320000D03*
X195400000Y-66320000D03*
X197940000Y-63780000D03*
X195400000Y-63780000D03*
D10*
X226800000Y-68800000D03*
X165080000Y-90200000D03*
X230400000Y-68800000D03*
X226749000Y-88834000D03*
X207300000Y-85000000D03*
X165080000Y-94100000D03*
X223149000Y-88834000D03*
X207300000Y-75000000D03*
X231000000Y-63800000D03*
X167850000Y-91550000D03*
X203200000Y-76350000D03*
X223200000Y-68800000D03*
D21*
X235715000Y-96300000D03*
D20*
X234183000Y-94768000D03*
D22*
X234183000Y-96300000D03*
D19*
X235715000Y-94768000D03*
D28*
X216081000Y-76626000D03*
X216081000Y-75356000D03*
X216081000Y-74076000D03*
X216081000Y-72806000D03*
D29*
X219351000Y-74716000D03*
D30*
X219888096Y-78200000D03*
X218238096Y-78200000D03*
D28*
X216081000Y-86626000D03*
X216081000Y-85356000D03*
X216081000Y-84076000D03*
X216081000Y-82806000D03*
D29*
X219351000Y-84716000D03*
D28*
X216030000Y-96660000D03*
X216030000Y-95390000D03*
X216030000Y-94110000D03*
X216030000Y-92840000D03*
D29*
X219300000Y-94750000D03*
D30*
X216925000Y-78200000D03*
X215275000Y-78200000D03*
M02*
