M48
; DRILL file {KiCad (6.0.5)} date Sun Sep 11 00:02:45 2022
; FORMAT={-:-/ absolute / inch / decimal}
; #@! TF.CreationDate,2022-09-11T00:02:45-04:00
; #@! TF.GenerationSoftware,Kicad,Pcbnew,(6.0.5)
; #@! TF.FileFunction,Plated,1,4,PTH
FMAT,2
INCH
; #@! TA.AperFunction,Plated,PTH,ViaDrill
T1C0.0079
; #@! TA.AperFunction,Plated,PTH,ComponentDrill
T2C0.0197
; #@! TA.AperFunction,Plated,PTH,ComponentDrill
T3C0.0236
; #@! TA.AperFunction,Plated,PTH,ComponentDrill
T4C0.0276
; #@! TA.AperFunction,Plated,PTH,ComponentDrill
T5C0.0315
%
G90
G05
T1
X-0.7618Y-0.1083
X-0.7539Y0.2992
X-0.7539Y-0.2913
X-0.7047Y-0.2106
X-0.6693Y-0.0669
X-0.6575Y-0.0295
X-0.6575Y-0.3268
X-0.624Y-0.1732
X-0.5886Y-0.2657
X-0.5295Y-0.315
X-0.5256Y0.2008
X-0.5138Y-0.1378
X-0.4764Y0.0177
X-0.4724Y-0.0059
X-0.4449Y0.2657
X-0.4449Y0.2402
X-0.4449Y0.1102
X-0.4429Y0.315
X-0.4291Y-0.2697
X-0.4291Y-0.2992
X-0.3427Y-0.2638
X-0.3425Y-0.2992
X-0.3228Y0.0413
X-0.3228Y-0.0335
X-0.2894Y0.1102
X-0.2697Y0.0965
X-0.25Y0.1102
X-0.1909Y0.124
X-0.1713Y0.1102
X-0.1693Y0.0472
X-0.1693Y0.0236
X-0.1693Y0.0
X-0.1693Y-0.0236
X-0.1693Y-0.0472
X-0.1693Y-0.0709
X-0.1693Y-0.0945
X-0.1693Y-0.1181
X-0.1516Y0.124
X-0.1398Y0.0787
X-0.1319Y-0.122
X-0.1154Y0.0795
X-0.0886Y-0.1339
X-0.0177Y0.128
X-0.0039Y0.065
X0.0217Y0.1358
X0.0217Y-0.3228
X0.0295Y-0.2539
X0.1299Y-0.2382
X0.1496Y-0.0433
X0.1693Y0.063
X0.189Y-0.0433
X0.1988Y0.1457
X0.2028Y-0.3071
X0.2205Y0.1102
X0.2559Y-0.1201
X0.4193Y0.0925
X0.4232Y0.3081
X0.4232Y-0.2736
X0.4232Y-0.313
X0.4232Y-0.25
X0.4239Y0.2608
X0.4246Y0.2843
X0.4252Y-0.0138
X0.4272Y0.1713
X0.4272Y0.1476
X0.4411Y-0.1144
X0.4685Y-0.122
X0.4902Y-0.2894
X0.4959Y-0.1239
X0.5Y0.0984
X0.5871Y-0.1268
X0.6142Y0.2461
X0.6142Y0.1988
X0.6142Y0.1516
X0.6142Y0.0197
X0.6142Y-0.0276
X0.6142Y-0.2047
X0.6142Y-0.252
X0.6142Y-0.2992
X0.6143Y-0.0679
X0.624Y-0.1142
X0.6378Y0.2461
X0.6378Y0.1988
X0.6378Y0.1516
X0.6378Y0.0197
X0.6378Y-0.0276
X0.6378Y-0.0689
X0.6378Y-0.2047
X0.6378Y-0.252
X0.6378Y-0.2992
X0.6614Y0.2461
X0.6614Y0.1988
X0.6614Y0.1516
X0.6614Y0.0945
X0.6614Y0.0197
X0.6614Y-0.0276
X0.6614Y-0.0689
X0.6614Y-0.1319
X0.6614Y-0.2047
X0.6614Y-0.252
X0.6614Y-0.2992
X0.7185Y-0.1614
X0.7205Y0.315
X0.7205Y0.2913
X0.7205Y0.0905
X0.7205Y0.0413
X0.7953Y0.1122
X0.7972Y-0.1811
X0.7992Y0.3268
X0.8012Y-0.3268
X0.8051Y0.0906
X0.8642Y0.1693
X0.8642Y0.1319
X0.8642Y0.0945
X0.8878Y0.1929
X0.8878Y0.1693
X0.9114Y0.1929
X0.9114Y0.1693
X0.935Y0.1929
X0.935Y0.1693
X0.9469Y0.1319
X0.9587Y0.1929
X0.9587Y0.1693
T2
X-0.7461Y0.1732
X-0.7461Y0.1437
X-0.7461Y0.0846
X-0.7461Y0.0551
X-0.7165Y0.1732
X-0.7165Y0.1437
X-0.7165Y0.0846
X-0.7165Y0.0551
X-0.687Y0.1732
X-0.687Y0.1437
X-0.687Y0.0846
X-0.687Y0.0551
X-0.1378Y0.3051
X-0.1378Y0.2756
X-0.1378Y0.2461
X-0.1378Y-0.2461
X-0.1378Y-0.2756
X-0.1378Y-0.3051
X-0.1083Y0.3051
X-0.1083Y0.2756
X-0.1083Y0.2461
X-0.1083Y-0.2461
X-0.1083Y-0.2756
X-0.1083Y-0.3051
X-0.0787Y0.3051
X-0.0787Y0.2756
X-0.0787Y0.2461
X-0.0787Y-0.2461
X-0.0787Y-0.2756
X-0.0787Y-0.3051
X-0.0492Y0.3051
X-0.0492Y0.2756
X-0.0492Y0.2461
X-0.0492Y-0.2461
X-0.0492Y-0.2756
X-0.0492Y-0.3051
X-0.0197Y0.3051
X-0.0197Y0.2756
X-0.0197Y0.2461
X-0.0197Y-0.2461
X-0.0197Y-0.2756
X-0.0197Y-0.3051
X0.8445Y0.0295
X0.8445Y0.0
X0.8445Y-0.0295
X0.8465Y0.3051
X0.8465Y0.2756
X0.8465Y0.2461
X0.8465Y-0.1083
X0.8465Y-0.1378
X0.8465Y-0.1673
X0.8465Y-0.2461
X0.8465Y-0.2756
X0.8465Y-0.3051
X0.874Y0.0295
X0.874Y0.0
X0.874Y-0.0295
X0.876Y0.3051
X0.876Y0.2756
X0.876Y0.2461
X0.876Y-0.1083
X0.876Y-0.1378
X0.876Y-0.1673
X0.876Y-0.2461
X0.876Y-0.2756
X0.876Y-0.3051
X0.9035Y0.0295
X0.9035Y0.0
X0.9035Y-0.0295
X0.9055Y0.3051
X0.9055Y0.2756
X0.9055Y0.2461
X0.9055Y-0.1083
X0.9055Y-0.1378
X0.9055Y-0.1673
X0.9055Y-0.2461
X0.9055Y-0.2756
X0.9055Y-0.3051
X0.9331Y0.0295
X0.9331Y0.0
X0.9331Y-0.0295
X0.935Y0.3051
X0.935Y0.2756
X0.935Y0.2461
X0.935Y-0.1083
X0.935Y-0.1378
X0.935Y-0.1673
X0.935Y-0.2461
X0.935Y-0.2756
X0.935Y-0.3051
X0.9626Y0.0295
X0.9626Y0.0
X0.9626Y-0.0295
X0.9646Y0.3051
X0.9646Y0.2756
X0.9646Y0.2461
X0.9646Y-0.1083
X0.9646Y-0.1378
X0.9646Y-0.1673
X0.9646Y-0.2461
X0.9646Y-0.2756
X0.9646Y-0.3051
T3
X-0.4862Y0.3031
X-0.3189Y0.3031
X-0.2894Y0.2461
X-0.2579Y0.3031
X-0.1969Y0.3031
T4
X-0.5919Y0.1
X-0.5919Y0.05
X-0.5919Y0.0
X-0.5919Y-0.05
X-0.5919Y-0.1
X-0.5419Y0.1
X-0.5419Y0.05
X-0.5419Y0.0
X-0.5419Y-0.05
X-0.5419Y-0.1
T5
X0.1732Y0.2244
X0.1732Y0.1063
X0.1732Y-0.1059
X0.1732Y-0.2241
T0
M30
