%TF.GenerationSoftware,KiCad,Pcbnew,(6.0.5)*%
%TF.CreationDate,2022-09-11T00:02:45-04:00*%
%TF.ProjectId,GoldESC,476f6c64-4553-4432-9e6b-696361645f70,rev?*%
%TF.SameCoordinates,Original*%
%TF.FileFunction,Soldermask,Top*%
%TF.FilePolarity,Negative*%
%FSLAX46Y46*%
G04 Gerber Fmt 4.6, Leading zero omitted, Abs format (unit mm)*
G04 Created by KiCad (PCBNEW (6.0.5)) date 2022-09-11 00:02:45*
%MOMM*%
%LPD*%
G01*
G04 APERTURE LIST*
G04 Aperture macros list*
%AMRoundRect*
0 Rectangle with rounded corners*
0 $1 Rounding radius*
0 $2 $3 $4 $5 $6 $7 $8 $9 X,Y pos of 4 corners*
0 Add a 4 corners polygon primitive as box body*
4,1,4,$2,$3,$4,$5,$6,$7,$8,$9,$2,$3,0*
0 Add four circle primitives for the rounded corners*
1,1,$1+$1,$2,$3*
1,1,$1+$1,$4,$5*
1,1,$1+$1,$6,$7*
1,1,$1+$1,$8,$9*
0 Add four rect primitives between the rounded corners*
20,1,$1+$1,$2,$3,$4,$5,0*
20,1,$1+$1,$4,$5,$6,$7,0*
20,1,$1+$1,$6,$7,$8,$9,0*
20,1,$1+$1,$8,$9,$2,$3,0*%
G04 Aperture macros list end*
%ADD10RoundRect,0.135000X-0.135000X-0.185000X0.135000X-0.185000X0.135000X0.185000X-0.135000X0.185000X0*%
%ADD11R,0.700000X0.340000*%
%ADD12R,0.600000X0.700000*%
%ADD13RoundRect,0.243750X0.243750X0.456250X-0.243750X0.456250X-0.243750X-0.456250X0.243750X-0.456250X0*%
%ADD14RoundRect,0.135000X-0.185000X0.135000X-0.185000X-0.135000X0.185000X-0.135000X0.185000X0.135000X0*%
%ADD15RoundRect,0.140000X-0.170000X0.140000X-0.170000X-0.140000X0.170000X-0.140000X0.170000X0.140000X0*%
%ADD16RoundRect,0.140000X0.140000X0.170000X-0.140000X0.170000X-0.140000X-0.170000X0.140000X-0.170000X0*%
%ADD17RoundRect,0.140000X-0.140000X-0.170000X0.140000X-0.170000X0.140000X0.170000X-0.140000X0.170000X0*%
%ADD18R,1.000000X1.000000*%
%ADD19RoundRect,0.075000X-0.662500X-0.075000X0.662500X-0.075000X0.662500X0.075000X-0.662500X0.075000X0*%
%ADD20RoundRect,0.075000X-0.075000X-0.662500X0.075000X-0.662500X0.075000X0.662500X-0.075000X0.662500X0*%
%ADD21RoundRect,0.243750X-0.243750X-0.456250X0.243750X-0.456250X0.243750X0.456250X-0.243750X0.456250X0*%
%ADD22RoundRect,0.135000X0.185000X-0.135000X0.185000X0.135000X-0.185000X0.135000X-0.185000X-0.135000X0*%
%ADD23RoundRect,0.250000X1.075000X-0.375000X1.075000X0.375000X-1.075000X0.375000X-1.075000X-0.375000X0*%
%ADD24RoundRect,0.135000X0.135000X0.185000X-0.135000X0.185000X-0.135000X-0.185000X0.135000X-0.185000X0*%
%ADD25C,1.200000*%
%ADD26RoundRect,0.100000X-0.637500X-0.100000X0.637500X-0.100000X0.637500X0.100000X-0.637500X0.100000X0*%
%ADD27RoundRect,0.250000X0.250000X-0.250000X0.250000X0.250000X-0.250000X0.250000X-0.250000X-0.250000X0*%
%ADD28RoundRect,0.250000X-0.250000X0.250000X-0.250000X-0.250000X0.250000X-0.250000X0.250000X0.250000X0*%
%ADD29RoundRect,0.508000X0.711200X1.168400X-0.711200X1.168400X-0.711200X-1.168400X0.711200X-1.168400X0*%
%ADD30RoundRect,0.140000X0.170000X-0.140000X0.170000X0.140000X-0.170000X0.140000X-0.170000X-0.140000X0*%
%ADD31RoundRect,0.250000X0.250000X0.250000X-0.250000X0.250000X-0.250000X-0.250000X0.250000X-0.250000X0*%
%ADD32O,1.000000X1.000000*%
%ADD33RoundRect,0.250000X0.650000X-0.325000X0.650000X0.325000X-0.650000X0.325000X-0.650000X-0.325000X0*%
%ADD34C,1.400000*%
G04 APERTURE END LIST*
D10*
%TO.C,R43*%
X8290000Y3300000D03*
X9310000Y3300000D03*
%TD*%
D11*
%TO.C,U4*%
X17550000Y8000000D03*
X17550000Y7500000D03*
X17550000Y7000000D03*
X19050000Y7000000D03*
X19050000Y7500000D03*
X19050000Y8000000D03*
%TD*%
D12*
%TO.C,D5*%
X9300000Y-1200000D03*
X10700000Y-1200000D03*
%TD*%
D13*
%TO.C,D83*%
X4487500Y-7800000D03*
X2612500Y-7800000D03*
%TD*%
D14*
%TO.C,R21*%
X12000000Y-7190000D03*
X12000000Y-8210000D03*
%TD*%
D15*
%TO.C,C82*%
X-10400000Y5080000D03*
X-10400000Y4120000D03*
%TD*%
D16*
%TO.C,C42*%
X7280000Y3300000D03*
X6320000Y3300000D03*
%TD*%
%TO.C,C7*%
X16630000Y7300000D03*
X15670000Y7300000D03*
%TD*%
D14*
%TO.C,R10*%
X12000000Y6210000D03*
X12000000Y5190000D03*
%TD*%
D15*
%TO.C,C8*%
X19900000Y2180000D03*
X19900000Y1220000D03*
%TD*%
D17*
%TO.C,C81*%
X-1780000Y-4600000D03*
X-820000Y-4600000D03*
%TD*%
D14*
%TO.C,R12*%
X12000000Y-5390000D03*
X12000000Y-6410000D03*
%TD*%
%TO.C,R24*%
X400000Y-3890000D03*
X400000Y-4910000D03*
%TD*%
D18*
%TO.C,D1*%
X12100000Y7500000D03*
X14600000Y7500000D03*
%TD*%
D19*
%TO.C,U80*%
X-9762500Y2750000D03*
X-9762500Y2250000D03*
X-9762500Y1750000D03*
X-9762500Y1250000D03*
X-9762500Y750000D03*
X-9762500Y250000D03*
X-9762500Y-250000D03*
X-9762500Y-750000D03*
X-9762500Y-1250000D03*
X-9762500Y-1750000D03*
X-9762500Y-2250000D03*
X-9762500Y-2750000D03*
D20*
X-8350000Y-4162500D03*
X-7850000Y-4162500D03*
X-7350000Y-4162500D03*
X-6850000Y-4162500D03*
X-6350000Y-4162500D03*
X-5850000Y-4162500D03*
X-5350000Y-4162500D03*
X-4850000Y-4162500D03*
X-4350000Y-4162500D03*
X-3850000Y-4162500D03*
X-3350000Y-4162500D03*
X-2850000Y-4162500D03*
D19*
X-1437500Y-2750000D03*
X-1437500Y-2250000D03*
X-1437500Y-1750000D03*
X-1437500Y-1250000D03*
X-1437500Y-750000D03*
X-1437500Y-250000D03*
X-1437500Y250000D03*
X-1437500Y750000D03*
X-1437500Y1250000D03*
X-1437500Y1750000D03*
X-1437500Y2250000D03*
X-1437500Y2750000D03*
D20*
X-2850000Y4162500D03*
X-3350000Y4162500D03*
X-3850000Y4162500D03*
X-4350000Y4162500D03*
X-4850000Y4162500D03*
X-5350000Y4162500D03*
X-5850000Y4162500D03*
X-6350000Y4162500D03*
X-6850000Y4162500D03*
X-7350000Y4162500D03*
X-7850000Y4162500D03*
X-8350000Y4162500D03*
%TD*%
D14*
%TO.C,R32*%
X-11300000Y5110000D03*
X-11300000Y4090000D03*
%TD*%
D21*
%TO.C,D84*%
X5812500Y-7800000D03*
X7687500Y-7800000D03*
%TD*%
D22*
%TO.C,R18*%
X18850000Y-4610000D03*
X18850000Y-3590000D03*
%TD*%
D14*
%TO.C,R14*%
X15150000Y2310000D03*
X15150000Y1290000D03*
%TD*%
D23*
%TO.C,L60*%
X-18400000Y-3559000D03*
X-18400000Y-759000D03*
%TD*%
D22*
%TO.C,R15*%
X11150000Y-5760000D03*
X11150000Y-4740000D03*
%TD*%
D24*
%TO.C,R7*%
X23510000Y2400000D03*
X22490000Y2400000D03*
%TD*%
D25*
%TO.C,TP80*%
X-7350000Y6250000D03*
%TD*%
%TO.C,TP83*%
X-12350000Y7700000D03*
%TD*%
D18*
%TO.C,D42*%
X6650000Y4700000D03*
X9150000Y4700000D03*
%TD*%
D12*
%TO.C,D6*%
X9200000Y-3650000D03*
X10600000Y-3650000D03*
%TD*%
D26*
%TO.C,U2*%
X2037500Y825000D03*
X2037500Y175000D03*
X2037500Y-475000D03*
X2037500Y-1125000D03*
X2037500Y-1775000D03*
X2037500Y-2425000D03*
X2037500Y-3075000D03*
X2037500Y-3725000D03*
X2037500Y-4375000D03*
X2037500Y-5025000D03*
X7762500Y-5025000D03*
X7762500Y-4375000D03*
X7762500Y-3725000D03*
X7762500Y-3075000D03*
X7762500Y-2425000D03*
X7762500Y-1775000D03*
X7762500Y-1125000D03*
X7762500Y-475000D03*
X7762500Y175000D03*
X7762500Y825000D03*
%TD*%
D25*
%TO.C,TP81*%
X-6550000Y7700000D03*
%TD*%
D14*
%TO.C,R11*%
X12000000Y410000D03*
X12000000Y-610000D03*
%TD*%
D18*
%TO.C,J1*%
X23750000Y7000000D03*
D27*
X21500000Y6250000D03*
D18*
X22250000Y7750000D03*
X22250000Y7000000D03*
X23000000Y7750000D03*
X22250000Y6250000D03*
X24500000Y7000000D03*
X23750000Y6250000D03*
D27*
X24500000Y6250000D03*
D18*
X23750000Y7750000D03*
X23000000Y7000000D03*
X23000000Y6250000D03*
D27*
X21500000Y7750000D03*
D18*
X21500000Y7000000D03*
D27*
X24500000Y7750000D03*
%TD*%
D18*
%TO.C,J40*%
X-1250000Y-7000000D03*
X-500000Y-7000000D03*
X-1250000Y-6250000D03*
X-2000000Y-6250000D03*
X-2750000Y-7750000D03*
X-2000000Y-7000000D03*
X-2000000Y-7750000D03*
X-1250000Y-7750000D03*
X-2750000Y-6250000D03*
D28*
X-500000Y-6250000D03*
X-500000Y-7750000D03*
X-3500000Y-7750000D03*
X-3500000Y-6250000D03*
D18*
X-2750000Y-7000000D03*
X-3500000Y-7000000D03*
%TD*%
D15*
%TO.C,C88*%
X-11300000Y1930000D03*
X-11300000Y970000D03*
%TD*%
D29*
%TO.C,R1*%
X18736800Y4700000D03*
X14063200Y4700000D03*
%TD*%
D15*
%TO.C,C9*%
X19700000Y-3620000D03*
X19700000Y-4580000D03*
%TD*%
D12*
%TO.C,D4*%
X9100000Y1500000D03*
X10500000Y1500000D03*
%TD*%
D10*
%TO.C,R4*%
X22490000Y3350000D03*
X23510000Y3350000D03*
%TD*%
D25*
%TO.C,TP84*%
X-8100000Y7700000D03*
%TD*%
D29*
%TO.C,R3*%
X18736800Y-6900000D03*
X14063200Y-6900000D03*
%TD*%
D30*
%TO.C,C89*%
X-11300000Y-780000D03*
X-11300000Y180000D03*
%TD*%
D22*
%TO.C,R20*%
X12000000Y-2410000D03*
X12000000Y-1390000D03*
%TD*%
D14*
%TO.C,R19*%
X12000000Y4410000D03*
X12000000Y3390000D03*
%TD*%
D18*
%TO.C,J2*%
X22950000Y750000D03*
X22200000Y750000D03*
X23700000Y0D03*
X23700000Y-750000D03*
D27*
X21450000Y750000D03*
D18*
X24450000Y0D03*
D27*
X21450000Y-750000D03*
D18*
X22950000Y-750000D03*
X22200000Y-750000D03*
X22200000Y0D03*
X22950000Y0D03*
D27*
X24450000Y-750000D03*
X24450000Y750000D03*
D18*
X21450000Y0D03*
X23700000Y750000D03*
%TD*%
D25*
%TO.C,TP82*%
X-5000000Y7700000D03*
%TD*%
D16*
%TO.C,C5*%
X10180000Y-2400000D03*
X9220000Y-2400000D03*
%TD*%
D18*
%TO.C,D3*%
X12250000Y-4100000D03*
X14750000Y-4100000D03*
%TD*%
D31*
%TO.C,J30*%
X-17450000Y4400000D03*
X-18950000Y3650000D03*
D18*
X-18200000Y3650000D03*
D31*
X-18950000Y4400000D03*
X-17450000Y3650000D03*
D18*
X-18200000Y4400000D03*
D31*
X-17450000Y2150000D03*
D18*
X-18200000Y1400000D03*
D31*
X-18950000Y2150000D03*
D18*
X-18200000Y2150000D03*
D31*
X-18950000Y1400000D03*
X-17450000Y1400000D03*
%TD*%
D15*
%TO.C,C84*%
X-11300000Y-1620000D03*
X-11300000Y-2580000D03*
%TD*%
D10*
%TO.C,R42*%
X6290000Y2500000D03*
X7310000Y2500000D03*
%TD*%
D18*
%TO.C,J81*%
X-13765000Y-2540000D03*
D32*
X-15035000Y-2540000D03*
X-13765000Y-1270000D03*
X-15035000Y-1270000D03*
X-13765000Y0D03*
X-15035000Y0D03*
X-13765000Y1270000D03*
X-15035000Y1270000D03*
X-13765000Y2540000D03*
X-15035000Y2540000D03*
%TD*%
D22*
%TO.C,R17*%
X19050000Y1190000D03*
X19050000Y2210000D03*
%TD*%
D11*
%TO.C,U5*%
X16050000Y2300000D03*
X16050000Y1800000D03*
X16050000Y1300000D03*
X17550000Y1300000D03*
X17550000Y1800000D03*
X17550000Y2300000D03*
%TD*%
D28*
%TO.C,J41*%
X-500000Y6250000D03*
D18*
X-3500000Y7000000D03*
X-2750000Y6250000D03*
X-1250000Y7000000D03*
D28*
X-500000Y7750000D03*
D18*
X-2750000Y7750000D03*
X-2000000Y7750000D03*
D28*
X-3500000Y7750000D03*
D18*
X-2000000Y6250000D03*
X-2000000Y7000000D03*
X-2750000Y7000000D03*
X-1250000Y7750000D03*
X-1250000Y6250000D03*
X-500000Y7000000D03*
D28*
X-3500000Y6250000D03*
%TD*%
D18*
%TO.C,D2*%
X11600000Y1700000D03*
X14100000Y1700000D03*
%TD*%
D16*
%TO.C,C6*%
X10180000Y-4800000D03*
X9220000Y-4800000D03*
%TD*%
D10*
%TO.C,R16*%
X15640000Y8150000D03*
X16660000Y8150000D03*
%TD*%
D15*
%TO.C,C83*%
X-1000000Y4780000D03*
X-1000000Y3820000D03*
%TD*%
D18*
%TO.C,J4*%
X22250000Y-4250000D03*
D28*
X24500000Y-2750000D03*
D18*
X23750000Y-2750000D03*
D28*
X21500000Y-4250000D03*
D18*
X21500000Y-3500000D03*
X23000000Y-4250000D03*
X23750000Y-3500000D03*
X22250000Y-3500000D03*
X23000000Y-2750000D03*
X24500000Y-3500000D03*
X23750000Y-4250000D03*
X22250000Y-2750000D03*
D28*
X24500000Y-4250000D03*
X21500000Y-2750000D03*
D18*
X23000000Y-3500000D03*
%TD*%
D17*
%TO.C,C4*%
X9220000Y300000D03*
X10180000Y300000D03*
%TD*%
D33*
%TO.C,C10*%
X2000000Y2400000D03*
X2000000Y5350000D03*
%TD*%
D22*
%TO.C,R13*%
X11150000Y5040000D03*
X11150000Y6060000D03*
%TD*%
D29*
%TO.C,R2*%
X18736800Y-1100000D03*
X14063200Y-1100000D03*
%TD*%
D24*
%TO.C,R22*%
X8810000Y-6050000D03*
X7790000Y-6050000D03*
%TD*%
%TO.C,R23*%
X2610000Y-6050000D03*
X1590000Y-6050000D03*
%TD*%
D27*
%TO.C,J3*%
X21500000Y-6250000D03*
X21500000Y-7750000D03*
D18*
X23750000Y-6250000D03*
D27*
X24500000Y-6250000D03*
X24500000Y-7750000D03*
D18*
X23000000Y-7000000D03*
X24500000Y-7000000D03*
X22250000Y-6250000D03*
X21500000Y-7000000D03*
X23000000Y-7750000D03*
X22250000Y-7000000D03*
X22250000Y-7750000D03*
X23750000Y-7750000D03*
X23000000Y-6250000D03*
X23750000Y-7000000D03*
%TD*%
D11*
%TO.C,U6*%
X16050000Y-3500000D03*
X16050000Y-4000000D03*
X16050000Y-4500000D03*
X17550000Y-4500000D03*
X17550000Y-4000000D03*
X17550000Y-3500000D03*
%TD*%
D34*
%TO.C,C40*%
X4400000Y-5691000D03*
X4400000Y-2691000D03*
%TD*%
%TO.C,C41*%
X4400000Y2700000D03*
X4400000Y5700000D03*
%TD*%
M02*
