%TF.GenerationSoftware,KiCad,Pcbnew,(6.0.5)*%
%TF.CreationDate,2022-09-11T00:02:45-04:00*%
%TF.ProjectId,GoldESC,476f6c64-4553-4432-9e6b-696361645f70,rev?*%
%TF.SameCoordinates,Original*%
%TF.FileFunction,Legend,Bot*%
%TF.FilePolarity,Positive*%
%FSLAX46Y46*%
G04 Gerber Fmt 4.6, Leading zero omitted, Abs format (unit mm)*
G04 Created by KiCad (PCBNEW (6.0.5)) date 2022-09-11 00:02:45*
%MOMM*%
%LPD*%
G01*
G04 APERTURE LIST*
G04 Aperture macros list*
%AMRoundRect*
0 Rectangle with rounded corners*
0 $1 Rounding radius*
0 $2 $3 $4 $5 $6 $7 $8 $9 X,Y pos of 4 corners*
0 Add a 4 corners polygon primitive as box body*
4,1,4,$2,$3,$4,$5,$6,$7,$8,$9,$2,$3,0*
0 Add four circle primitives for the rounded corners*
1,1,$1+$1,$2,$3*
1,1,$1+$1,$4,$5*
1,1,$1+$1,$6,$7*
1,1,$1+$1,$8,$9*
0 Add four rect primitives between the rounded corners*
20,1,$1+$1,$2,$3,$4,$5,0*
20,1,$1+$1,$4,$5,$6,$7,0*
20,1,$1+$1,$6,$7,$8,$9,0*
20,1,$1+$1,$8,$9,$2,$3,0*%
%AMFreePoly0*
4,1,21,3.024497,2.399497,3.045000,2.350000,3.045000,-2.350000,3.024497,-2.399497,2.975000,-2.420000,1.425000,-2.420000,1.375503,-2.399497,1.355000,-2.350000,1.355000,-2.170000,-1.650000,-2.170000,-1.699497,-2.149497,-1.720000,-2.100000,-1.720000,2.100000,-1.699497,2.149497,-1.650000,2.170000,1.355000,2.170000,1.355000,2.350000,1.375503,2.399497,1.425000,2.420000,2.975000,2.420000,
3.024497,2.399497,3.024497,2.399497,$1*%
G04 Aperture macros list end*
%ADD10C,0.120000*%
%ADD11C,1.200000*%
%ADD12R,1.000000X1.000000*%
%ADD13RoundRect,0.250000X0.250000X-0.250000X0.250000X0.250000X-0.250000X0.250000X-0.250000X-0.250000X0*%
%ADD14RoundRect,0.250000X-0.250000X0.250000X-0.250000X-0.250000X0.250000X-0.250000X0.250000X0.250000X0*%
%ADD15RoundRect,0.250000X0.250000X0.250000X-0.250000X0.250000X-0.250000X-0.250000X0.250000X-0.250000X0*%
%ADD16O,1.000000X1.000000*%
%ADD17RoundRect,0.070000X-0.575000X0.350000X-0.575000X-0.350000X0.575000X-0.350000X0.575000X0.350000X0*%
%ADD18FreePoly0,180.000000*%
%ADD19R,1.300000X1.600000*%
%ADD20RoundRect,0.140000X0.140000X0.170000X-0.140000X0.170000X-0.140000X-0.170000X0.140000X-0.170000X0*%
%ADD21RoundRect,0.135000X-0.135000X-0.185000X0.135000X-0.185000X0.135000X0.185000X-0.135000X0.185000X0*%
%ADD22RoundRect,0.135000X-0.185000X0.135000X-0.185000X-0.135000X0.185000X-0.135000X0.185000X0.135000X0*%
%ADD23RoundRect,0.225000X0.250000X-0.225000X0.250000X0.225000X-0.250000X0.225000X-0.250000X-0.225000X0*%
%ADD24RoundRect,0.150000X0.825000X0.150000X-0.825000X0.150000X-0.825000X-0.150000X0.825000X-0.150000X0*%
%ADD25RoundRect,0.135000X0.135000X0.185000X-0.135000X0.185000X-0.135000X-0.185000X0.135000X-0.185000X0*%
%ADD26RoundRect,0.150000X0.587500X0.150000X-0.587500X0.150000X-0.587500X-0.150000X0.587500X-0.150000X0*%
%ADD27RoundRect,0.135000X0.185000X-0.135000X0.185000X0.135000X-0.185000X0.135000X-0.185000X-0.135000X0*%
%ADD28RoundRect,0.150000X-0.150000X0.512500X-0.150000X-0.512500X0.150000X-0.512500X0.150000X0.512500X0*%
%ADD29RoundRect,0.140000X-0.170000X0.140000X-0.170000X-0.140000X0.170000X-0.140000X0.170000X0.140000X0*%
%ADD30RoundRect,0.140000X-0.140000X-0.170000X0.140000X-0.170000X0.140000X0.170000X-0.140000X0.170000X0*%
%ADD31C,1.400000*%
%ADD32RoundRect,0.250000X0.325000X0.650000X-0.325000X0.650000X-0.325000X-0.650000X0.325000X-0.650000X0*%
%ADD33RoundRect,0.250000X-0.325000X-0.650000X0.325000X-0.650000X0.325000X0.650000X-0.325000X0.650000X0*%
%ADD34RoundRect,0.150000X0.512500X0.150000X-0.512500X0.150000X-0.512500X-0.150000X0.512500X-0.150000X0*%
G04 APERTURE END LIST*
D10*
%TO.C,Q4*%
X18815000Y8300000D02*
X18815000Y8100000D01*
X14515000Y3100000D02*
X14515000Y3250000D01*
X14515000Y8150000D02*
X14515000Y8300000D01*
X14515000Y8300000D02*
X18815000Y8300000D01*
X18815000Y3100000D02*
X14515000Y3100000D01*
X18815000Y3300000D02*
X18815000Y3100000D01*
%TO.C,U81*%
X-12650000Y2650000D02*
X-8950000Y2650000D01*
X-8950000Y2650000D02*
X-8950000Y-2650000D01*
%TO.C,C53*%
X-14192164Y-8360000D02*
X-14407836Y-8360000D01*
X-14192164Y-7640000D02*
X-14407836Y-7640000D01*
%TO.C,Q3*%
X7015000Y-3300000D02*
X11315000Y-3300000D01*
X7015000Y-8500000D02*
X7015000Y-8350000D01*
X11315000Y-8300000D02*
X11315000Y-8500000D01*
X11315000Y-3300000D02*
X11315000Y-3500000D01*
X7015000Y-3450000D02*
X7015000Y-3300000D01*
X11315000Y-8500000D02*
X7015000Y-8500000D01*
%TO.C,Q1*%
X7015000Y8300000D02*
X11315000Y8300000D01*
X11315000Y3100000D02*
X7015000Y3100000D01*
X7015000Y3100000D02*
X7015000Y3250000D01*
X11315000Y3300000D02*
X11315000Y3100000D01*
X11315000Y8300000D02*
X11315000Y8100000D01*
X7015000Y8150000D02*
X7015000Y8300000D01*
%TO.C,R61*%
X-17803641Y-7770000D02*
X-17496359Y-7770000D01*
X-17803641Y-8530000D02*
X-17496359Y-8530000D01*
%TO.C,R41*%
X5180000Y203641D02*
X5180000Y-103641D01*
X4420000Y203641D02*
X4420000Y-103641D01*
%TO.C,C60*%
X-18667000Y-7390580D02*
X-18667000Y-7109420D01*
X-19687000Y-7390580D02*
X-19687000Y-7109420D01*
%TO.C,U30*%
X-12400000Y8660000D02*
X-14350000Y8660000D01*
X-12400000Y3540000D02*
X-14350000Y3540000D01*
X-12400000Y8660000D02*
X-8950000Y8660000D01*
X-12400000Y3540000D02*
X-10450000Y3540000D01*
%TO.C,R85*%
X-9646359Y-8130000D02*
X-9953641Y-8130000D01*
X-9646359Y-7370000D02*
X-9953641Y-7370000D01*
%TO.C,U31*%
X-18100000Y5340000D02*
X-17450000Y5340000D01*
X-18100000Y5340000D02*
X-18750000Y5340000D01*
X-18100000Y8460000D02*
X-16425000Y8460000D01*
X-18100000Y8460000D02*
X-18750000Y8460000D01*
%TO.C,Q2*%
X7015000Y-2700000D02*
X7015000Y-2550000D01*
X7015000Y2500000D02*
X11315000Y2500000D01*
X11315000Y2500000D02*
X11315000Y2300000D01*
X7015000Y2350000D02*
X7015000Y2500000D01*
X11315000Y-2500000D02*
X11315000Y-2700000D01*
X11315000Y-2700000D02*
X7015000Y-2700000D01*
%TO.C,R30*%
X-6620000Y-153641D02*
X-6620000Y153641D01*
X-7380000Y-153641D02*
X-7380000Y153641D01*
%TO.C,R60*%
X-17523359Y-7680000D02*
X-17830641Y-7680000D01*
X-17523359Y-6920000D02*
X-17830641Y-6920000D01*
%TO.C,U50*%
X-14960000Y-5600000D02*
X-14960000Y-6400000D01*
X-11840000Y-5600000D02*
X-11840000Y-4800000D01*
X-14960000Y-5600000D02*
X-14960000Y-3800000D01*
X-11840000Y-5600000D02*
X-11840000Y-6400000D01*
%TO.C,C80*%
X-7840000Y107836D02*
X-7840000Y-107836D01*
X-8560000Y107836D02*
X-8560000Y-107836D01*
%TO.C,Q5*%
X18815000Y-2700000D02*
X14515000Y-2700000D01*
X18815000Y2500000D02*
X18815000Y2300000D01*
X14515000Y-2700000D02*
X14515000Y-2550000D01*
X18815000Y-2500000D02*
X18815000Y-2700000D01*
X14515000Y2350000D02*
X14515000Y2500000D01*
X14515000Y2500000D02*
X18815000Y2500000D01*
%TO.C,C52*%
X-12607836Y-8360000D02*
X-12392164Y-8360000D01*
X-12607836Y-7640000D02*
X-12392164Y-7640000D01*
%TO.C,C40*%
X3400000Y-6691000D02*
X3400000Y-7691000D01*
X3900000Y-7191000D02*
X2900000Y-7191000D01*
X4400000Y-91000D02*
X-8800000Y-91000D01*
X-8800000Y-91000D02*
X-8800000Y-8291000D01*
X-8800000Y-8291000D02*
X4400000Y-8291000D01*
X4400000Y-8291000D02*
X4400000Y-91000D01*
%TO.C,C1*%
X3711252Y6690000D02*
X2288748Y6690000D01*
X3711252Y8510000D02*
X2288748Y8510000D01*
%TO.C,C3*%
X2288748Y-6690000D02*
X3711252Y-6690000D01*
X2288748Y-8510000D02*
X3711252Y-8510000D01*
%TO.C,R80*%
X-4720000Y153641D02*
X-4720000Y-153641D01*
X-5480000Y153641D02*
X-5480000Y-153641D01*
%TO.C,C62*%
X-17784836Y-6040000D02*
X-17569164Y-6040000D01*
X-17784836Y-6760000D02*
X-17569164Y-6760000D01*
%TO.C,C2*%
X1811252Y-910000D02*
X388748Y-910000D01*
X1811252Y910000D02*
X388748Y910000D01*
%TO.C,C63*%
X-16984836Y-2560000D02*
X-16769164Y-2560000D01*
X-16984836Y-1840000D02*
X-16769164Y-1840000D01*
%TO.C,R31*%
X-5670000Y153641D02*
X-5670000Y-153641D01*
X-6430000Y153641D02*
X-6430000Y-153641D01*
%TO.C,Q6*%
X18815000Y-3300000D02*
X18815000Y-3500000D01*
X14515000Y-8500000D02*
X14515000Y-8350000D01*
X18815000Y-8300000D02*
X18815000Y-8500000D01*
X14515000Y-3300000D02*
X18815000Y-3300000D01*
X18815000Y-8500000D02*
X14515000Y-8500000D01*
X14515000Y-3450000D02*
X14515000Y-3300000D01*
%TO.C,U60*%
X-17877000Y-5960000D02*
X-17077000Y-5960000D01*
X-17877000Y-5960000D02*
X-18677000Y-5960000D01*
X-17877000Y-2840000D02*
X-18677000Y-2840000D01*
X-17877000Y-2840000D02*
X-16077000Y-2840000D01*
%TO.C,C41*%
X3900000Y1200000D02*
X2900000Y1200000D01*
X3400000Y1700000D02*
X3400000Y700000D01*
X4400000Y8300000D02*
X-8800000Y8300000D01*
X-8800000Y8300000D02*
X-8800000Y100000D01*
X-8800000Y100000D02*
X4400000Y100000D01*
X4400000Y100000D02*
X4400000Y8300000D01*
%TO.C,C61*%
X-18984836Y-1840000D02*
X-18769164Y-1840000D01*
X-18984836Y-2560000D02*
X-18769164Y-2560000D01*
%TO.C,R84*%
X-9646359Y-6470000D02*
X-9953641Y-6470000D01*
X-9646359Y-7230000D02*
X-9953641Y-7230000D01*
%TO.C,R40*%
X3420000Y-103641D02*
X3420000Y203641D01*
X4180000Y-103641D02*
X4180000Y203641D01*
%TD*%
%LPC*%
D11*
%TO.C,TP80*%
X-7350000Y6250000D03*
%TD*%
%TO.C,TP83*%
X-12350000Y7700000D03*
%TD*%
%TO.C,TP81*%
X-6550000Y7700000D03*
%TD*%
D12*
%TO.C,J1*%
X23750000Y7000000D03*
D13*
X21500000Y6250000D03*
D12*
X22250000Y7750000D03*
X22250000Y7000000D03*
X23000000Y7750000D03*
X22250000Y6250000D03*
X24500000Y7000000D03*
X23750000Y6250000D03*
D13*
X24500000Y6250000D03*
D12*
X23750000Y7750000D03*
X23000000Y7000000D03*
X23000000Y6250000D03*
D13*
X21500000Y7750000D03*
D12*
X21500000Y7000000D03*
D13*
X24500000Y7750000D03*
%TD*%
D12*
%TO.C,J40*%
X-1250000Y-7000000D03*
X-500000Y-7000000D03*
X-1250000Y-6250000D03*
X-2000000Y-6250000D03*
X-2750000Y-7750000D03*
X-2000000Y-7000000D03*
X-2000000Y-7750000D03*
X-1250000Y-7750000D03*
X-2750000Y-6250000D03*
D14*
X-500000Y-6250000D03*
X-500000Y-7750000D03*
X-3500000Y-7750000D03*
X-3500000Y-6250000D03*
D12*
X-2750000Y-7000000D03*
X-3500000Y-7000000D03*
%TD*%
D11*
%TO.C,TP84*%
X-8100000Y7700000D03*
%TD*%
D12*
%TO.C,J2*%
X22950000Y750000D03*
X22200000Y750000D03*
X23700000Y0D03*
X23700000Y-750000D03*
D13*
X21450000Y750000D03*
D12*
X24450000Y0D03*
D13*
X21450000Y-750000D03*
D12*
X22950000Y-750000D03*
X22200000Y-750000D03*
X22200000Y0D03*
X22950000Y0D03*
D13*
X24450000Y-750000D03*
X24450000Y750000D03*
D12*
X21450000Y0D03*
X23700000Y750000D03*
%TD*%
D11*
%TO.C,TP82*%
X-5000000Y7700000D03*
%TD*%
D15*
%TO.C,J30*%
X-17450000Y4400000D03*
X-18950000Y3650000D03*
D12*
X-18200000Y3650000D03*
D15*
X-18950000Y4400000D03*
X-17450000Y3650000D03*
D12*
X-18200000Y4400000D03*
D15*
X-17450000Y2150000D03*
D12*
X-18200000Y1400000D03*
D15*
X-18950000Y2150000D03*
D12*
X-18200000Y2150000D03*
D15*
X-18950000Y1400000D03*
X-17450000Y1400000D03*
%TD*%
D12*
%TO.C,J81*%
X-13765000Y-2540000D03*
D16*
X-15035000Y-2540000D03*
X-13765000Y-1270000D03*
X-15035000Y-1270000D03*
X-13765000Y0D03*
X-15035000Y0D03*
X-13765000Y1270000D03*
X-15035000Y1270000D03*
X-13765000Y2540000D03*
X-15035000Y2540000D03*
%TD*%
D14*
%TO.C,J41*%
X-500000Y6250000D03*
D12*
X-3500000Y7000000D03*
X-2750000Y6250000D03*
X-1250000Y7000000D03*
D14*
X-500000Y7750000D03*
D12*
X-2750000Y7750000D03*
X-2000000Y7750000D03*
D14*
X-3500000Y7750000D03*
D12*
X-2000000Y6250000D03*
X-2000000Y7000000D03*
X-2750000Y7000000D03*
X-1250000Y7750000D03*
X-1250000Y6250000D03*
X-500000Y7000000D03*
D14*
X-3500000Y6250000D03*
%TD*%
D12*
%TO.C,J4*%
X22250000Y-4250000D03*
D14*
X24500000Y-2750000D03*
D12*
X23750000Y-2750000D03*
D14*
X21500000Y-4250000D03*
D12*
X21500000Y-3500000D03*
X23000000Y-4250000D03*
X23750000Y-3500000D03*
X22250000Y-3500000D03*
X23000000Y-2750000D03*
X24500000Y-3500000D03*
X23750000Y-4250000D03*
X22250000Y-2750000D03*
D14*
X24500000Y-4250000D03*
X21500000Y-2750000D03*
D12*
X23000000Y-3500000D03*
%TD*%
D13*
%TO.C,J3*%
X21500000Y-6250000D03*
X21500000Y-7750000D03*
D12*
X23750000Y-6250000D03*
D13*
X24500000Y-6250000D03*
X24500000Y-7750000D03*
D12*
X23000000Y-7000000D03*
X24500000Y-7000000D03*
X22250000Y-6250000D03*
X21500000Y-7000000D03*
X23000000Y-7750000D03*
X22250000Y-7000000D03*
X22250000Y-7750000D03*
X23750000Y-7750000D03*
X23000000Y-6250000D03*
X23750000Y-7000000D03*
%TD*%
D17*
%TO.C,Q4*%
X19335000Y7610000D03*
X19335000Y6340000D03*
X19335000Y5060000D03*
X19335000Y3790000D03*
D18*
X16065000Y5700000D03*
%TD*%
D19*
%TO.C,U81*%
X-9800000Y1650000D03*
X-9800000Y-1650000D03*
X-11800000Y-1650000D03*
X-11800000Y1650000D03*
%TD*%
D20*
%TO.C,C53*%
X-13820000Y-8000000D03*
X-14780000Y-8000000D03*
%TD*%
D17*
%TO.C,Q3*%
X11835000Y-3990000D03*
X11835000Y-5260000D03*
X11835000Y-6540000D03*
X11835000Y-7810000D03*
D18*
X8565000Y-5900000D03*
%TD*%
D17*
%TO.C,Q1*%
X11835000Y7610000D03*
X11835000Y6340000D03*
X11835000Y5060000D03*
X11835000Y3790000D03*
D18*
X8565000Y5700000D03*
%TD*%
D21*
%TO.C,R61*%
X-18160000Y-8150000D03*
X-17140000Y-8150000D03*
%TD*%
D22*
%TO.C,R41*%
X4800000Y560000D03*
X4800000Y-460000D03*
%TD*%
D23*
%TO.C,C60*%
X-19177000Y-8025000D03*
X-19177000Y-6475000D03*
%TD*%
D24*
%TO.C,U30*%
X-9925000Y8005000D03*
X-9925000Y6735000D03*
X-9925000Y5465000D03*
X-9925000Y4195000D03*
X-14875000Y4195000D03*
X-14875000Y5465000D03*
X-14875000Y6735000D03*
X-14875000Y8005000D03*
%TD*%
D25*
%TO.C,R85*%
X-9290000Y-7750000D03*
X-10310000Y-7750000D03*
%TD*%
D26*
%TO.C,U31*%
X-17162500Y7850000D03*
X-17162500Y5950000D03*
X-19037500Y6900000D03*
%TD*%
D17*
%TO.C,Q2*%
X11835000Y1810000D03*
X11835000Y540000D03*
X11835000Y-740000D03*
X11835000Y-2010000D03*
D18*
X8565000Y-100000D03*
%TD*%
D27*
%TO.C,R30*%
X-7000000Y-510000D03*
X-7000000Y510000D03*
%TD*%
D25*
%TO.C,R60*%
X-17167000Y-7300000D03*
X-18187000Y-7300000D03*
%TD*%
D28*
%TO.C,U50*%
X-14350000Y-4462500D03*
X-13400000Y-4462500D03*
X-12450000Y-4462500D03*
X-12450000Y-6737500D03*
X-14350000Y-6737500D03*
%TD*%
D29*
%TO.C,C80*%
X-8200000Y480000D03*
X-8200000Y-480000D03*
%TD*%
D17*
%TO.C,Q5*%
X19335000Y1810000D03*
X19335000Y540000D03*
X19335000Y-740000D03*
X19335000Y-2010000D03*
D18*
X16065000Y-100000D03*
%TD*%
D30*
%TO.C,C52*%
X-12980000Y-8000000D03*
X-12020000Y-8000000D03*
%TD*%
D31*
%TO.C,C40*%
X4400000Y-5691000D03*
X4400000Y-2691000D03*
%TD*%
D32*
%TO.C,C1*%
X4475000Y7600000D03*
X1525000Y7600000D03*
%TD*%
D33*
%TO.C,C3*%
X1525000Y-7600000D03*
X4475000Y-7600000D03*
%TD*%
D22*
%TO.C,R80*%
X-5100000Y510000D03*
X-5100000Y-510000D03*
%TD*%
D30*
%TO.C,C62*%
X-18157000Y-6400000D03*
X-17197000Y-6400000D03*
%TD*%
D32*
%TO.C,C2*%
X2575000Y0D03*
X-375000Y0D03*
%TD*%
D30*
%TO.C,C63*%
X-17357000Y-2200000D03*
X-16397000Y-2200000D03*
%TD*%
D22*
%TO.C,R31*%
X-6050000Y510000D03*
X-6050000Y-510000D03*
%TD*%
D17*
%TO.C,Q6*%
X19335000Y-3990000D03*
X19335000Y-5260000D03*
X19335000Y-6540000D03*
X19335000Y-7810000D03*
D18*
X16065000Y-5900000D03*
%TD*%
D34*
%TO.C,U60*%
X-16739500Y-3450000D03*
X-16739500Y-4400000D03*
X-16739500Y-5350000D03*
X-19014500Y-5350000D03*
X-19014500Y-4400000D03*
X-19014500Y-3450000D03*
%TD*%
D31*
%TO.C,C41*%
X4400000Y2700000D03*
X4400000Y5700000D03*
%TD*%
D30*
%TO.C,C61*%
X-19357000Y-2200000D03*
X-18397000Y-2200000D03*
%TD*%
D25*
%TO.C,R84*%
X-9290000Y-6850000D03*
X-10310000Y-6850000D03*
%TD*%
D27*
%TO.C,R40*%
X3800000Y-460000D03*
X3800000Y560000D03*
%TD*%
M02*
