%TF.GenerationSoftware,KiCad,Pcbnew,(6.0.5)*%
%TF.CreationDate,2022-09-11T00:02:45-04:00*%
%TF.ProjectId,GoldESC,476f6c64-4553-4432-9e6b-696361645f70,rev?*%
%TF.SameCoordinates,Original*%
%TF.FileFunction,Soldermask,Bot*%
%TF.FilePolarity,Negative*%
%FSLAX46Y46*%
G04 Gerber Fmt 4.6, Leading zero omitted, Abs format (unit mm)*
G04 Created by KiCad (PCBNEW (6.0.5)) date 2022-09-11 00:02:45*
%MOMM*%
%LPD*%
G01*
G04 APERTURE LIST*
G04 Aperture macros list*
%AMRoundRect*
0 Rectangle with rounded corners*
0 $1 Rounding radius*
0 $2 $3 $4 $5 $6 $7 $8 $9 X,Y pos of 4 corners*
0 Add a 4 corners polygon primitive as box body*
4,1,4,$2,$3,$4,$5,$6,$7,$8,$9,$2,$3,0*
0 Add four circle primitives for the rounded corners*
1,1,$1+$1,$2,$3*
1,1,$1+$1,$4,$5*
1,1,$1+$1,$6,$7*
1,1,$1+$1,$8,$9*
0 Add four rect primitives between the rounded corners*
20,1,$1+$1,$2,$3,$4,$5,0*
20,1,$1+$1,$4,$5,$6,$7,0*
20,1,$1+$1,$6,$7,$8,$9,0*
20,1,$1+$1,$8,$9,$2,$3,0*%
%AMFreePoly0*
4,1,21,3.024497,2.399497,3.045000,2.350000,3.045000,-2.350000,3.024497,-2.399497,2.975000,-2.420000,1.425000,-2.420000,1.375503,-2.399497,1.355000,-2.350000,1.355000,-2.170000,-1.650000,-2.170000,-1.699497,-2.149497,-1.720000,-2.100000,-1.720000,2.100000,-1.699497,2.149497,-1.650000,2.170000,1.355000,2.170000,1.355000,2.350000,1.375503,2.399497,1.425000,2.420000,2.975000,2.420000,
3.024497,2.399497,3.024497,2.399497,$1*%
G04 Aperture macros list end*
%ADD10C,1.200000*%
%ADD11R,1.000000X1.000000*%
%ADD12RoundRect,0.250000X0.250000X-0.250000X0.250000X0.250000X-0.250000X0.250000X-0.250000X-0.250000X0*%
%ADD13RoundRect,0.250000X-0.250000X0.250000X-0.250000X-0.250000X0.250000X-0.250000X0.250000X0.250000X0*%
%ADD14RoundRect,0.250000X0.250000X0.250000X-0.250000X0.250000X-0.250000X-0.250000X0.250000X-0.250000X0*%
%ADD15O,1.000000X1.000000*%
%ADD16RoundRect,0.070000X-0.575000X0.350000X-0.575000X-0.350000X0.575000X-0.350000X0.575000X0.350000X0*%
%ADD17FreePoly0,180.000000*%
%ADD18R,1.300000X1.600000*%
%ADD19RoundRect,0.140000X0.140000X0.170000X-0.140000X0.170000X-0.140000X-0.170000X0.140000X-0.170000X0*%
%ADD20RoundRect,0.135000X-0.135000X-0.185000X0.135000X-0.185000X0.135000X0.185000X-0.135000X0.185000X0*%
%ADD21RoundRect,0.135000X-0.185000X0.135000X-0.185000X-0.135000X0.185000X-0.135000X0.185000X0.135000X0*%
%ADD22RoundRect,0.225000X0.250000X-0.225000X0.250000X0.225000X-0.250000X0.225000X-0.250000X-0.225000X0*%
%ADD23RoundRect,0.150000X0.825000X0.150000X-0.825000X0.150000X-0.825000X-0.150000X0.825000X-0.150000X0*%
%ADD24RoundRect,0.135000X0.135000X0.185000X-0.135000X0.185000X-0.135000X-0.185000X0.135000X-0.185000X0*%
%ADD25RoundRect,0.150000X0.587500X0.150000X-0.587500X0.150000X-0.587500X-0.150000X0.587500X-0.150000X0*%
%ADD26RoundRect,0.135000X0.185000X-0.135000X0.185000X0.135000X-0.185000X0.135000X-0.185000X-0.135000X0*%
%ADD27RoundRect,0.150000X-0.150000X0.512500X-0.150000X-0.512500X0.150000X-0.512500X0.150000X0.512500X0*%
%ADD28RoundRect,0.140000X-0.170000X0.140000X-0.170000X-0.140000X0.170000X-0.140000X0.170000X0.140000X0*%
%ADD29RoundRect,0.140000X-0.140000X-0.170000X0.140000X-0.170000X0.140000X0.170000X-0.140000X0.170000X0*%
%ADD30C,1.400000*%
%ADD31RoundRect,0.250000X0.325000X0.650000X-0.325000X0.650000X-0.325000X-0.650000X0.325000X-0.650000X0*%
%ADD32RoundRect,0.250000X-0.325000X-0.650000X0.325000X-0.650000X0.325000X0.650000X-0.325000X0.650000X0*%
%ADD33RoundRect,0.150000X0.512500X0.150000X-0.512500X0.150000X-0.512500X-0.150000X0.512500X-0.150000X0*%
G04 APERTURE END LIST*
D10*
%TO.C,TP80*%
X-7350000Y6250000D03*
%TD*%
%TO.C,TP83*%
X-12350000Y7700000D03*
%TD*%
%TO.C,TP81*%
X-6550000Y7700000D03*
%TD*%
D11*
%TO.C,J1*%
X23750000Y7000000D03*
D12*
X21500000Y6250000D03*
D11*
X22250000Y7750000D03*
X22250000Y7000000D03*
X23000000Y7750000D03*
X22250000Y6250000D03*
X24500000Y7000000D03*
X23750000Y6250000D03*
D12*
X24500000Y6250000D03*
D11*
X23750000Y7750000D03*
X23000000Y7000000D03*
X23000000Y6250000D03*
D12*
X21500000Y7750000D03*
D11*
X21500000Y7000000D03*
D12*
X24500000Y7750000D03*
%TD*%
D11*
%TO.C,J40*%
X-1250000Y-7000000D03*
X-500000Y-7000000D03*
X-1250000Y-6250000D03*
X-2000000Y-6250000D03*
X-2750000Y-7750000D03*
X-2000000Y-7000000D03*
X-2000000Y-7750000D03*
X-1250000Y-7750000D03*
X-2750000Y-6250000D03*
D13*
X-500000Y-6250000D03*
X-500000Y-7750000D03*
X-3500000Y-7750000D03*
X-3500000Y-6250000D03*
D11*
X-2750000Y-7000000D03*
X-3500000Y-7000000D03*
%TD*%
D10*
%TO.C,TP84*%
X-8100000Y7700000D03*
%TD*%
D11*
%TO.C,J2*%
X22950000Y750000D03*
X22200000Y750000D03*
X23700000Y0D03*
X23700000Y-750000D03*
D12*
X21450000Y750000D03*
D11*
X24450000Y0D03*
D12*
X21450000Y-750000D03*
D11*
X22950000Y-750000D03*
X22200000Y-750000D03*
X22200000Y0D03*
X22950000Y0D03*
D12*
X24450000Y-750000D03*
X24450000Y750000D03*
D11*
X21450000Y0D03*
X23700000Y750000D03*
%TD*%
D10*
%TO.C,TP82*%
X-5000000Y7700000D03*
%TD*%
D14*
%TO.C,J30*%
X-17450000Y4400000D03*
X-18950000Y3650000D03*
D11*
X-18200000Y3650000D03*
D14*
X-18950000Y4400000D03*
X-17450000Y3650000D03*
D11*
X-18200000Y4400000D03*
D14*
X-17450000Y2150000D03*
D11*
X-18200000Y1400000D03*
D14*
X-18950000Y2150000D03*
D11*
X-18200000Y2150000D03*
D14*
X-18950000Y1400000D03*
X-17450000Y1400000D03*
%TD*%
D11*
%TO.C,J81*%
X-13765000Y-2540000D03*
D15*
X-15035000Y-2540000D03*
X-13765000Y-1270000D03*
X-15035000Y-1270000D03*
X-13765000Y0D03*
X-15035000Y0D03*
X-13765000Y1270000D03*
X-15035000Y1270000D03*
X-13765000Y2540000D03*
X-15035000Y2540000D03*
%TD*%
D13*
%TO.C,J41*%
X-500000Y6250000D03*
D11*
X-3500000Y7000000D03*
X-2750000Y6250000D03*
X-1250000Y7000000D03*
D13*
X-500000Y7750000D03*
D11*
X-2750000Y7750000D03*
X-2000000Y7750000D03*
D13*
X-3500000Y7750000D03*
D11*
X-2000000Y6250000D03*
X-2000000Y7000000D03*
X-2750000Y7000000D03*
X-1250000Y7750000D03*
X-1250000Y6250000D03*
X-500000Y7000000D03*
D13*
X-3500000Y6250000D03*
%TD*%
D11*
%TO.C,J4*%
X22250000Y-4250000D03*
D13*
X24500000Y-2750000D03*
D11*
X23750000Y-2750000D03*
D13*
X21500000Y-4250000D03*
D11*
X21500000Y-3500000D03*
X23000000Y-4250000D03*
X23750000Y-3500000D03*
X22250000Y-3500000D03*
X23000000Y-2750000D03*
X24500000Y-3500000D03*
X23750000Y-4250000D03*
X22250000Y-2750000D03*
D13*
X24500000Y-4250000D03*
X21500000Y-2750000D03*
D11*
X23000000Y-3500000D03*
%TD*%
D12*
%TO.C,J3*%
X21500000Y-6250000D03*
X21500000Y-7750000D03*
D11*
X23750000Y-6250000D03*
D12*
X24500000Y-6250000D03*
X24500000Y-7750000D03*
D11*
X23000000Y-7000000D03*
X24500000Y-7000000D03*
X22250000Y-6250000D03*
X21500000Y-7000000D03*
X23000000Y-7750000D03*
X22250000Y-7000000D03*
X22250000Y-7750000D03*
X23750000Y-7750000D03*
X23000000Y-6250000D03*
X23750000Y-7000000D03*
%TD*%
D16*
%TO.C,Q4*%
X19335000Y7610000D03*
X19335000Y6340000D03*
X19335000Y5060000D03*
X19335000Y3790000D03*
D17*
X16065000Y5700000D03*
%TD*%
D18*
%TO.C,U81*%
X-9800000Y1650000D03*
X-9800000Y-1650000D03*
X-11800000Y-1650000D03*
X-11800000Y1650000D03*
%TD*%
D19*
%TO.C,C53*%
X-13820000Y-8000000D03*
X-14780000Y-8000000D03*
%TD*%
D16*
%TO.C,Q3*%
X11835000Y-3990000D03*
X11835000Y-5260000D03*
X11835000Y-6540000D03*
X11835000Y-7810000D03*
D17*
X8565000Y-5900000D03*
%TD*%
D16*
%TO.C,Q1*%
X11835000Y7610000D03*
X11835000Y6340000D03*
X11835000Y5060000D03*
X11835000Y3790000D03*
D17*
X8565000Y5700000D03*
%TD*%
D20*
%TO.C,R61*%
X-18160000Y-8150000D03*
X-17140000Y-8150000D03*
%TD*%
D21*
%TO.C,R41*%
X4800000Y560000D03*
X4800000Y-460000D03*
%TD*%
D22*
%TO.C,C60*%
X-19177000Y-8025000D03*
X-19177000Y-6475000D03*
%TD*%
D23*
%TO.C,U30*%
X-9925000Y8005000D03*
X-9925000Y6735000D03*
X-9925000Y5465000D03*
X-9925000Y4195000D03*
X-14875000Y4195000D03*
X-14875000Y5465000D03*
X-14875000Y6735000D03*
X-14875000Y8005000D03*
%TD*%
D24*
%TO.C,R85*%
X-9290000Y-7750000D03*
X-10310000Y-7750000D03*
%TD*%
D25*
%TO.C,U31*%
X-17162500Y7850000D03*
X-17162500Y5950000D03*
X-19037500Y6900000D03*
%TD*%
D16*
%TO.C,Q2*%
X11835000Y1810000D03*
X11835000Y540000D03*
X11835000Y-740000D03*
X11835000Y-2010000D03*
D17*
X8565000Y-100000D03*
%TD*%
D26*
%TO.C,R30*%
X-7000000Y-510000D03*
X-7000000Y510000D03*
%TD*%
D24*
%TO.C,R60*%
X-17167000Y-7300000D03*
X-18187000Y-7300000D03*
%TD*%
D27*
%TO.C,U50*%
X-14350000Y-4462500D03*
X-13400000Y-4462500D03*
X-12450000Y-4462500D03*
X-12450000Y-6737500D03*
X-14350000Y-6737500D03*
%TD*%
D28*
%TO.C,C80*%
X-8200000Y480000D03*
X-8200000Y-480000D03*
%TD*%
D16*
%TO.C,Q5*%
X19335000Y1810000D03*
X19335000Y540000D03*
X19335000Y-740000D03*
X19335000Y-2010000D03*
D17*
X16065000Y-100000D03*
%TD*%
D29*
%TO.C,C52*%
X-12980000Y-8000000D03*
X-12020000Y-8000000D03*
%TD*%
D30*
%TO.C,C40*%
X4400000Y-5691000D03*
X4400000Y-2691000D03*
%TD*%
D31*
%TO.C,C1*%
X4475000Y7600000D03*
X1525000Y7600000D03*
%TD*%
D32*
%TO.C,C3*%
X1525000Y-7600000D03*
X4475000Y-7600000D03*
%TD*%
D21*
%TO.C,R80*%
X-5100000Y510000D03*
X-5100000Y-510000D03*
%TD*%
D29*
%TO.C,C62*%
X-18157000Y-6400000D03*
X-17197000Y-6400000D03*
%TD*%
D31*
%TO.C,C2*%
X2575000Y0D03*
X-375000Y0D03*
%TD*%
D29*
%TO.C,C63*%
X-17357000Y-2200000D03*
X-16397000Y-2200000D03*
%TD*%
D21*
%TO.C,R31*%
X-6050000Y510000D03*
X-6050000Y-510000D03*
%TD*%
D16*
%TO.C,Q6*%
X19335000Y-3990000D03*
X19335000Y-5260000D03*
X19335000Y-6540000D03*
X19335000Y-7810000D03*
D17*
X16065000Y-5900000D03*
%TD*%
D33*
%TO.C,U60*%
X-16739500Y-3450000D03*
X-16739500Y-4400000D03*
X-16739500Y-5350000D03*
X-19014500Y-5350000D03*
X-19014500Y-4400000D03*
X-19014500Y-3450000D03*
%TD*%
D30*
%TO.C,C41*%
X4400000Y2700000D03*
X4400000Y5700000D03*
%TD*%
D29*
%TO.C,C61*%
X-19357000Y-2200000D03*
X-18397000Y-2200000D03*
%TD*%
D24*
%TO.C,R84*%
X-9290000Y-6850000D03*
X-10310000Y-6850000D03*
%TD*%
D26*
%TO.C,R40*%
X3800000Y-460000D03*
X3800000Y560000D03*
%TD*%
M02*
