%TF.GenerationSoftware,KiCad,Pcbnew,(6.0.5)*%
%TF.CreationDate,2022-09-11T00:02:45-04:00*%
%TF.ProjectId,GoldESC,476f6c64-4553-4432-9e6b-696361645f70,rev?*%
%TF.SameCoordinates,Original*%
%TF.FileFunction,Copper,L3,Inr*%
%TF.FilePolarity,Positive*%
%FSLAX46Y46*%
G04 Gerber Fmt 4.6, Leading zero omitted, Abs format (unit mm)*
G04 Created by KiCad (PCBNEW (6.0.5)) date 2022-09-11 00:02:45*
%MOMM*%
%LPD*%
G01*
G04 APERTURE LIST*
G04 Aperture macros list*
%AMRoundRect*
0 Rectangle with rounded corners*
0 $1 Rounding radius*
0 $2 $3 $4 $5 $6 $7 $8 $9 X,Y pos of 4 corners*
0 Add a 4 corners polygon primitive as box body*
4,1,4,$2,$3,$4,$5,$6,$7,$8,$9,$2,$3,0*
0 Add four circle primitives for the rounded corners*
1,1,$1+$1,$2,$3*
1,1,$1+$1,$4,$5*
1,1,$1+$1,$6,$7*
1,1,$1+$1,$8,$9*
0 Add four rect primitives between the rounded corners*
20,1,$1+$1,$2,$3,$4,$5,0*
20,1,$1+$1,$4,$5,$6,$7,0*
20,1,$1+$1,$6,$7,$8,$9,0*
20,1,$1+$1,$8,$9,$2,$3,0*%
G04 Aperture macros list end*
%TA.AperFunction,ComponentPad*%
%ADD10C,1.200000*%
%TD*%
%TA.AperFunction,ComponentPad*%
%ADD11R,1.000000X1.000000*%
%TD*%
%TA.AperFunction,ComponentPad*%
%ADD12RoundRect,0.250000X0.250000X-0.250000X0.250000X0.250000X-0.250000X0.250000X-0.250000X-0.250000X0*%
%TD*%
%TA.AperFunction,ComponentPad*%
%ADD13RoundRect,0.250000X-0.250000X0.250000X-0.250000X-0.250000X0.250000X-0.250000X0.250000X0.250000X0*%
%TD*%
%TA.AperFunction,ComponentPad*%
%ADD14RoundRect,0.250000X0.250000X0.250000X-0.250000X0.250000X-0.250000X-0.250000X0.250000X-0.250000X0*%
%TD*%
%TA.AperFunction,ComponentPad*%
%ADD15O,1.000000X1.000000*%
%TD*%
%TA.AperFunction,ComponentPad*%
%ADD16C,1.400000*%
%TD*%
%TA.AperFunction,ViaPad*%
%ADD17C,0.400000*%
%TD*%
%TA.AperFunction,Conductor*%
%ADD18C,0.101600*%
%TD*%
%TA.AperFunction,Conductor*%
%ADD19C,0.500000*%
%TD*%
%TA.AperFunction,Conductor*%
%ADD20C,0.250000*%
%TD*%
G04 APERTURE END LIST*
D10*
%TO.N,Net-(R80-Pad1)*%
%TO.C,TP80*%
X-7350000Y6250000D03*
%TD*%
%TO.N,+3V3*%
%TO.C,TP83*%
X-12350000Y7700000D03*
%TD*%
%TO.N,SWCLK*%
%TO.C,TP81*%
X-6550000Y7700000D03*
%TD*%
D11*
%TO.N,Net-(J1-Pad1)*%
%TO.C,J1*%
X23750000Y7000000D03*
D12*
X21500000Y6250000D03*
D11*
X22250000Y7750000D03*
X22250000Y7000000D03*
X23000000Y7750000D03*
X22250000Y6250000D03*
X24500000Y7000000D03*
X23750000Y6250000D03*
D12*
X24500000Y6250000D03*
D11*
X23750000Y7750000D03*
X23000000Y7000000D03*
X23000000Y6250000D03*
D12*
X21500000Y7750000D03*
D11*
X21500000Y7000000D03*
D12*
X24500000Y7750000D03*
%TD*%
D11*
%TO.N,VDD*%
%TO.C,J40*%
X-1250000Y-7000000D03*
X-500000Y-7000000D03*
X-1250000Y-6250000D03*
X-2000000Y-6250000D03*
X-2750000Y-7750000D03*
X-2000000Y-7000000D03*
X-2000000Y-7750000D03*
X-1250000Y-7750000D03*
X-2750000Y-6250000D03*
D13*
X-500000Y-6250000D03*
X-500000Y-7750000D03*
X-3500000Y-7750000D03*
X-3500000Y-6250000D03*
D11*
X-2750000Y-7000000D03*
X-3500000Y-7000000D03*
%TD*%
D10*
%TO.N,GND*%
%TO.C,TP84*%
X-8100000Y7700000D03*
%TD*%
D11*
%TO.N,Net-(J2-Pad1)*%
%TO.C,J2*%
X22950000Y750000D03*
X22200000Y750000D03*
X23700000Y0D03*
X23700000Y-750000D03*
D12*
X21450000Y750000D03*
D11*
X24450000Y0D03*
D12*
X21450000Y-750000D03*
D11*
X22950000Y-750000D03*
X22200000Y-750000D03*
X22200000Y0D03*
X22950000Y0D03*
D12*
X24450000Y-750000D03*
X24450000Y750000D03*
D11*
X21450000Y0D03*
X23700000Y750000D03*
%TD*%
D10*
%TO.N,SWDIO*%
%TO.C,TP82*%
X-5000000Y7700000D03*
%TD*%
D14*
%TO.N,CAN_L*%
%TO.C,J30*%
X-17450000Y4400000D03*
X-18950000Y3650000D03*
D11*
X-18200000Y3650000D03*
D14*
X-18950000Y4400000D03*
X-17450000Y3650000D03*
D11*
X-18200000Y4400000D03*
D14*
%TO.N,CAN_H*%
X-17450000Y2150000D03*
D11*
X-18200000Y1400000D03*
D14*
X-18950000Y2150000D03*
D11*
X-18200000Y2150000D03*
D14*
X-18950000Y1400000D03*
X-17450000Y1400000D03*
%TD*%
D11*
%TO.N,+3V3*%
%TO.C,J81*%
X-13765000Y-2540000D03*
D15*
%TO.N,+5V*%
X-15035000Y-2540000D03*
%TO.N,GND*%
X-13765000Y-1270000D03*
%TO.N,LimitA*%
X-15035000Y-1270000D03*
%TO.N,QuadB_USBDM*%
X-13765000Y0D03*
%TO.N,LimitB*%
X-15035000Y0D03*
%TO.N,QuadA_USBDP*%
X-13765000Y1270000D03*
%TO.N,LimitC*%
X-15035000Y1270000D03*
%TO.N,SWDIO*%
X-13765000Y2540000D03*
%TO.N,SWCLK*%
X-15035000Y2540000D03*
%TD*%
D13*
%TO.N,GND*%
%TO.C,J41*%
X-500000Y6250000D03*
D11*
X-3500000Y7000000D03*
X-2750000Y6250000D03*
X-1250000Y7000000D03*
D13*
X-500000Y7750000D03*
D11*
X-2750000Y7750000D03*
X-2000000Y7750000D03*
D13*
X-3500000Y7750000D03*
D11*
X-2000000Y6250000D03*
X-2000000Y7000000D03*
X-2750000Y7000000D03*
X-1250000Y7750000D03*
X-1250000Y6250000D03*
X-500000Y7000000D03*
D13*
X-3500000Y6250000D03*
%TD*%
D11*
%TO.N,GND*%
%TO.C,J4*%
X22250000Y-4250000D03*
D13*
X24500000Y-2750000D03*
D11*
X23750000Y-2750000D03*
D13*
X21500000Y-4250000D03*
D11*
X21500000Y-3500000D03*
X23000000Y-4250000D03*
X23750000Y-3500000D03*
X22250000Y-3500000D03*
X23000000Y-2750000D03*
X24500000Y-3500000D03*
X23750000Y-4250000D03*
X22250000Y-2750000D03*
D13*
X24500000Y-4250000D03*
X21500000Y-2750000D03*
D11*
X23000000Y-3500000D03*
%TD*%
D12*
%TO.N,Net-(J3-Pad1)*%
%TO.C,J3*%
X21500000Y-6250000D03*
X21500000Y-7750000D03*
D11*
X23750000Y-6250000D03*
D12*
X24500000Y-6250000D03*
X24500000Y-7750000D03*
D11*
X23000000Y-7000000D03*
X24500000Y-7000000D03*
X22250000Y-6250000D03*
X21500000Y-7000000D03*
X23000000Y-7750000D03*
X22250000Y-7000000D03*
X22250000Y-7750000D03*
X23750000Y-7750000D03*
X23000000Y-6250000D03*
X23750000Y-7000000D03*
%TD*%
D16*
%TO.N,VDD*%
%TO.C,C40*%
X4400000Y-5691000D03*
%TO.N,GND*%
X4400000Y-2691000D03*
%TD*%
%TO.N,VDD*%
%TO.C,C41*%
X4400000Y2700000D03*
%TO.N,GND*%
X4400000Y5700000D03*
%TD*%
D17*
%TO.N,sCUR_A*%
X-4300000Y1200000D03*
X10783659Y7222338D03*
%TO.N,sCUR_B*%
X18300000Y1049700D03*
X-4300000Y-1800000D03*
%TO.N,sCUR_C*%
X20249380Y-4600000D03*
X-4300000Y-2400000D03*
%TO.N,sVLT_VDD*%
X-4300000Y0D03*
X5050000Y3699700D03*
%TO.N,Net-(C80-Pad1)*%
X-8200000Y1050000D03*
%TO.N,Net-(C88-Pad2)*%
X-12100000Y450000D03*
%TO.N,Net-(C89-Pad2)*%
X-12000000Y-150000D03*
%TO.N,sVLT_A*%
X10767165Y6623063D03*
X-4300000Y600000D03*
%TO.N,sVLT_B*%
X-4300000Y-1200000D03*
X10650000Y2350000D03*
%TO.N,sVLT_C*%
X-4300000Y-3000000D03*
X10750000Y-6950000D03*
%TO.N,QuadB_USBDM*%
X-3550000Y1999700D03*
%TO.N,QuadA_USBDP*%
X-2931439Y2018561D03*
%TO.N,Net-(Q1-Pad4)*%
X10850000Y3750000D03*
%TO.N,Net-(Q2-Pad4)*%
X12595878Y-3145878D03*
%TO.N,Net-(Q3-Pad4)*%
X12450000Y-7350000D03*
%TO.N,CAN_RX*%
X-6850000Y2450000D03*
%TO.N,Net-(R32-Pad1)*%
X-13350000Y5100000D03*
%TO.N,TEMP_FETS*%
X4300000Y1600300D03*
X-4300000Y-600000D03*
%TO.N,Net-(R80-Pad1)*%
X-6350000Y2800000D03*
%TO.N,Net-(R85-Pad2)*%
X-10900000Y-7600500D03*
%TO.N,CAN_TX*%
X-11250000Y8000000D03*
%TO.N,VDD*%
X10850000Y4350000D03*
X-17900000Y-5350000D03*
%TO.N,GND*%
X22550000Y4900000D03*
X24350000Y4900000D03*
X-99500Y1650300D03*
X-13450000Y-8000000D03*
X-11300000Y2800000D03*
X-15850000Y-4400000D03*
X-8200000Y-849700D03*
X23750000Y4900000D03*
X-7350000Y2800000D03*
X-11300000Y6750000D03*
X10750300Y-6350000D03*
X-16700000Y-8299500D03*
X5150000Y-7800000D03*
X20450000Y2300000D03*
X21950000Y2400000D03*
X14913025Y-3219754D03*
X21950000Y4300000D03*
X24350000Y4300000D03*
X23750000Y4300000D03*
X12700000Y2500000D03*
X23150000Y4300000D03*
X-17000000Y-1700000D03*
X-13050000Y-3500000D03*
X5600000Y2800000D03*
X18300000Y7400000D03*
X-449680Y3250320D03*
X10750000Y7825500D03*
X-19150000Y-7400000D03*
X22550000Y4300000D03*
X23150000Y4900000D03*
X4800000Y-1100000D03*
X-3350000Y-3100000D03*
X-19150000Y7600000D03*
%TO.N,+3V3*%
X-14950000Y-6750000D03*
%TO.N,Net-(C61-Pad1)*%
X-19350000Y-2750000D03*
%TO.N,+5V*%
X3800000Y-1100000D03*
X16800000Y-3350000D03*
X-16700000Y-750000D03*
X21950000Y3350000D03*
X10800000Y-350000D03*
X11900000Y-3100000D03*
X-11300000Y6100000D03*
X18300000Y8000000D03*
X16800000Y2400000D03*
X550000Y3450000D03*
%TO.N,/GE-Fets-A/SHx*%
X16200000Y5050000D03*
X16800000Y3850000D03*
X16200000Y6250000D03*
X16200000Y3850000D03*
X15600000Y5050000D03*
X15600000Y3850000D03*
X16800000Y6250000D03*
X16800000Y5050000D03*
X15600000Y6250000D03*
%TO.N,/GE-Fets-B/SHx*%
X15603887Y-1725500D03*
X15600000Y-700000D03*
X16200000Y-700000D03*
X16800000Y500000D03*
X15600000Y500000D03*
X16200000Y500000D03*
X16800000Y-1750000D03*
X16800000Y-700000D03*
X16200000Y-1750000D03*
%TO.N,/GE-Fets-B/GHx*%
X6500000Y-3050000D03*
X11203289Y-2904955D03*
%TO.N,/GE-Fets-C/SHx*%
X15600000Y-6400000D03*
X16200000Y-5200000D03*
X16800000Y-5200000D03*
X16200000Y-7600000D03*
X16800000Y-7600000D03*
X16200000Y-6400000D03*
X15600000Y-7600000D03*
X15600000Y-5200000D03*
X16800000Y-6400000D03*
%TO.N,Net-(Q4-Pad4)*%
X20200000Y2850000D03*
X10750000Y-7950300D03*
%TO.N,Net-(Q5-Pad4)*%
X3300000Y-6050000D03*
X15850000Y-2900000D03*
%TO.N,Net-(Q6-Pad4)*%
X20350000Y-8300000D03*
X-2250000Y-3400000D03*
%TO.N,LimitC*%
X-4850000Y3150000D03*
%TO.N,/GE-Fets-A/REF_1V65*%
X20300000Y8300000D03*
X24050000Y3350000D03*
X18250000Y-4100000D03*
X18300000Y2298780D03*
%TO.N,LimitB*%
X-4350000Y2800000D03*
%TO.N,LimitA*%
X-3850000Y3150000D03*
%TO.N,Net-(D83-Pad2)*%
X550000Y-8200000D03*
X-8703704Y-6699899D03*
%TO.N,Net-(D84-Pad2)*%
X750000Y-6450000D03*
X-8700000Y-7600500D03*
%TO.N,Net-(R84-Pad2)*%
X-10900000Y-6850000D03*
%TD*%
D18*
%TO.N,sCUR_A*%
X8000000Y4550000D02*
X10672338Y7222338D01*
X3550000Y4550000D02*
X8000000Y4550000D01*
X-4249989Y1149989D02*
X1398317Y1149989D01*
X-4300000Y1200000D02*
X-4249989Y1149989D01*
X2350000Y2101672D02*
X2350000Y3350000D01*
X2350000Y3350000D02*
X3550000Y4550000D01*
X1398317Y1149989D02*
X2350000Y2101672D01*
X10672338Y7222338D02*
X10783659Y7222338D01*
%TO.N,sCUR_B*%
X-4300000Y-1800000D02*
X600000Y-1800000D01*
X2398889Y-1111D02*
X8724725Y-1111D01*
X8724725Y-1111D02*
X9701112Y975276D01*
X600000Y-1800000D02*
X2398889Y-1111D01*
X18225576Y975276D02*
X18300000Y1049700D01*
X9701112Y975276D02*
X18225576Y975276D01*
%TO.N,sCUR_C*%
X2891311Y-6641311D02*
X9708689Y-6641311D01*
X-4300000Y-2400000D02*
X-3750000Y-2400000D01*
X-3550000Y-2200000D02*
X-1550000Y-2200000D01*
X11750000Y-4600000D02*
X20192000Y-4600000D01*
X-1550000Y-2200000D02*
X2891311Y-6641311D01*
X-3750000Y-2400000D02*
X-3550000Y-2200000D01*
X20192000Y-4600000D02*
X20193000Y-4599000D01*
X9708689Y-6641311D02*
X11750000Y-4600000D01*
%TO.N,sVLT_VDD*%
X2952222Y3100550D02*
X3551372Y3699700D01*
X3551372Y3699700D02*
X5050000Y3699700D01*
X2952222Y1852222D02*
X2952222Y3100550D01*
X1100000Y0D02*
X2952222Y1852222D01*
X-4300000Y0D02*
X1100000Y0D01*
%TO.N,sVLT_A*%
X2651111Y1976947D02*
X2651111Y3225275D01*
X-4300000Y600000D02*
X1274164Y600000D01*
X10673063Y6623063D02*
X10767165Y6623063D01*
X3575836Y4150000D02*
X8200000Y4150000D01*
X2651111Y3225275D02*
X3575836Y4150000D01*
X8200000Y4150000D02*
X10673063Y6623063D01*
X1274164Y600000D02*
X2651111Y1976947D01*
%TO.N,sVLT_B*%
X-4300000Y-1200000D02*
X774164Y-1200000D01*
X774164Y-1200000D02*
X2274165Y300000D01*
X8600000Y300000D02*
X10650000Y2350000D01*
X2274165Y300000D02*
X8600000Y300000D01*
%TO.N,sVLT_C*%
X-3500000Y-2600000D02*
X-1600000Y-2600000D01*
X-3900000Y-3000000D02*
X-3500000Y-2600000D01*
X-4300000Y-3000000D02*
X-3900000Y-3000000D01*
X2750000Y-6950000D02*
X10750000Y-6950000D01*
X-1600000Y-2600000D02*
X2750000Y-6950000D01*
%TO.N,QuadB_USBDM*%
X-6099700Y1999700D02*
X-6100000Y2000000D01*
X-12165000Y1600000D02*
X-13765000Y0D01*
X-6100000Y2000000D02*
X-6500000Y1600000D01*
X-3550000Y1999700D02*
X-6099700Y1999700D01*
X-6500000Y1600000D02*
X-12165000Y1600000D01*
%TO.N,QuadA_USBDP*%
X-6600000Y1950000D02*
X-13085000Y1950000D01*
X-4048889Y2301111D02*
X-6224725Y2301111D01*
X-6249189Y2300811D02*
X-6600000Y1950000D01*
X-13085000Y1950000D02*
X-13765000Y1270000D01*
X-3362878Y2450000D02*
X-3900000Y2450000D01*
X-3900000Y2450000D02*
X-4048889Y2301111D01*
X-6224725Y2301111D02*
X-6225025Y2300811D01*
X-2931439Y2018561D02*
X-3362878Y2450000D01*
X-6225025Y2300811D02*
X-6249189Y2300811D01*
%TO.N,TEMP_FETS*%
X-4300000Y-600000D02*
X948328Y-600000D01*
X3148628Y1600300D02*
X4300000Y1600300D01*
X948328Y-600000D02*
X3148628Y1600300D01*
D19*
%TO.N,VDD*%
X-12000000Y-8250000D02*
X-4200000Y-8250000D01*
X-17900000Y-7050000D02*
X-17300000Y-7650000D01*
X-4200000Y-8250000D02*
X-3700000Y-7750000D01*
X-13100000Y-7150000D02*
X-12000000Y-8250000D01*
X-13800000Y-7150000D02*
X-13100000Y-7150000D01*
X-17300000Y-7650000D02*
X-14300000Y-7650000D01*
X-3700000Y-7750000D02*
X-2750000Y-7750000D01*
X-17900000Y-5350000D02*
X-17900000Y-7050000D01*
X-14300000Y-7650000D02*
X-13800000Y-7150000D01*
%TO.N,+3V3*%
X-13850311Y-2625311D02*
X-13850311Y-5650311D01*
X-13850311Y-5650311D02*
X-14950000Y-6750000D01*
X-13765000Y-2540000D02*
X-13850311Y-2625311D01*
D20*
%TO.N,+5V*%
X11900000Y-3100000D02*
X11900000Y-2800000D01*
X11900000Y-2800000D02*
X12350000Y-2350000D01*
X16100000Y-2350000D02*
X16800000Y-3050000D01*
X18500000Y-3400000D02*
X16800000Y-3400000D01*
X3290420Y8350000D02*
X-9580Y5050000D01*
X18300000Y8000000D02*
X17950000Y8350000D01*
X18550000Y1650000D02*
X18850000Y1350000D01*
X18850000Y-3050000D02*
X18500000Y-3400000D01*
X21450000Y3350000D02*
X21950000Y3350000D01*
X18950000Y4550000D02*
X18600000Y4200000D01*
D19*
X-10250000Y5050000D02*
X-11300000Y6100000D01*
D20*
X16800000Y2400000D02*
X18600000Y4200000D01*
X18750000Y4350000D02*
X20450000Y4350000D01*
D19*
X-1050000Y5050000D02*
X-10250000Y5050000D01*
D20*
X11900000Y-1450000D02*
X10800000Y-350000D01*
X18850000Y1350000D02*
X18850000Y-3050000D01*
X18600000Y4200000D02*
X18750000Y4350000D01*
X20450000Y4350000D02*
X21450000Y3350000D01*
X16800000Y2400000D02*
X17550000Y1650000D01*
X12350000Y-2350000D02*
X16100000Y-2350000D01*
X17550000Y1650000D02*
X18550000Y1650000D01*
X18600000Y8000000D02*
X18950000Y7650000D01*
X-9580Y5050000D02*
X-1050000Y5050000D01*
D19*
X550000Y3450000D02*
X-1050000Y5050000D01*
D20*
X16800000Y-3213163D02*
X16800000Y-3400000D01*
X18300000Y8000000D02*
X18600000Y8000000D01*
D19*
X-16700000Y-750000D02*
X-16699680Y-749680D01*
D20*
X17950000Y8350000D02*
X3290420Y8350000D01*
X16800000Y-3050000D02*
X16800000Y-3350000D01*
X11900000Y-3100000D02*
X11900000Y-1450000D01*
X18950000Y7650000D02*
X18950000Y4550000D01*
D18*
%TO.N,/GE-Fets-B/GHx*%
X6500000Y-3050000D02*
X11058244Y-3050000D01*
X11058244Y-3050000D02*
X11203289Y-2904955D01*
%TO.N,Net-(Q4-Pad4)*%
X20749680Y-1257239D02*
X20749680Y-6550320D01*
X10899700Y-8100000D02*
X10750000Y-7950300D01*
X20699680Y-1207239D02*
X20749680Y-1257239D01*
X20699680Y1000320D02*
X20699680Y-1207239D01*
X20150000Y2850000D02*
X19999689Y2699689D01*
X19200000Y-8100000D02*
X10899700Y-8100000D01*
X19999689Y2699689D02*
X19999689Y1700311D01*
X20749680Y-6550320D02*
X19200000Y-8100000D01*
X19999689Y1700311D02*
X20699680Y1000320D01*
%TO.N,Net-(Q5-Pad4)*%
X13628579Y-2750000D02*
X15700000Y-2750000D01*
X3300000Y-5200000D02*
X4903821Y-3596179D01*
X4903821Y-3596179D02*
X12782400Y-3596179D01*
X3300000Y-6050000D02*
X3300000Y-5200000D01*
X12782400Y-3596179D02*
X13628579Y-2750000D01*
%TO.N,Net-(Q6-Pad4)*%
X-2250000Y-3450000D02*
X-1775489Y-3924511D01*
X20150320Y-8449680D02*
X20300000Y-8300000D01*
X-2250000Y-3400000D02*
X-2250000Y-3450000D01*
X3799680Y-8449680D02*
X20150320Y-8449680D01*
X-1775489Y-3924511D02*
X-725489Y-3924511D01*
X-725489Y-3924511D02*
X3799680Y-8449680D01*
%TO.N,LimitC*%
X-15785311Y2020311D02*
X-15785311Y2864689D01*
X-14748569Y3901431D02*
X-5538746Y3901431D01*
X-15035000Y1270000D02*
X-15785311Y2020311D01*
X-15785311Y2864689D02*
X-14748569Y3901431D01*
X-4850000Y3212685D02*
X-4850000Y3150000D01*
X-5538746Y3901431D02*
X-4850000Y3212685D01*
%TO.N,/GE-Fets-A/REF_1V65*%
X21649689Y3800311D02*
X20300000Y5150000D01*
X20936526Y3300311D02*
X21337148Y2899689D01*
X22136526Y3800311D02*
X21649689Y3800311D01*
X22136526Y2899689D02*
X22586837Y3350000D01*
X18961943Y2298780D02*
X19324152Y2660989D01*
X19324152Y1950000D02*
X19324152Y2660989D01*
X20342191Y931961D02*
X19324152Y1950000D01*
X18300000Y2298780D02*
X18961943Y2298780D01*
X20342191Y-3907809D02*
X20342191Y931961D01*
X19324152Y2660989D02*
X19963474Y3300311D01*
X24050000Y3350000D02*
X22586837Y3350000D01*
X21337148Y2899689D02*
X22136526Y2899689D01*
X19963474Y3300311D02*
X20936526Y3300311D01*
X18200000Y-4100000D02*
X20150000Y-4100000D01*
X22586837Y3350000D02*
X22136526Y3800311D01*
X20300000Y5150000D02*
X20300000Y8300000D01*
X20150000Y-4100000D02*
X20342191Y-3907809D01*
%TO.N,LimitB*%
X-16086430Y1051430D02*
X-16086430Y2989418D01*
X-15035000Y0D02*
X-16086430Y1051430D01*
X-4350000Y3286837D02*
X-4350000Y2800000D01*
X-16086430Y2989418D02*
X-14873298Y4202550D01*
X-5265713Y4202550D02*
X-4350000Y3286837D01*
X-14873298Y4202550D02*
X-5265713Y4202550D01*
%TO.N,LimitA*%
X-16387550Y3162450D02*
X-16387550Y82550D01*
X-16387550Y82550D02*
X-15035000Y-1270000D01*
X-3850000Y3150000D02*
X-3850000Y3212685D01*
X-15046330Y4503670D02*
X-16387550Y3162450D01*
X-5140986Y4503670D02*
X-15046330Y4503670D01*
X-3850000Y3212685D02*
X-5140986Y4503670D01*
%TO.N,Net-(D83-Pad2)*%
X-42761Y-5499680D02*
X-3999680Y-5499680D01*
X550000Y-8200000D02*
X250320Y-7900320D01*
X250320Y-7900320D02*
X250320Y-5792761D01*
X-5250000Y-6750000D02*
X-8653603Y-6750000D01*
X250320Y-5792761D02*
X-42761Y-5499680D01*
X-3999680Y-5499680D02*
X-5250000Y-6750000D01*
X-8653603Y-6750000D02*
X-8703704Y-6699899D01*
%TO.N,Net-(D84-Pad2)*%
X-5350220Y-6249598D02*
X-8890226Y-6249598D01*
X24164Y-5100000D02*
X-4200622Y-5100000D01*
X-8890226Y-6249598D02*
X-9200000Y-6559372D01*
X-4200622Y-5100000D02*
X-5350220Y-6249598D01*
X-9200000Y-7100500D02*
X-8700000Y-7600500D01*
X-9200000Y-6559372D02*
X-9200000Y-7100500D01*
X700000Y-5775836D02*
X24164Y-5100000D01*
X700000Y-6450000D02*
X700000Y-5775836D01*
%TD*%
M02*
