%TF.GenerationSoftware,KiCad,Pcbnew,(6.0.5)*%
%TF.CreationDate,2022-09-11T00:02:45-04:00*%
%TF.ProjectId,GoldESC,476f6c64-4553-4432-9e6b-696361645f70,rev?*%
%TF.SameCoordinates,Original*%
%TF.FileFunction,Legend,Top*%
%TF.FilePolarity,Positive*%
%FSLAX46Y46*%
G04 Gerber Fmt 4.6, Leading zero omitted, Abs format (unit mm)*
G04 Created by KiCad (PCBNEW (6.0.5)) date 2022-09-11 00:02:45*
%MOMM*%
%LPD*%
G01*
G04 APERTURE LIST*
G04 Aperture macros list*
%AMRoundRect*
0 Rectangle with rounded corners*
0 $1 Rounding radius*
0 $2 $3 $4 $5 $6 $7 $8 $9 X,Y pos of 4 corners*
0 Add a 4 corners polygon primitive as box body*
4,1,4,$2,$3,$4,$5,$6,$7,$8,$9,$2,$3,0*
0 Add four circle primitives for the rounded corners*
1,1,$1+$1,$2,$3*
1,1,$1+$1,$4,$5*
1,1,$1+$1,$6,$7*
1,1,$1+$1,$8,$9*
0 Add four rect primitives between the rounded corners*
20,1,$1+$1,$2,$3,$4,$5,0*
20,1,$1+$1,$4,$5,$6,$7,0*
20,1,$1+$1,$6,$7,$8,$9,0*
20,1,$1+$1,$8,$9,$2,$3,0*%
G04 Aperture macros list end*
%ADD10C,0.200000*%
%ADD11C,0.400000*%
%ADD12C,0.150000*%
%ADD13C,0.120000*%
%ADD14RoundRect,0.135000X-0.135000X-0.185000X0.135000X-0.185000X0.135000X0.185000X-0.135000X0.185000X0*%
%ADD15R,0.700000X0.340000*%
%ADD16R,0.600000X0.700000*%
%ADD17RoundRect,0.243750X0.243750X0.456250X-0.243750X0.456250X-0.243750X-0.456250X0.243750X-0.456250X0*%
%ADD18RoundRect,0.135000X-0.185000X0.135000X-0.185000X-0.135000X0.185000X-0.135000X0.185000X0.135000X0*%
%ADD19RoundRect,0.140000X-0.170000X0.140000X-0.170000X-0.140000X0.170000X-0.140000X0.170000X0.140000X0*%
%ADD20RoundRect,0.140000X0.140000X0.170000X-0.140000X0.170000X-0.140000X-0.170000X0.140000X-0.170000X0*%
%ADD21RoundRect,0.140000X-0.140000X-0.170000X0.140000X-0.170000X0.140000X0.170000X-0.140000X0.170000X0*%
%ADD22R,1.000000X1.000000*%
%ADD23RoundRect,0.075000X-0.662500X-0.075000X0.662500X-0.075000X0.662500X0.075000X-0.662500X0.075000X0*%
%ADD24RoundRect,0.075000X-0.075000X-0.662500X0.075000X-0.662500X0.075000X0.662500X-0.075000X0.662500X0*%
%ADD25RoundRect,0.243750X-0.243750X-0.456250X0.243750X-0.456250X0.243750X0.456250X-0.243750X0.456250X0*%
%ADD26RoundRect,0.135000X0.185000X-0.135000X0.185000X0.135000X-0.185000X0.135000X-0.185000X-0.135000X0*%
%ADD27RoundRect,0.250000X1.075000X-0.375000X1.075000X0.375000X-1.075000X0.375000X-1.075000X-0.375000X0*%
%ADD28RoundRect,0.135000X0.135000X0.185000X-0.135000X0.185000X-0.135000X-0.185000X0.135000X-0.185000X0*%
%ADD29C,1.200000*%
%ADD30RoundRect,0.100000X-0.637500X-0.100000X0.637500X-0.100000X0.637500X0.100000X-0.637500X0.100000X0*%
%ADD31RoundRect,0.250000X0.250000X-0.250000X0.250000X0.250000X-0.250000X0.250000X-0.250000X-0.250000X0*%
%ADD32RoundRect,0.250000X-0.250000X0.250000X-0.250000X-0.250000X0.250000X-0.250000X0.250000X0.250000X0*%
%ADD33RoundRect,0.508000X0.711200X1.168400X-0.711200X1.168400X-0.711200X-1.168400X0.711200X-1.168400X0*%
%ADD34RoundRect,0.140000X0.170000X-0.140000X0.170000X0.140000X-0.170000X0.140000X-0.170000X-0.140000X0*%
%ADD35RoundRect,0.250000X0.250000X0.250000X-0.250000X0.250000X-0.250000X-0.250000X0.250000X-0.250000X0*%
%ADD36O,1.000000X1.000000*%
%ADD37RoundRect,0.250000X0.650000X-0.325000X0.650000X0.325000X-0.650000X0.325000X-0.650000X-0.325000X0*%
%ADD38C,1.400000*%
G04 APERTURE END LIST*
D10*
X-17976895Y76228D02*
X-18776895Y76228D01*
X-18395942Y76228D02*
X-18395942Y533371D01*
X-17976895Y533371D02*
X-18776895Y533371D01*
X-18751504Y5949980D02*
X-18751504Y6330933D01*
X-17951504Y6330933D01*
D11*
X-7797580Y-6388209D02*
X-7264247Y-7988209D01*
X-6730914Y-6388209D01*
X-6197580Y-7988209D02*
X-6197580Y-6388209D01*
X-5435676Y-7988209D02*
X-5435676Y-6388209D01*
X-4521390Y-7988209D01*
X-4521390Y-6388209D01*
X1270152Y8166000D02*
X1117771Y8242190D01*
X889200Y8242190D01*
X660628Y8166000D01*
X508247Y8013619D01*
X432057Y7861238D01*
X355866Y7556476D01*
X355866Y7327904D01*
X432057Y7023142D01*
X508247Y6870761D01*
X660628Y6718380D01*
X889200Y6642190D01*
X1041580Y6642190D01*
X1270152Y6718380D01*
X1346342Y6794571D01*
X1346342Y7327904D01*
X1041580Y7327904D01*
X2032057Y6642190D02*
X2032057Y8242190D01*
X2946342Y6642190D01*
X2946342Y8242190D01*
X3708247Y6642190D02*
X3708247Y8242190D01*
X4089199Y8242190D01*
X4317771Y8166000D01*
X4470152Y8013619D01*
X4546342Y7861238D01*
X4622533Y7556476D01*
X4622533Y7327904D01*
X4546342Y7023142D01*
X4470152Y6870761D01*
X4317771Y6718380D01*
X4089199Y6642190D01*
X3708247Y6642190D01*
D10*
X-5981657Y6064285D02*
X-6019752Y6026190D01*
X-6134038Y5988095D01*
X-6210228Y5988095D01*
X-6324514Y6026190D01*
X-6400704Y6102380D01*
X-6438800Y6178571D01*
X-6476895Y6330952D01*
X-6476895Y6445238D01*
X-6438800Y6597619D01*
X-6400704Y6673809D01*
X-6324514Y6750000D01*
X-6210228Y6788095D01*
X-6134038Y6788095D01*
X-6019752Y6750000D01*
X-5981657Y6711904D01*
X-5600704Y6026190D02*
X-5600704Y5988095D01*
X-5638800Y5911904D01*
X-5676895Y5873809D01*
X-5257847Y5988095D02*
X-5257847Y6788095D01*
X-5067371Y6788095D01*
X-4953085Y6750000D01*
X-4876895Y6673809D01*
X-4838800Y6597619D01*
X-4800704Y6445238D01*
X-4800704Y6330952D01*
X-4838800Y6178571D01*
X-4876895Y6102380D01*
X-4953085Y6026190D01*
X-5067371Y5988095D01*
X-5257847Y5988095D01*
X-9036076Y8070800D02*
X-9112266Y8108895D01*
X-9226552Y8108895D01*
X-9340838Y8070800D01*
X-9417028Y7994609D01*
X-9455123Y7918419D01*
X-9493219Y7766038D01*
X-9493219Y7651752D01*
X-9455123Y7499371D01*
X-9417028Y7423180D01*
X-9340838Y7346990D01*
X-9226552Y7308895D01*
X-9150361Y7308895D01*
X-9036076Y7346990D01*
X-8997980Y7385085D01*
X-8997980Y7651752D01*
X-9150361Y7651752D01*
X-14579523Y8108895D02*
X-14084285Y8108895D01*
X-14350952Y7804133D01*
X-14236666Y7804133D01*
X-14160476Y7766038D01*
X-14122380Y7727942D01*
X-14084285Y7651752D01*
X-14084285Y7461276D01*
X-14122380Y7385085D01*
X-14160476Y7346990D01*
X-14236666Y7308895D01*
X-14465238Y7308895D01*
X-14541428Y7346990D01*
X-14579523Y7385085D01*
X-13855714Y8108895D02*
X-13589047Y7308895D01*
X-13322380Y8108895D01*
D12*
X-1700000Y-5700000D02*
X-21000000Y-5700000D01*
X-1600000Y5700000D02*
X-21000000Y5700000D01*
D10*
X20759523Y-7207142D02*
X20711904Y-7254761D01*
X20569047Y-7302380D01*
X20473809Y-7302380D01*
X20330952Y-7254761D01*
X20235714Y-7159523D01*
X20188095Y-7064285D01*
X20140476Y-6873809D01*
X20140476Y-6730952D01*
X20188095Y-6540476D01*
X20235714Y-6445238D01*
X20330952Y-6350000D01*
X20473809Y-6302380D01*
X20569047Y-6302380D01*
X20711904Y-6350000D01*
X20759523Y-6397619D01*
X20471428Y71428D02*
X20614285Y23809D01*
X20661904Y-23809D01*
X20709523Y-119047D01*
X20709523Y-261904D01*
X20661904Y-357142D01*
X20614285Y-404761D01*
X20519047Y-452380D01*
X20138095Y-452380D01*
X20138095Y547619D01*
X20471428Y547619D01*
X20566666Y500000D01*
X20614285Y452380D01*
X20661904Y357142D01*
X20661904Y261904D01*
X20614285Y166666D01*
X20566666Y119047D01*
X20471428Y71428D01*
X20138095Y71428D01*
X20111904Y6783333D02*
X20588095Y6783333D01*
X20016666Y6497619D02*
X20350000Y7497619D01*
X20683333Y6497619D01*
D13*
%TO.C,R43*%
X8646359Y2920000D02*
X8953641Y2920000D01*
X8646359Y3680000D02*
X8953641Y3680000D01*
%TO.C,U4*%
X17400000Y8400000D02*
X18950000Y8400000D01*
X18950000Y6600000D02*
X17650000Y6600000D01*
%TO.C,D5*%
X8850000Y-600000D02*
X8850000Y-1800000D01*
X10700000Y-600000D02*
X8850000Y-600000D01*
X10700000Y-1800000D02*
X8850000Y-1800000D01*
%TO.C,D83*%
X2550000Y-8760000D02*
X5235000Y-8760000D01*
X5235000Y-8760000D02*
X5235000Y-6840000D01*
X5235000Y-6840000D02*
X2550000Y-6840000D01*
%TO.C,R21*%
X12380000Y-7546359D02*
X12380000Y-7853641D01*
X11620000Y-7546359D02*
X11620000Y-7853641D01*
%TO.C,C82*%
X-10760000Y4707836D02*
X-10760000Y4492164D01*
X-10040000Y4707836D02*
X-10040000Y4492164D01*
%TO.C,C42*%
X6907836Y2940000D02*
X6692164Y2940000D01*
X6907836Y3660000D02*
X6692164Y3660000D01*
%TO.C,C7*%
X16257836Y6940000D02*
X16042164Y6940000D01*
X16257836Y7660000D02*
X16042164Y7660000D01*
%TO.C,R10*%
X12380000Y5853641D02*
X12380000Y5546359D01*
X11620000Y5853641D02*
X11620000Y5546359D01*
%TO.C,C8*%
X20260000Y1807836D02*
X20260000Y1592164D01*
X19540000Y1807836D02*
X19540000Y1592164D01*
%TO.C,C81*%
X-1407836Y-4960000D02*
X-1192164Y-4960000D01*
X-1407836Y-4240000D02*
X-1192164Y-4240000D01*
%TO.C,R12*%
X11620000Y-5746359D02*
X11620000Y-6053641D01*
X12380000Y-5746359D02*
X12380000Y-6053641D01*
%TO.C,R24*%
X780000Y-4246359D02*
X780000Y-4553641D01*
X20000Y-4246359D02*
X20000Y-4553641D01*
%TO.C,D1*%
X11450000Y8350000D02*
X11450000Y6650000D01*
X11450000Y6650000D02*
X14600000Y6650000D01*
X11450000Y8350000D02*
X14600000Y8350000D01*
%TO.C,U80*%
X-1990000Y3610000D02*
X-1990000Y3160000D01*
X-8760000Y3610000D02*
X-9210000Y3610000D01*
X-2440000Y3610000D02*
X-1990000Y3610000D01*
X-8760000Y-3610000D02*
X-9210000Y-3610000D01*
X-9210000Y3610000D02*
X-9210000Y3160000D01*
X-2440000Y-3610000D02*
X-1990000Y-3610000D01*
X-9210000Y3160000D02*
X-10500000Y3160000D01*
X-9210000Y-3610000D02*
X-9210000Y-3160000D01*
X-1990000Y-3610000D02*
X-1990000Y-3160000D01*
%TO.C,R32*%
X-10920000Y4753641D02*
X-10920000Y4446359D01*
X-11680000Y4753641D02*
X-11680000Y4446359D01*
%TO.C,D84*%
X5065000Y-8760000D02*
X7750000Y-8760000D01*
X5065000Y-6840000D02*
X5065000Y-8760000D01*
X7750000Y-6840000D02*
X5065000Y-6840000D01*
%TO.C,R18*%
X19230000Y-4253641D02*
X19230000Y-3946359D01*
X18470000Y-4253641D02*
X18470000Y-3946359D01*
%TO.C,R14*%
X15530000Y1953641D02*
X15530000Y1646359D01*
X14770000Y1953641D02*
X14770000Y1646359D01*
%TO.C,L60*%
X-17040000Y-2761064D02*
X-17040000Y-1556936D01*
X-19760000Y-2761064D02*
X-19760000Y-1556936D01*
%TO.C,R15*%
X10770000Y-5403641D02*
X10770000Y-5096359D01*
X11530000Y-5403641D02*
X11530000Y-5096359D01*
%TO.C,R7*%
X23153641Y2020000D02*
X22846359Y2020000D01*
X23153641Y2780000D02*
X22846359Y2780000D01*
%TO.C,D42*%
X6000000Y5550000D02*
X9150000Y5550000D01*
X6000000Y5550000D02*
X6000000Y3850000D01*
X6000000Y3850000D02*
X9150000Y3850000D01*
%TO.C,D6*%
X10600000Y-4250000D02*
X8750000Y-4250000D01*
X10600000Y-3050000D02*
X8750000Y-3050000D01*
X8750000Y-3050000D02*
X8750000Y-4250000D01*
%TO.C,U2*%
X4900000Y-5485000D02*
X2700000Y-5485000D01*
X4900000Y-5485000D02*
X7100000Y-5485000D01*
X4900000Y1285000D02*
X1300000Y1285000D01*
X4900000Y1285000D02*
X7100000Y1285000D01*
%TO.C,R11*%
X11620000Y53641D02*
X11620000Y-253641D01*
X12380000Y53641D02*
X12380000Y-253641D01*
%TO.C,C88*%
X-11660000Y1557836D02*
X-11660000Y1342164D01*
X-10940000Y1557836D02*
X-10940000Y1342164D01*
%TO.C,R1*%
X18577064Y6410000D02*
X14222936Y6410000D01*
X18577064Y2990000D02*
X14222936Y2990000D01*
%TO.C,C9*%
X19340000Y-3992164D02*
X19340000Y-4207836D01*
X20060000Y-3992164D02*
X20060000Y-4207836D01*
%TO.C,D4*%
X8650000Y2100000D02*
X8650000Y900000D01*
X10500000Y900000D02*
X8650000Y900000D01*
X10500000Y2100000D02*
X8650000Y2100000D01*
%TO.C,R4*%
X22846359Y3730000D02*
X23153641Y3730000D01*
X22846359Y2970000D02*
X23153641Y2970000D01*
%TO.C,R3*%
X18577064Y-5190000D02*
X14222936Y-5190000D01*
X18577064Y-8610000D02*
X14222936Y-8610000D01*
%TO.C,C89*%
X-10940000Y-407836D02*
X-10940000Y-192164D01*
X-11660000Y-407836D02*
X-11660000Y-192164D01*
%TO.C,R20*%
X11620000Y-2053641D02*
X11620000Y-1746359D01*
X12380000Y-2053641D02*
X12380000Y-1746359D01*
%TO.C,R19*%
X11620000Y4053641D02*
X11620000Y3746359D01*
X12380000Y4053641D02*
X12380000Y3746359D01*
%TO.C,C5*%
X9807836Y-2040000D02*
X9592164Y-2040000D01*
X9807836Y-2760000D02*
X9592164Y-2760000D01*
%TO.C,D3*%
X11600000Y-3250000D02*
X11600000Y-4950000D01*
X11600000Y-3250000D02*
X14750000Y-3250000D01*
X11600000Y-4950000D02*
X14750000Y-4950000D01*
%TO.C,C84*%
X-11660000Y-1992164D02*
X-11660000Y-2207836D01*
X-10940000Y-1992164D02*
X-10940000Y-2207836D01*
%TO.C,R42*%
X6646359Y2880000D02*
X6953641Y2880000D01*
X6646359Y2120000D02*
X6953641Y2120000D01*
%TO.C,J81*%
X-12550000Y635000D02*
X-11860000Y635000D01*
X-11860000Y635000D02*
X-11850000Y-635000D01*
X-11850000Y-635000D02*
X-12495000Y-635000D01*
X-16250000Y5625000D02*
X-12550000Y5625000D01*
X-12550000Y5625000D02*
X-12550000Y-5625000D01*
X-12550000Y-5625000D02*
X-16250000Y-5625000D01*
X-16250000Y-5625000D02*
X-16250000Y5625000D01*
X-16950000Y6325000D02*
X-11850000Y6325000D01*
X-11850000Y6325000D02*
X-11850000Y-6325000D01*
X-11850000Y-6325000D02*
X-16950000Y-6325000D01*
X-16950000Y-6325000D02*
X-16950000Y6325000D01*
%TO.C,R17*%
X19430000Y1546359D02*
X19430000Y1853641D01*
X18670000Y1546359D02*
X18670000Y1853641D01*
%TO.C,U5*%
X17450000Y900000D02*
X16150000Y900000D01*
X15900000Y2700000D02*
X17450000Y2700000D01*
%TO.C,D2*%
X10950000Y2550000D02*
X14100000Y2550000D01*
X10950000Y2550000D02*
X10950000Y850000D01*
X10950000Y850000D02*
X14100000Y850000D01*
%TO.C,C6*%
X9807836Y-4440000D02*
X9592164Y-4440000D01*
X9807836Y-5160000D02*
X9592164Y-5160000D01*
%TO.C,R16*%
X15996359Y8530000D02*
X16303641Y8530000D01*
X15996359Y7770000D02*
X16303641Y7770000D01*
%TO.C,C83*%
X-640000Y4407836D02*
X-640000Y4192164D01*
X-1360000Y4407836D02*
X-1360000Y4192164D01*
%TO.C,C4*%
X9592164Y660000D02*
X9807836Y660000D01*
X9592164Y-60000D02*
X9807836Y-60000D01*
%TO.C,C10*%
X1090000Y3163748D02*
X1090000Y4586252D01*
X2910000Y3163748D02*
X2910000Y4586252D01*
%TO.C,R13*%
X11530000Y5396359D02*
X11530000Y5703641D01*
X10770000Y5396359D02*
X10770000Y5703641D01*
%TO.C,R2*%
X18577064Y610000D02*
X14222936Y610000D01*
X18577064Y-2810000D02*
X14222936Y-2810000D01*
%TO.C,R22*%
X8453641Y-6430000D02*
X8146359Y-6430000D01*
X8453641Y-5670000D02*
X8146359Y-5670000D01*
%TO.C,R23*%
X2253641Y-5670000D02*
X1946359Y-5670000D01*
X2253641Y-6430000D02*
X1946359Y-6430000D01*
%TO.C,U6*%
X15900000Y-3100000D02*
X17450000Y-3100000D01*
X17450000Y-4900000D02*
X16150000Y-4900000D01*
%TD*%
%LPC*%
D14*
%TO.C,R43*%
X8290000Y3300000D03*
X9310000Y3300000D03*
%TD*%
D15*
%TO.C,U4*%
X17550000Y8000000D03*
X17550000Y7500000D03*
X17550000Y7000000D03*
X19050000Y7000000D03*
X19050000Y7500000D03*
X19050000Y8000000D03*
%TD*%
D16*
%TO.C,D5*%
X9300000Y-1200000D03*
X10700000Y-1200000D03*
%TD*%
D17*
%TO.C,D83*%
X4487500Y-7800000D03*
X2612500Y-7800000D03*
%TD*%
D18*
%TO.C,R21*%
X12000000Y-7190000D03*
X12000000Y-8210000D03*
%TD*%
D19*
%TO.C,C82*%
X-10400000Y5080000D03*
X-10400000Y4120000D03*
%TD*%
D20*
%TO.C,C42*%
X7280000Y3300000D03*
X6320000Y3300000D03*
%TD*%
%TO.C,C7*%
X16630000Y7300000D03*
X15670000Y7300000D03*
%TD*%
D18*
%TO.C,R10*%
X12000000Y6210000D03*
X12000000Y5190000D03*
%TD*%
D19*
%TO.C,C8*%
X19900000Y2180000D03*
X19900000Y1220000D03*
%TD*%
D21*
%TO.C,C81*%
X-1780000Y-4600000D03*
X-820000Y-4600000D03*
%TD*%
D18*
%TO.C,R12*%
X12000000Y-5390000D03*
X12000000Y-6410000D03*
%TD*%
%TO.C,R24*%
X400000Y-3890000D03*
X400000Y-4910000D03*
%TD*%
D22*
%TO.C,D1*%
X12100000Y7500000D03*
X14600000Y7500000D03*
%TD*%
D23*
%TO.C,U80*%
X-9762500Y2750000D03*
X-9762500Y2250000D03*
X-9762500Y1750000D03*
X-9762500Y1250000D03*
X-9762500Y750000D03*
X-9762500Y250000D03*
X-9762500Y-250000D03*
X-9762500Y-750000D03*
X-9762500Y-1250000D03*
X-9762500Y-1750000D03*
X-9762500Y-2250000D03*
X-9762500Y-2750000D03*
D24*
X-8350000Y-4162500D03*
X-7850000Y-4162500D03*
X-7350000Y-4162500D03*
X-6850000Y-4162500D03*
X-6350000Y-4162500D03*
X-5850000Y-4162500D03*
X-5350000Y-4162500D03*
X-4850000Y-4162500D03*
X-4350000Y-4162500D03*
X-3850000Y-4162500D03*
X-3350000Y-4162500D03*
X-2850000Y-4162500D03*
D23*
X-1437500Y-2750000D03*
X-1437500Y-2250000D03*
X-1437500Y-1750000D03*
X-1437500Y-1250000D03*
X-1437500Y-750000D03*
X-1437500Y-250000D03*
X-1437500Y250000D03*
X-1437500Y750000D03*
X-1437500Y1250000D03*
X-1437500Y1750000D03*
X-1437500Y2250000D03*
X-1437500Y2750000D03*
D24*
X-2850000Y4162500D03*
X-3350000Y4162500D03*
X-3850000Y4162500D03*
X-4350000Y4162500D03*
X-4850000Y4162500D03*
X-5350000Y4162500D03*
X-5850000Y4162500D03*
X-6350000Y4162500D03*
X-6850000Y4162500D03*
X-7350000Y4162500D03*
X-7850000Y4162500D03*
X-8350000Y4162500D03*
%TD*%
D18*
%TO.C,R32*%
X-11300000Y5110000D03*
X-11300000Y4090000D03*
%TD*%
D25*
%TO.C,D84*%
X5812500Y-7800000D03*
X7687500Y-7800000D03*
%TD*%
D26*
%TO.C,R18*%
X18850000Y-4610000D03*
X18850000Y-3590000D03*
%TD*%
D18*
%TO.C,R14*%
X15150000Y2310000D03*
X15150000Y1290000D03*
%TD*%
D27*
%TO.C,L60*%
X-18400000Y-3559000D03*
X-18400000Y-759000D03*
%TD*%
D26*
%TO.C,R15*%
X11150000Y-5760000D03*
X11150000Y-4740000D03*
%TD*%
D28*
%TO.C,R7*%
X23510000Y2400000D03*
X22490000Y2400000D03*
%TD*%
D29*
%TO.C,TP80*%
X-7350000Y6250000D03*
%TD*%
%TO.C,TP83*%
X-12350000Y7700000D03*
%TD*%
D22*
%TO.C,D42*%
X6650000Y4700000D03*
X9150000Y4700000D03*
%TD*%
D16*
%TO.C,D6*%
X9200000Y-3650000D03*
X10600000Y-3650000D03*
%TD*%
D30*
%TO.C,U2*%
X2037500Y825000D03*
X2037500Y175000D03*
X2037500Y-475000D03*
X2037500Y-1125000D03*
X2037500Y-1775000D03*
X2037500Y-2425000D03*
X2037500Y-3075000D03*
X2037500Y-3725000D03*
X2037500Y-4375000D03*
X2037500Y-5025000D03*
X7762500Y-5025000D03*
X7762500Y-4375000D03*
X7762500Y-3725000D03*
X7762500Y-3075000D03*
X7762500Y-2425000D03*
X7762500Y-1775000D03*
X7762500Y-1125000D03*
X7762500Y-475000D03*
X7762500Y175000D03*
X7762500Y825000D03*
%TD*%
D29*
%TO.C,TP81*%
X-6550000Y7700000D03*
%TD*%
D18*
%TO.C,R11*%
X12000000Y410000D03*
X12000000Y-610000D03*
%TD*%
D22*
%TO.C,J1*%
X23750000Y7000000D03*
D31*
X21500000Y6250000D03*
D22*
X22250000Y7750000D03*
X22250000Y7000000D03*
X23000000Y7750000D03*
X22250000Y6250000D03*
X24500000Y7000000D03*
X23750000Y6250000D03*
D31*
X24500000Y6250000D03*
D22*
X23750000Y7750000D03*
X23000000Y7000000D03*
X23000000Y6250000D03*
D31*
X21500000Y7750000D03*
D22*
X21500000Y7000000D03*
D31*
X24500000Y7750000D03*
%TD*%
D22*
%TO.C,J40*%
X-1250000Y-7000000D03*
X-500000Y-7000000D03*
X-1250000Y-6250000D03*
X-2000000Y-6250000D03*
X-2750000Y-7750000D03*
X-2000000Y-7000000D03*
X-2000000Y-7750000D03*
X-1250000Y-7750000D03*
X-2750000Y-6250000D03*
D32*
X-500000Y-6250000D03*
X-500000Y-7750000D03*
X-3500000Y-7750000D03*
X-3500000Y-6250000D03*
D22*
X-2750000Y-7000000D03*
X-3500000Y-7000000D03*
%TD*%
D19*
%TO.C,C88*%
X-11300000Y1930000D03*
X-11300000Y970000D03*
%TD*%
D33*
%TO.C,R1*%
X18736800Y4700000D03*
X14063200Y4700000D03*
%TD*%
D19*
%TO.C,C9*%
X19700000Y-3620000D03*
X19700000Y-4580000D03*
%TD*%
D16*
%TO.C,D4*%
X9100000Y1500000D03*
X10500000Y1500000D03*
%TD*%
D14*
%TO.C,R4*%
X22490000Y3350000D03*
X23510000Y3350000D03*
%TD*%
D29*
%TO.C,TP84*%
X-8100000Y7700000D03*
%TD*%
D33*
%TO.C,R3*%
X18736800Y-6900000D03*
X14063200Y-6900000D03*
%TD*%
D34*
%TO.C,C89*%
X-11300000Y-780000D03*
X-11300000Y180000D03*
%TD*%
D26*
%TO.C,R20*%
X12000000Y-2410000D03*
X12000000Y-1390000D03*
%TD*%
D18*
%TO.C,R19*%
X12000000Y4410000D03*
X12000000Y3390000D03*
%TD*%
D22*
%TO.C,J2*%
X22950000Y750000D03*
X22200000Y750000D03*
X23700000Y0D03*
X23700000Y-750000D03*
D31*
X21450000Y750000D03*
D22*
X24450000Y0D03*
D31*
X21450000Y-750000D03*
D22*
X22950000Y-750000D03*
X22200000Y-750000D03*
X22200000Y0D03*
X22950000Y0D03*
D31*
X24450000Y-750000D03*
X24450000Y750000D03*
D22*
X21450000Y0D03*
X23700000Y750000D03*
%TD*%
D29*
%TO.C,TP82*%
X-5000000Y7700000D03*
%TD*%
D20*
%TO.C,C5*%
X10180000Y-2400000D03*
X9220000Y-2400000D03*
%TD*%
D22*
%TO.C,D3*%
X12250000Y-4100000D03*
X14750000Y-4100000D03*
%TD*%
D35*
%TO.C,J30*%
X-17450000Y4400000D03*
X-18950000Y3650000D03*
D22*
X-18200000Y3650000D03*
D35*
X-18950000Y4400000D03*
X-17450000Y3650000D03*
D22*
X-18200000Y4400000D03*
D35*
X-17450000Y2150000D03*
D22*
X-18200000Y1400000D03*
D35*
X-18950000Y2150000D03*
D22*
X-18200000Y2150000D03*
D35*
X-18950000Y1400000D03*
X-17450000Y1400000D03*
%TD*%
D19*
%TO.C,C84*%
X-11300000Y-1620000D03*
X-11300000Y-2580000D03*
%TD*%
D14*
%TO.C,R42*%
X6290000Y2500000D03*
X7310000Y2500000D03*
%TD*%
D22*
%TO.C,J81*%
X-13765000Y-2540000D03*
D36*
X-15035000Y-2540000D03*
X-13765000Y-1270000D03*
X-15035000Y-1270000D03*
X-13765000Y0D03*
X-15035000Y0D03*
X-13765000Y1270000D03*
X-15035000Y1270000D03*
X-13765000Y2540000D03*
X-15035000Y2540000D03*
%TD*%
D26*
%TO.C,R17*%
X19050000Y1190000D03*
X19050000Y2210000D03*
%TD*%
D15*
%TO.C,U5*%
X16050000Y2300000D03*
X16050000Y1800000D03*
X16050000Y1300000D03*
X17550000Y1300000D03*
X17550000Y1800000D03*
X17550000Y2300000D03*
%TD*%
D32*
%TO.C,J41*%
X-500000Y6250000D03*
D22*
X-3500000Y7000000D03*
X-2750000Y6250000D03*
X-1250000Y7000000D03*
D32*
X-500000Y7750000D03*
D22*
X-2750000Y7750000D03*
X-2000000Y7750000D03*
D32*
X-3500000Y7750000D03*
D22*
X-2000000Y6250000D03*
X-2000000Y7000000D03*
X-2750000Y7000000D03*
X-1250000Y7750000D03*
X-1250000Y6250000D03*
X-500000Y7000000D03*
D32*
X-3500000Y6250000D03*
%TD*%
D22*
%TO.C,D2*%
X11600000Y1700000D03*
X14100000Y1700000D03*
%TD*%
D20*
%TO.C,C6*%
X10180000Y-4800000D03*
X9220000Y-4800000D03*
%TD*%
D14*
%TO.C,R16*%
X15640000Y8150000D03*
X16660000Y8150000D03*
%TD*%
D19*
%TO.C,C83*%
X-1000000Y4780000D03*
X-1000000Y3820000D03*
%TD*%
D22*
%TO.C,J4*%
X22250000Y-4250000D03*
D32*
X24500000Y-2750000D03*
D22*
X23750000Y-2750000D03*
D32*
X21500000Y-4250000D03*
D22*
X21500000Y-3500000D03*
X23000000Y-4250000D03*
X23750000Y-3500000D03*
X22250000Y-3500000D03*
X23000000Y-2750000D03*
X24500000Y-3500000D03*
X23750000Y-4250000D03*
X22250000Y-2750000D03*
D32*
X24500000Y-4250000D03*
X21500000Y-2750000D03*
D22*
X23000000Y-3500000D03*
%TD*%
D21*
%TO.C,C4*%
X9220000Y300000D03*
X10180000Y300000D03*
%TD*%
D37*
%TO.C,C10*%
X2000000Y2400000D03*
X2000000Y5350000D03*
%TD*%
D26*
%TO.C,R13*%
X11150000Y5040000D03*
X11150000Y6060000D03*
%TD*%
D33*
%TO.C,R2*%
X18736800Y-1100000D03*
X14063200Y-1100000D03*
%TD*%
D28*
%TO.C,R22*%
X8810000Y-6050000D03*
X7790000Y-6050000D03*
%TD*%
%TO.C,R23*%
X2610000Y-6050000D03*
X1590000Y-6050000D03*
%TD*%
D31*
%TO.C,J3*%
X21500000Y-6250000D03*
X21500000Y-7750000D03*
D22*
X23750000Y-6250000D03*
D31*
X24500000Y-6250000D03*
X24500000Y-7750000D03*
D22*
X23000000Y-7000000D03*
X24500000Y-7000000D03*
X22250000Y-6250000D03*
X21500000Y-7000000D03*
X23000000Y-7750000D03*
X22250000Y-7000000D03*
X22250000Y-7750000D03*
X23750000Y-7750000D03*
X23000000Y-6250000D03*
X23750000Y-7000000D03*
%TD*%
D15*
%TO.C,U6*%
X16050000Y-3500000D03*
X16050000Y-4000000D03*
X16050000Y-4500000D03*
X17550000Y-4500000D03*
X17550000Y-4000000D03*
X17550000Y-3500000D03*
%TD*%
D38*
%TO.C,C40*%
X4400000Y-5691000D03*
X4400000Y-2691000D03*
%TD*%
%TO.C,C41*%
X4400000Y2700000D03*
X4400000Y5700000D03*
%TD*%
M02*
